solid Glock 17 - Glock_spacer sleeve-1
   facet normal -1.000000e+000 0.000000e+000 0.000000e+000
      outer loop
         vertex 1.909188e+000 4.696326e+000 9.640195e-001
         vertex 1.909188e+000 4.696326e+000 9.915428e-001
         vertex 1.909188e+000 4.722580e+000 1.007277e+000
      endloop
   endfacet
   facet normal -1.000000e+000 0.000000e+000 0.000000e+000
      outer loop
         vertex 1.909188e+000 4.690383e+000 8.992364e-001
         vertex 1.909188e+000 4.627059e+000 9.529474e-001
         vertex 1.909188e+000 4.700620e+000 9.253194e-001
      endloop
   endfacet
   facet normal -1.000000e+000 0.000000e+000 0.000000e+000
      outer loop
         vertex 1.909188e+000 4.700620e+000 9.253194e-001
         vertex 1.909188e+000 4.627059e+000 9.529474e-001
         vertex 1.909188e+000 4.632897e+000 9.640195e-001
      endloop
   endfacet
   facet normal -1.000000e+000 0.000000e+000 0.000000e+000
      outer loop
         vertex 1.909188e+000 4.700620e+000 9.253194e-001
         vertex 1.909188e+000 4.632897e+000 9.640195e-001
         vertex 1.909188e+000 4.718090e+000 9.472263e-001
      endloop
   endfacet
   facet normal -1.000000e+000 0.000000e+000 0.000000e+000
      outer loop
         vertex 1.909188e+000 4.718090e+000 9.472263e-001
         vertex 1.909188e+000 4.632897e+000 9.640195e-001
         vertex 1.909188e+000 4.696326e+000 9.640195e-001
      endloop
   endfacet
   facet normal -1.000000e+000 0.000000e+000 0.000000e+000
      outer loop
         vertex 1.909188e+000 4.718090e+000 9.472263e-001
         vertex 1.909188e+000 4.696326e+000 9.640195e-001
         vertex 1.909188e+000 4.741241e+000 9.630105e-001
      endloop
   endfacet
   facet normal -1.000000e+000 0.000000e+000 0.000000e+000
      outer loop
         vertex 1.909188e+000 4.741241e+000 9.630105e-001
         vertex 1.909188e+000 4.696326e+000 9.640195e-001
         vertex 1.909188e+000 4.722580e+000 1.007277e+000
      endloop
   endfacet
   facet normal -1.000000e+000 0.000000e+000 0.000000e+000
      outer loop
         vertex 1.909188e+000 4.741241e+000 9.630105e-001
         vertex 1.909188e+000 4.722580e+000 1.007277e+000
         vertex 1.909188e+000 4.768016e+000 9.712695e-001
      endloop
   endfacet
   facet normal -1.000000e+000 0.000000e+000 0.000000e+000
      outer loop
         vertex 1.909188e+000 4.841472e+000 1.007277e+000
         vertex 1.909188e+000 4.822811e+000 9.630105e-001
         vertex 1.909188e+000 4.812456e+000 1.017021e+000
      endloop
   endfacet
   facet normal -1.000000e+000 0.000000e+000 0.000000e+000
      outer loop
         vertex 1.909188e+000 4.812456e+000 1.017021e+000
         vertex 1.909188e+000 4.822811e+000 9.630105e-001
         vertex 1.909188e+000 4.796036e+000 9.712695e-001
      endloop
   endfacet
   facet normal -1.000000e+000 0.000000e+000 0.000000e+000
      outer loop
         vertex 1.909188e+000 4.812456e+000 1.017021e+000
         vertex 1.909188e+000 4.796036e+000 9.712695e-001
         vertex 1.909188e+000 4.782026e+000 1.020319e+000
      endloop
   endfacet
   facet normal -1.000000e+000 0.000000e+000 0.000000e+000
      outer loop
         vertex 1.909188e+000 4.782026e+000 1.020319e+000
         vertex 1.909188e+000 4.796036e+000 9.712695e-001
         vertex 1.909188e+000 4.768016e+000 9.712695e-001
      endloop
   endfacet
   facet normal -1.000000e+000 0.000000e+000 0.000000e+000
      outer loop
         vertex 1.909188e+000 4.782026e+000 1.020319e+000
         vertex 1.909188e+000 4.768016e+000 9.712695e-001
         vertex 1.909188e+000 4.751596e+000 1.017021e+000
      endloop
   endfacet
   facet normal -1.000000e+000 0.000000e+000 0.000000e+000
      outer loop
         vertex 1.909188e+000 4.751596e+000 1.017021e+000
         vertex 1.909188e+000 4.768016e+000 9.712695e-001
         vertex 1.909188e+000 4.722580e+000 1.007277e+000
      endloop
   endfacet
   facet normal -1.000000e+000 0.000000e+000 0.000000e+000
      outer loop
         vertex 1.909188e+000 4.910984e+000 8.188735e-001
         vertex 1.909188e+000 4.895249e+000 7.926195e-001
         vertex 1.909188e+000 4.867726e+000 7.926195e-001
      endloop
   endfacet
   facet normal -1.000000e+000 0.000000e+000 0.000000e+000
      outer loop
         vertex 1.909188e+000 4.863432e+000 9.253194e-001
         vertex 1.909188e+000 4.867726e+000 9.640195e-001
         vertex 1.909188e+000 4.873669e+000 8.992364e-001
      endloop
   endfacet
   facet normal -1.000000e+000 0.000000e+000 0.000000e+000
      outer loop
         vertex 1.909188e+000 4.873669e+000 8.992364e-001
         vertex 1.909188e+000 4.867726e+000 9.640195e-001
         vertex 1.909188e+000 4.895249e+000 9.640195e-001
      endloop
   endfacet
   facet normal -1.000000e+000 0.000000e+000 0.000000e+000
      outer loop
         vertex 1.909188e+000 4.841472e+000 1.007277e+000
         vertex 1.909188e+000 4.867726e+000 9.915428e-001
         vertex 1.909188e+000 4.822811e+000 9.630105e-001
      endloop
   endfacet
   facet normal -1.000000e+000 0.000000e+000 0.000000e+000
      outer loop
         vertex 1.909188e+000 4.822811e+000 9.630105e-001
         vertex 1.909188e+000 4.867726e+000 9.915428e-001
         vertex 1.909188e+000 4.867726e+000 9.640195e-001
      endloop
   endfacet
   facet normal -1.000000e+000 0.000000e+000 0.000000e+000
      outer loop
         vertex 1.909188e+000 4.822811e+000 9.630105e-001
         vertex 1.909188e+000 4.867726e+000 9.640195e-001
         vertex 1.909188e+000 4.845963e+000 9.472263e-001
      endloop
   endfacet
   facet normal -1.000000e+000 0.000000e+000 0.000000e+000
      outer loop
         vertex 1.909188e+000 4.845963e+000 9.472263e-001
         vertex 1.909188e+000 4.867726e+000 9.640195e-001
         vertex 1.909188e+000 4.863432e+000 9.253194e-001
      endloop
   endfacet
   facet normal -1.000000e+000 0.000000e+000 0.000000e+000
      outer loop
         vertex 1.909188e+000 4.875763e+000 8.712948e-001
         vertex 1.909188e+000 4.920727e+000 8.478895e-001
         vertex 1.909188e+000 4.869528e+000 8.439775e-001
      endloop
   endfacet
   facet normal -1.000000e+000 0.000000e+000 0.000000e+000
      outer loop
         vertex 1.909188e+000 4.869528e+000 8.439775e-001
         vertex 1.909188e+000 4.920727e+000 8.478895e-001
         vertex 1.909188e+000 4.910984e+000 8.188735e-001
      endloop
   endfacet
   facet normal -1.000000e+000 0.000000e+000 0.000000e+000
      outer loop
         vertex 1.909188e+000 4.869528e+000 8.439775e-001
         vertex 1.909188e+000 4.910984e+000 8.188735e-001
         vertex 1.909188e+000 4.855518e+000 8.197114e-001
      endloop
   endfacet
   facet normal -1.000000e+000 0.000000e+000 0.000000e+000
      outer loop
         vertex 1.909188e+000 4.855518e+000 8.197114e-001
         vertex 1.909188e+000 4.910984e+000 8.188735e-001
         vertex 1.909188e+000 4.867726e+000 7.926195e-001
      endloop
   endfacet
   facet normal -1.000000e+000 0.000000e+000 0.000000e+000
      outer loop
         vertex 1.909188e+000 4.855518e+000 8.197114e-001
         vertex 1.909188e+000 4.867726e+000 7.926195e-001
         vertex 1.909188e+000 4.834978e+000 8.006530e-001
      endloop
   endfacet
   facet normal -1.000000e+000 0.000000e+000 0.000000e+000
      outer loop
         vertex 1.909188e+000 4.895249e+000 9.640195e-001
         vertex 1.909188e+000 4.910984e+000 9.377654e-001
         vertex 1.909188e+000 4.873669e+000 8.992364e-001
      endloop
   endfacet
   facet normal -1.000000e+000 0.000000e+000 0.000000e+000
      outer loop
         vertex 1.909188e+000 4.873669e+000 8.992364e-001
         vertex 1.909188e+000 4.910984e+000 9.377654e-001
         vertex 1.909188e+000 4.920727e+000 9.087494e-001
      endloop
   endfacet
   facet normal -1.000000e+000 0.000000e+000 0.000000e+000
      outer loop
         vertex 1.909188e+000 4.873669e+000 8.992364e-001
         vertex 1.909188e+000 4.920727e+000 9.087494e-001
         vertex 1.909188e+000 4.875763e+000 8.712948e-001
      endloop
   endfacet
   facet normal -1.000000e+000 0.000000e+000 0.000000e+000
      outer loop
         vertex 1.909188e+000 4.875763e+000 8.712948e-001
         vertex 1.909188e+000 4.920727e+000 9.087494e-001
         vertex 1.909188e+000 4.924026e+000 8.783195e-001
      endloop
   endfacet
   facet normal -1.000000e+000 0.000000e+000 0.000000e+000
      outer loop
         vertex 1.909188e+000 4.875763e+000 8.712948e-001
         vertex 1.909188e+000 4.924026e+000 8.783195e-001
         vertex 1.909188e+000 4.920727e+000 8.478895e-001
      endloop
   endfacet
   facet normal -1.000000e+000 0.000000e+000 0.000000e+000
      outer loop
         vertex 1.909188e+000 4.722580e+000 7.493615e-001
         vertex 1.909188e+000 4.696326e+000 7.650962e-001
         vertex 1.909188e+000 4.696326e+000 7.926195e-001
      endloop
   endfacet
   facet normal -1.000000e+000 0.000000e+000 0.000000e+000
      outer loop
         vertex 1.909188e+000 4.867726e+000 7.926195e-001
         vertex 1.909188e+000 4.867726e+000 7.650962e-001
         vertex 1.909188e+000 4.834978e+000 8.006530e-001
      endloop
   endfacet
   facet normal -1.000000e+000 0.000000e+000 0.000000e+000
      outer loop
         vertex 1.909188e+000 4.834978e+000 8.006530e-001
         vertex 1.909188e+000 4.867726e+000 7.650962e-001
         vertex 1.909188e+000 4.841472e+000 7.493615e-001
      endloop
   endfacet
   facet normal -1.000000e+000 0.000000e+000 0.000000e+000
      outer loop
         vertex 1.909188e+000 4.834978e+000 8.006530e-001
         vertex 1.909188e+000 4.841472e+000 7.493615e-001
         vertex 1.909188e+000 4.809733e+000 7.884956e-001
      endloop
   endfacet
   facet normal -1.000000e+000 0.000000e+000 0.000000e+000
      outer loop
         vertex 1.909188e+000 4.809733e+000 7.884956e-001
         vertex 1.909188e+000 4.841472e+000 7.493615e-001
         vertex 1.909188e+000 4.812456e+000 7.396182e-001
      endloop
   endfacet
   facet normal -1.000000e+000 0.000000e+000 0.000000e+000
      outer loop
         vertex 1.909188e+000 4.809733e+000 7.884956e-001
         vertex 1.909188e+000 4.812456e+000 7.396182e-001
         vertex 1.909188e+000 4.782026e+000 7.843195e-001
      endloop
   endfacet
   facet normal -1.000000e+000 0.000000e+000 0.000000e+000
      outer loop
         vertex 1.909188e+000 4.782026e+000 7.843195e-001
         vertex 1.909188e+000 4.812456e+000 7.396182e-001
         vertex 1.909188e+000 4.782026e+000 7.363195e-001
      endloop
   endfacet
   facet normal -1.000000e+000 0.000000e+000 0.000000e+000
      outer loop
         vertex 1.909188e+000 4.782026e+000 7.843195e-001
         vertex 1.909188e+000 4.782026e+000 7.363195e-001
         vertex 1.909188e+000 4.754319e+000 7.884956e-001
      endloop
   endfacet
   facet normal -1.000000e+000 0.000000e+000 0.000000e+000
      outer loop
         vertex 1.909188e+000 4.694524e+000 8.439775e-001
         vertex 1.909188e+000 4.614338e+000 8.400459e-001
         vertex 1.909188e+000 4.688289e+000 8.712948e-001
      endloop
   endfacet
   facet normal -1.000000e+000 0.000000e+000 0.000000e+000
      outer loop
         vertex 1.909188e+000 4.688289e+000 8.712948e-001
         vertex 1.909188e+000 4.614338e+000 8.400459e-001
         vertex 1.909188e+000 4.610026e+000 8.783195e-001
      endloop
   endfacet
   facet normal -1.000000e+000 0.000000e+000 0.000000e+000
      outer loop
         vertex 1.909188e+000 4.688289e+000 8.712948e-001
         vertex 1.909188e+000 4.610026e+000 8.783195e-001
         vertex 1.909188e+000 4.690383e+000 8.992364e-001
      endloop
   endfacet
   facet normal -1.000000e+000 0.000000e+000 0.000000e+000
      outer loop
         vertex 1.909188e+000 4.690383e+000 8.992364e-001
         vertex 1.909188e+000 4.610026e+000 8.783195e-001
         vertex 1.909188e+000 4.614338e+000 9.165931e-001
      endloop
   endfacet
   facet normal -1.000000e+000 0.000000e+000 0.000000e+000
      outer loop
         vertex 1.909188e+000 4.690383e+000 8.992364e-001
         vertex 1.909188e+000 4.614338e+000 9.165931e-001
         vertex 1.909188e+000 4.627059e+000 9.529474e-001
      endloop
   endfacet
   facet normal -1.000000e+000 0.000000e+000 0.000000e+000
      outer loop
         vertex 1.909188e+000 4.782026e+000 7.363195e-001
         vertex 1.909188e+000 4.751596e+000 7.396182e-001
         vertex 1.909188e+000 4.754319e+000 7.884956e-001
      endloop
   endfacet
   facet normal -1.000000e+000 0.000000e+000 0.000000e+000
      outer loop
         vertex 1.909188e+000 4.754319e+000 7.884956e-001
         vertex 1.909188e+000 4.751596e+000 7.396182e-001
         vertex 1.909188e+000 4.722580e+000 7.493615e-001
      endloop
   endfacet
   facet normal -1.000000e+000 0.000000e+000 0.000000e+000
      outer loop
         vertex 1.909188e+000 4.754319e+000 7.884956e-001
         vertex 1.909188e+000 4.722580e+000 7.493615e-001
         vertex 1.909188e+000 4.729074e+000 8.006530e-001
      endloop
   endfacet
   facet normal -1.000000e+000 0.000000e+000 0.000000e+000
      outer loop
         vertex 1.909188e+000 4.729074e+000 8.006530e-001
         vertex 1.909188e+000 4.722580e+000 7.493615e-001
         vertex 1.909188e+000 4.696326e+000 7.926195e-001
      endloop
   endfacet
   facet normal -1.000000e+000 0.000000e+000 0.000000e+000
      outer loop
         vertex 1.909188e+000 4.729074e+000 8.006530e-001
         vertex 1.909188e+000 4.696326e+000 7.926195e-001
         vertex 1.909188e+000 4.708534e+000 8.197114e-001
      endloop
   endfacet
   facet normal -1.000000e+000 0.000000e+000 0.000000e+000
      outer loop
         vertex 1.909188e+000 4.708534e+000 8.197114e-001
         vertex 1.909188e+000 4.696326e+000 7.926195e-001
         vertex 1.909188e+000 4.632897e+000 7.926195e-001
      endloop
   endfacet
   facet normal -1.000000e+000 0.000000e+000 0.000000e+000
      outer loop
         vertex 1.909188e+000 4.708534e+000 8.197114e-001
         vertex 1.909188e+000 4.632897e+000 7.926195e-001
         vertex 1.909188e+000 4.694524e+000 8.439775e-001
      endloop
   endfacet
   facet normal -1.000000e+000 0.000000e+000 0.000000e+000
      outer loop
         vertex 1.909188e+000 4.694524e+000 8.439775e-001
         vertex 1.909188e+000 4.632897e+000 7.926195e-001
         vertex 1.909188e+000 4.627059e+000 8.036915e-001
      endloop
   endfacet
   facet normal -1.000000e+000 0.000000e+000 0.000000e+000
      outer loop
         vertex 1.909188e+000 4.694524e+000 8.439775e-001
         vertex 1.909188e+000 4.627059e+000 8.036915e-001
         vertex 1.909188e+000 4.614338e+000 8.400459e-001
      endloop
   endfacet
   facet normal 0.000000e+000 -8.536690e-001 -5.208160e-001
      outer loop
         vertex 1.909188e+000 4.627059e+000 8.036915e-001
         vertex 1.909188e+000 4.632897e+000 7.926195e-001
         vertex 2.029188e+000 4.647551e+000 7.710792e-001
      endloop
   endfacet
   facet normal 0.000000e+000 -8.660954e-001 -4.998786e-001
      outer loop
         vertex 2.029188e+000 4.647551e+000 7.710792e-001
         vertex 2.029188e+000 4.627059e+000 8.036915e-001
         vertex 1.909188e+000 4.627059e+000 8.036915e-001
      endloop
   endfacet
   facet normal 0.000000e+000 -9.308226e-001 -3.654715e-001
      outer loop
         vertex 1.909188e+000 4.627059e+000 8.036915e-001
         vertex 2.029188e+000 4.627059e+000 8.036915e-001
         vertex 2.029188e+000 4.614338e+000 8.400459e-001
      endloop
   endfacet
   facet normal 0.000000e+000 -9.556141e-001 -2.946213e-001
      outer loop
         vertex 1.909188e+000 4.627059e+000 8.036915e-001
         vertex 2.029188e+000 4.614338e+000 8.400459e-001
         vertex 1.909188e+000 4.614338e+000 8.400459e-001
      endloop
   endfacet
   facet normal 0.000000e+000 -9.888099e-001 -1.491808e-001
      outer loop
         vertex 1.909188e+000 4.614338e+000 8.400459e-001
         vertex 2.029188e+000 4.614338e+000 8.400459e-001
         vertex 2.029188e+000 4.610026e+000 8.783195e-001
      endloop
   endfacet
   facet normal 0.000000e+000 -9.972143e-001 -7.459039e-002
      outer loop
         vertex 1.909188e+000 4.614338e+000 8.400459e-001
         vertex 2.029188e+000 4.610026e+000 8.783195e-001
         vertex 1.909188e+000 4.610026e+000 8.783195e-001
      endloop
   endfacet
   facet normal 0.000000e+000 -9.972143e-001 7.459039e-002
      outer loop
         vertex 1.909188e+000 4.610026e+000 8.783195e-001
         vertex 2.029188e+000 4.610026e+000 8.783195e-001
         vertex 2.029188e+000 4.614338e+000 9.165931e-001
      endloop
   endfacet
   facet normal 0.000000e+000 -9.888099e-001 1.491808e-001
      outer loop
         vertex 1.909188e+000 4.610026e+000 8.783195e-001
         vertex 2.029188e+000 4.614338e+000 9.165931e-001
         vertex 1.909188e+000 4.614338e+000 9.165931e-001
      endloop
   endfacet
   facet normal 0.000000e+000 -9.556141e-001 2.946213e-001
      outer loop
         vertex 1.909188e+000 4.614338e+000 9.165931e-001
         vertex 2.029188e+000 4.614338e+000 9.165931e-001
         vertex 2.029188e+000 4.627059e+000 9.529474e-001
      endloop
   endfacet
   facet normal 0.000000e+000 -9.308226e-001 3.654715e-001
      outer loop
         vertex 1.909188e+000 4.614338e+000 9.165931e-001
         vertex 2.029188e+000 4.627059e+000 9.529474e-001
         vertex 1.909188e+000 4.627059e+000 9.529474e-001
      endloop
   endfacet
   facet normal 0.000000e+000 -8.407766e-001 5.413823e-001
      outer loop
         vertex 1.209188e+000 4.647551e+000 9.855597e-001
         vertex 1.209188e+000 4.632897e+000 9.640195e-001
         vertex 1.909188e+000 4.632897e+000 9.640195e-001
      endloop
   endfacet
   facet normal 0.000000e+000 -8.901799e-001 4.556093e-001
      outer loop
         vertex 1.909188e+000 4.627059e+000 9.529474e-001
         vertex 2.029188e+000 4.627059e+000 9.529474e-001
         vertex 1.909188e+000 4.632897e+000 9.640195e-001
      endloop
   endfacet
   facet normal 0.000000e+000 -8.536690e-001 5.208160e-001
      outer loop
         vertex 1.909188e+000 4.632897e+000 9.640195e-001
         vertex 2.029188e+000 4.627059e+000 9.529474e-001
         vertex 2.029188e+000 4.647551e+000 9.855597e-001
      endloop
   endfacet
   facet normal 0.000000e+000 -8.123043e-001 5.832338e-001
      outer loop
         vertex 1.909188e+000 4.632897e+000 9.640195e-001
         vertex 2.029188e+000 4.647551e+000 9.855597e-001
         vertex 1.209188e+000 4.647551e+000 9.855597e-001
      endloop
   endfacet
   facet normal 0.000000e+000 -7.331472e-001 6.800700e-001
      outer loop
         vertex 1.209188e+000 4.647551e+000 9.855597e-001
         vertex 2.029188e+000 4.647551e+000 9.855597e-001
         vertex 2.029188e+000 4.674786e+000 1.012794e+000
      endloop
   endfacet
   facet normal 0.000000e+000 -6.800701e-001 7.331471e-001
      outer loop
         vertex 1.209188e+000 4.647551e+000 9.855597e-001
         vertex 2.029188e+000 4.674786e+000 1.012794e+000
         vertex 1.209188e+000 4.674786e+000 1.012794e+000
      endloop
   endfacet
   facet normal 0.000000e+000 -5.634358e-001 8.261599e-001
      outer loop
         vertex 1.209188e+000 4.674786e+000 1.012794e+000
         vertex 2.029188e+000 4.674786e+000 1.012794e+000
         vertex 2.029188e+000 4.707398e+000 1.033286e+000
      endloop
   endfacet
   facet normal 0.000000e+000 -4.998786e-001 8.660954e-001
      outer loop
         vertex 1.209188e+000 4.674786e+000 1.012794e+000
         vertex 2.029188e+000 4.707398e+000 1.033286e+000
         vertex 1.209188e+000 4.707398e+000 1.033286e+000
      endloop
   endfacet
   facet normal 0.000000e+000 -3.654715e-001 9.308226e-001
      outer loop
         vertex 1.209188e+000 4.707398e+000 1.033286e+000
         vertex 2.029188e+000 4.707398e+000 1.033286e+000
         vertex 2.029188e+000 4.743752e+000 1.046007e+000
      endloop
   endfacet
   facet normal 0.000000e+000 -2.946213e-001 9.556141e-001
      outer loop
         vertex 1.209188e+000 4.707398e+000 1.033286e+000
         vertex 2.029188e+000 4.743752e+000 1.046007e+000
         vertex 1.209188e+000 4.743752e+000 1.046007e+000
      endloop
   endfacet
   facet normal 0.000000e+000 -1.491808e-001 9.888099e-001
      outer loop
         vertex 1.209188e+000 4.743752e+000 1.046007e+000
         vertex 2.029188e+000 4.743752e+000 1.046007e+000
         vertex 2.029188e+000 4.782026e+000 1.050320e+000
      endloop
   endfacet
   facet normal 0.000000e+000 -7.459039e-002 9.972143e-001
      outer loop
         vertex 1.209188e+000 4.743752e+000 1.046007e+000
         vertex 2.029188e+000 4.782026e+000 1.050320e+000
         vertex 1.209188e+000 4.782026e+000 1.050320e+000
      endloop
   endfacet
   facet normal 0.000000e+000 7.459039e-002 9.972143e-001
      outer loop
         vertex 1.209188e+000 4.782026e+000 1.050320e+000
         vertex 2.029188e+000 4.782026e+000 1.050320e+000
         vertex 2.029188e+000 4.820300e+000 1.046007e+000
      endloop
   endfacet
   facet normal 0.000000e+000 1.491808e-001 9.888099e-001
      outer loop
         vertex 1.209188e+000 4.782026e+000 1.050320e+000
         vertex 2.029188e+000 4.820300e+000 1.046007e+000
         vertex 1.209188e+000 4.820300e+000 1.046007e+000
      endloop
   endfacet
   facet normal 0.000000e+000 2.946213e-001 9.556141e-001
      outer loop
         vertex 1.209188e+000 4.820300e+000 1.046007e+000
         vertex 2.029188e+000 4.820300e+000 1.046007e+000
         vertex 2.029188e+000 4.856654e+000 1.033286e+000
      endloop
   endfacet
   facet normal 0.000000e+000 3.654715e-001 9.308226e-001
      outer loop
         vertex 1.209188e+000 4.820300e+000 1.046007e+000
         vertex 2.029188e+000 4.856654e+000 1.033286e+000
         vertex 1.209188e+000 4.856654e+000 1.033286e+000
      endloop
   endfacet
   facet normal 0.000000e+000 4.998786e-001 8.660955e-001
      outer loop
         vertex 1.209188e+000 4.856654e+000 1.033286e+000
         vertex 2.029188e+000 4.856654e+000 1.033286e+000
         vertex 2.029188e+000 4.889266e+000 1.012794e+000
      endloop
   endfacet
   facet normal 0.000000e+000 5.634358e-001 8.261599e-001
      outer loop
         vertex 1.209188e+000 4.856654e+000 1.033286e+000
         vertex 2.029188e+000 4.889266e+000 1.012794e+000
         vertex 1.209188e+000 4.889266e+000 1.012794e+000
      endloop
   endfacet
   facet normal 0.000000e+000 6.800700e-001 7.331472e-001
      outer loop
         vertex 1.209188e+000 4.889266e+000 1.012794e+000
         vertex 2.029188e+000 4.889266e+000 1.012794e+000
         vertex 2.029188e+000 4.916501e+000 9.855597e-001
      endloop
   endfacet
   facet normal 0.000000e+000 7.331471e-001 6.800701e-001
      outer loop
         vertex 1.209188e+000 4.889266e+000 1.012794e+000
         vertex 2.029188e+000 4.916501e+000 9.855597e-001
         vertex 1.209188e+000 4.916501e+000 9.855597e-001
      endloop
   endfacet
   facet normal 0.000000e+000 8.261599e-001 5.634358e-001
      outer loop
         vertex 1.209188e+000 4.916501e+000 9.855597e-001
         vertex 2.029188e+000 4.916501e+000 9.855597e-001
         vertex 2.029188e+000 4.936993e+000 9.529474e-001
      endloop
   endfacet
   facet normal 0.000000e+000 8.660954e-001 4.998786e-001
      outer loop
         vertex 1.209188e+000 4.916501e+000 9.855597e-001
         vertex 2.029188e+000 4.936993e+000 9.529474e-001
         vertex 1.209188e+000 4.936993e+000 9.529474e-001
      endloop
   endfacet
   facet normal 0.000000e+000 9.308226e-001 3.654715e-001
      outer loop
         vertex 1.209188e+000 4.936993e+000 9.529474e-001
         vertex 2.029188e+000 4.936993e+000 9.529474e-001
         vertex 2.029188e+000 4.949714e+000 9.165931e-001
      endloop
   endfacet
   facet normal 0.000000e+000 9.556141e-001 2.946213e-001
      outer loop
         vertex 1.209188e+000 4.936993e+000 9.529474e-001
         vertex 2.029188e+000 4.949714e+000 9.165931e-001
         vertex 1.209188e+000 4.949714e+000 9.165931e-001
      endloop
   endfacet
   facet normal 0.000000e+000 9.888099e-001 1.491808e-001
      outer loop
         vertex 1.209188e+000 4.949714e+000 9.165931e-001
         vertex 2.029188e+000 4.949714e+000 9.165931e-001
         vertex 2.029188e+000 4.954026e+000 8.783195e-001
      endloop
   endfacet
   facet normal 0.000000e+000 9.972143e-001 7.459039e-002
      outer loop
         vertex 1.209188e+000 4.949714e+000 9.165931e-001
         vertex 2.029188e+000 4.954026e+000 8.783195e-001
         vertex 1.209188e+000 4.954026e+000 8.783195e-001
      endloop
   endfacet
   facet normal 0.000000e+000 9.972143e-001 -7.459039e-002
      outer loop
         vertex 1.209188e+000 4.954026e+000 8.783195e-001
         vertex 2.029188e+000 4.954026e+000 8.783195e-001
         vertex 2.029188e+000 4.949714e+000 8.400459e-001
      endloop
   endfacet
   facet normal 0.000000e+000 9.888099e-001 -1.491808e-001
      outer loop
         vertex 1.209188e+000 4.954026e+000 8.783195e-001
         vertex 2.029188e+000 4.949714e+000 8.400459e-001
         vertex 1.209188e+000 4.949714e+000 8.400459e-001
      endloop
   endfacet
   facet normal 0.000000e+000 9.556141e-001 -2.946213e-001
      outer loop
         vertex 1.209188e+000 4.949714e+000 8.400459e-001
         vertex 2.029188e+000 4.949714e+000 8.400459e-001
         vertex 2.029188e+000 4.936993e+000 8.036915e-001
      endloop
   endfacet
   facet normal 0.000000e+000 9.308226e-001 -3.654715e-001
      outer loop
         vertex 1.209188e+000 4.949714e+000 8.400459e-001
         vertex 2.029188e+000 4.936993e+000 8.036915e-001
         vertex 1.209188e+000 4.936993e+000 8.036915e-001
      endloop
   endfacet
   facet normal 0.000000e+000 8.660955e-001 -4.998786e-001
      outer loop
         vertex 1.209188e+000 4.936993e+000 8.036915e-001
         vertex 2.029188e+000 4.936993e+000 8.036915e-001
         vertex 2.029188e+000 4.916501e+000 7.710792e-001
      endloop
   endfacet
   facet normal 0.000000e+000 8.261599e-001 -5.634358e-001
      outer loop
         vertex 1.209188e+000 4.936993e+000 8.036915e-001
         vertex 2.029188e+000 4.916501e+000 7.710792e-001
         vertex 1.209188e+000 4.916501e+000 7.710792e-001
      endloop
   endfacet
   facet normal 0.000000e+000 7.331472e-001 -6.800700e-001
      outer loop
         vertex 1.209188e+000 4.916501e+000 7.710792e-001
         vertex 2.029188e+000 4.916501e+000 7.710792e-001
         vertex 2.029188e+000 4.889266e+000 7.438445e-001
      endloop
   endfacet
   facet normal 0.000000e+000 6.800701e-001 -7.331471e-001
      outer loop
         vertex 1.209188e+000 4.916501e+000 7.710792e-001
         vertex 2.029188e+000 4.889266e+000 7.438445e-001
         vertex 1.209188e+000 4.889266e+000 7.438445e-001
      endloop
   endfacet
   facet normal 0.000000e+000 5.634358e-001 -8.261599e-001
      outer loop
         vertex 1.209188e+000 4.889266e+000 7.438445e-001
         vertex 2.029188e+000 4.889266e+000 7.438445e-001
         vertex 2.029188e+000 4.856654e+000 7.233528e-001
      endloop
   endfacet
   facet normal 0.000000e+000 4.998786e-001 -8.660954e-001
      outer loop
         vertex 1.209188e+000 4.889266e+000 7.438445e-001
         vertex 2.029188e+000 4.856654e+000 7.233528e-001
         vertex 1.209188e+000 4.856654e+000 7.233528e-001
      endloop
   endfacet
   facet normal 0.000000e+000 3.654715e-001 -9.308226e-001
      outer loop
         vertex 1.209188e+000 4.856654e+000 7.233528e-001
         vertex 2.029188e+000 4.856654e+000 7.233528e-001
         vertex 2.029188e+000 4.820300e+000 7.106318e-001
      endloop
   endfacet
   facet normal 0.000000e+000 2.946213e-001 -9.556141e-001
      outer loop
         vertex 1.209188e+000 4.856654e+000 7.233528e-001
         vertex 2.029188e+000 4.820300e+000 7.106318e-001
         vertex 1.209188e+000 4.820300e+000 7.106318e-001
      endloop
   endfacet
   facet normal 0.000000e+000 1.491808e-001 -9.888099e-001
      outer loop
         vertex 1.209188e+000 4.820300e+000 7.106318e-001
         vertex 2.029188e+000 4.820300e+000 7.106318e-001
         vertex 2.029188e+000 4.782026e+000 7.063195e-001
      endloop
   endfacet
   facet normal 0.000000e+000 7.459039e-002 -9.972143e-001
      outer loop
         vertex 1.209188e+000 4.820300e+000 7.106318e-001
         vertex 2.029188e+000 4.782026e+000 7.063195e-001
         vertex 1.209188e+000 4.782026e+000 7.063195e-001
      endloop
   endfacet
   facet normal 0.000000e+000 -7.459039e-002 -9.972143e-001
      outer loop
         vertex 1.209188e+000 4.782026e+000 7.063195e-001
         vertex 2.029188e+000 4.782026e+000 7.063195e-001
         vertex 2.029188e+000 4.743752e+000 7.106318e-001
      endloop
   endfacet
   facet normal 0.000000e+000 -1.491808e-001 -9.888099e-001
      outer loop
         vertex 1.209188e+000 4.782026e+000 7.063195e-001
         vertex 2.029188e+000 4.743752e+000 7.106318e-001
         vertex 1.209188e+000 4.743752e+000 7.106318e-001
      endloop
   endfacet
   facet normal 0.000000e+000 -2.946213e-001 -9.556141e-001
      outer loop
         vertex 1.209188e+000 4.743752e+000 7.106318e-001
         vertex 2.029188e+000 4.743752e+000 7.106318e-001
         vertex 2.029188e+000 4.707398e+000 7.233528e-001
      endloop
   endfacet
   facet normal 0.000000e+000 -3.654715e-001 -9.308226e-001
      outer loop
         vertex 1.209188e+000 4.743752e+000 7.106318e-001
         vertex 2.029188e+000 4.707398e+000 7.233528e-001
         vertex 1.209188e+000 4.707398e+000 7.233528e-001
      endloop
   endfacet
   facet normal 0.000000e+000 -4.998786e-001 -8.660955e-001
      outer loop
         vertex 1.209188e+000 4.707398e+000 7.233528e-001
         vertex 2.029188e+000 4.707398e+000 7.233528e-001
         vertex 2.029188e+000 4.674786e+000 7.438445e-001
      endloop
   endfacet
   facet normal 0.000000e+000 -5.634358e-001 -8.261599e-001
      outer loop
         vertex 1.209188e+000 4.707398e+000 7.233528e-001
         vertex 2.029188e+000 4.674786e+000 7.438445e-001
         vertex 1.209188e+000 4.674786e+000 7.438445e-001
      endloop
   endfacet
   facet normal 0.000000e+000 -6.800700e-001 -7.331472e-001
      outer loop
         vertex 1.209188e+000 4.674786e+000 7.438445e-001
         vertex 2.029188e+000 4.674786e+000 7.438445e-001
         vertex 2.029188e+000 4.647551e+000 7.710792e-001
      endloop
   endfacet
   facet normal 0.000000e+000 -7.331471e-001 -6.800701e-001
      outer loop
         vertex 1.209188e+000 4.674786e+000 7.438445e-001
         vertex 2.029188e+000 4.647551e+000 7.710792e-001
         vertex 1.209188e+000 4.647551e+000 7.710792e-001
      endloop
   endfacet
   facet normal 0.000000e+000 -8.123043e-001 -5.832338e-001
      outer loop
         vertex 1.209188e+000 4.647551e+000 7.710792e-001
         vertex 2.029188e+000 4.647551e+000 7.710792e-001
         vertex 1.909188e+000 4.632897e+000 7.926195e-001
      endloop
   endfacet
   facet normal 0.000000e+000 -8.407766e-001 -5.413823e-001
      outer loop
         vertex 1.209188e+000 4.647551e+000 7.710792e-001
         vertex 1.909188e+000 4.632897e+000 7.926195e-001
         vertex 1.209188e+000 4.632897e+000 7.926195e-001
      endloop
   endfacet
   facet normal 0.000000e+000 9.923634e-002 9.950639e-001
      outer loop
         vertex 1.909188e+000 4.754319e+000 7.884956e-001
         vertex 2.029188e+000 4.782026e+000 7.843195e-001
         vertex 1.909188e+000 4.782026e+000 7.843195e-001
      endloop
   endfacet
   facet normal 0.000000e+000 -9.923634e-002 9.950639e-001
      outer loop
         vertex 1.909188e+000 4.782026e+000 7.843195e-001
         vertex 2.029188e+000 4.782026e+000 7.843195e-001
         vertex 2.029188e+000 4.809733e+000 7.884956e-001
      endloop
   endfacet
   facet normal 0.000000e+000 -1.984727e-001 9.801064e-001
      outer loop
         vertex 1.909188e+000 4.782026e+000 7.843195e-001
         vertex 2.029188e+000 4.809733e+000 7.884956e-001
         vertex 1.909188e+000 4.809733e+000 7.884956e-001
      endloop
   endfacet
   facet normal 0.000000e+000 -3.881278e-001 9.216056e-001
      outer loop
         vertex 1.909188e+000 4.809733e+000 7.884956e-001
         vertex 2.029188e+000 4.809733e+000 7.884956e-001
         vertex 2.029188e+000 4.834978e+000 8.006530e-001
      endloop
   endfacet
   facet normal 0.000000e+000 -4.785465e-001 8.780622e-001
      outer loop
         vertex 1.909188e+000 4.809733e+000 7.884956e-001
         vertex 2.029188e+000 4.834978e+000 8.006530e-001
         vertex 1.909188e+000 4.834978e+000 8.006530e-001
      endloop
   endfacet
   facet normal 0.000000e+000 -6.425323e-001 7.662585e-001
      outer loop
         vertex 1.909188e+000 4.834978e+000 8.006530e-001
         vertex 2.029188e+000 4.834978e+000 8.006530e-001
         vertex 2.029188e+000 4.855518e+000 8.197114e-001
      endloop
   endfacet
   facet normal 0.000000e+000 -7.160994e-001 6.979982e-001
      outer loop
         vertex 1.909188e+000 4.834978e+000 8.006530e-001
         vertex 2.029188e+000 4.855518e+000 8.197114e-001
         vertex 1.909188e+000 4.855518e+000 8.197114e-001
      endloop
   endfacet
   facet normal 0.000000e+000 -8.398451e-001 5.428261e-001
      outer loop
         vertex 1.909188e+000 4.855518e+000 8.197114e-001
         vertex 2.029188e+000 4.855518e+000 8.197114e-001
         vertex 2.029188e+000 4.869528e+000 8.439775e-001
      endloop
   endfacet
   facet normal 0.000000e+000 -8.900238e-001 4.559142e-001
      outer loop
         vertex 1.909188e+000 4.855518e+000 8.197114e-001
         vertex 2.029188e+000 4.869528e+000 8.439775e-001
         vertex 1.909188e+000 4.869528e+000 8.439775e-001
      endloop
   endfacet
   facet normal 0.000000e+000 -9.625340e-001 2.711612e-001
      outer loop
         vertex 1.909188e+000 4.869528e+000 8.439775e-001
         vertex 2.029188e+000 4.869528e+000 8.439775e-001
         vertex 2.029188e+000 4.875763e+000 8.712948e-001
      endloop
   endfacet
   facet normal 0.000000e+000 -9.848655e-001 1.733201e-001
      outer loop
         vertex 1.909188e+000 4.869528e+000 8.439775e-001
         vertex 2.029188e+000 4.875763e+000 8.712948e-001
         vertex 1.909188e+000 4.875763e+000 8.712948e-001
      endloop
   endfacet
   facet normal 0.000000e+000 -9.996974e-001 -2.459764e-002
      outer loop
         vertex 1.909188e+000 4.875763e+000 8.712948e-001
         vertex 2.029188e+000 4.875763e+000 8.712948e-001
         vertex 2.029188e+000 4.873669e+000 8.992364e-001
      endloop
   endfacet
   facet normal 0.000000e+000 -9.921978e-001 -1.246743e-001
      outer loop
         vertex 1.909188e+000 4.875763e+000 8.712948e-001
         vertex 2.029188e+000 4.873669e+000 8.992364e-001
         vertex 1.909188e+000 4.873669e+000 8.992364e-001
      endloop
   endfacet
   facet normal 0.000000e+000 -9.480334e-001 -3.181708e-001
      outer loop
         vertex 1.909188e+000 4.873669e+000 8.992364e-001
         vertex 2.029188e+000 4.873669e+000 8.992364e-001
         vertex 2.029188e+000 4.863432e+000 9.253194e-001
      endloop
   endfacet
   facet normal 0.000000e+000 -9.113688e-001 -4.115907e-001
      outer loop
         vertex 1.909188e+000 4.873669e+000 8.992364e-001
         vertex 2.029188e+000 4.863432e+000 9.253194e-001
         vertex 1.909188e+000 4.863432e+000 9.253194e-001
      endloop
   endfacet
   facet normal 0.000000e+000 -8.121324e-001 -5.834731e-001
      outer loop
         vertex 1.909188e+000 4.863432e+000 9.253194e-001
         vertex 2.029188e+000 4.863432e+000 9.253194e-001
         vertex 2.029188e+000 4.845963e+000 9.472263e-001
      endloop
   endfacet
   facet normal 0.000000e+000 -7.495607e-001 -6.619356e-001
      outer loop
         vertex 1.909188e+000 4.863432e+000 9.253194e-001
         vertex 2.029188e+000 4.845963e+000 9.472263e-001
         vertex 1.909188e+000 4.845963e+000 9.472263e-001
      endloop
   endfacet
   facet normal 0.000000e+000 -6.040699e-001 -7.969313e-001
      outer loop
         vertex 1.909188e+000 4.845963e+000 9.472263e-001
         vertex 2.029188e+000 4.845963e+000 9.472263e-001
         vertex 2.029188e+000 4.822811e+000 9.630105e-001
      endloop
   endfacet
   facet normal 0.000000e+000 -5.211509e-001 -8.534645e-001
      outer loop
         vertex 1.909188e+000 4.845963e+000 9.472263e-001
         vertex 2.029188e+000 4.822811e+000 9.630105e-001
         vertex 1.909188e+000 4.822811e+000 9.630105e-001
      endloop
   endfacet
   facet normal 0.000000e+000 -3.423332e-001 -9.395787e-001
      outer loop
         vertex 1.909188e+000 4.822811e+000 9.630105e-001
         vertex 2.029188e+000 4.822811e+000 9.630105e-001
         vertex 2.029188e+000 4.796036e+000 9.712695e-001
      endloop
   endfacet
   facet normal 0.000000e+000 -2.464345e-001 -9.691594e-001
      outer loop
         vertex 1.909188e+000 4.822811e+000 9.630105e-001
         vertex 2.029188e+000 4.796036e+000 9.712695e-001
         vertex 1.909188e+000 4.796036e+000 9.712695e-001
      endloop
   endfacet
   facet normal 0.000000e+000 -5.017862e-002 -9.987403e-001
      outer loop
         vertex 1.909188e+000 4.796036e+000 9.712695e-001
         vertex 2.029188e+000 4.796036e+000 9.712695e-001
         vertex 2.029188e+000 4.768016e+000 9.712695e-001
      endloop
   endfacet
   facet normal 0.000000e+000 5.017862e-002 -9.987403e-001
      outer loop
         vertex 1.909188e+000 4.796036e+000 9.712695e-001
         vertex 2.029188e+000 4.768016e+000 9.712695e-001
         vertex 1.909188e+000 4.768016e+000 9.712695e-001
      endloop
   endfacet
   facet normal 0.000000e+000 2.464345e-001 -9.691594e-001
      outer loop
         vertex 1.909188e+000 4.768016e+000 9.712695e-001
         vertex 2.029188e+000 4.768016e+000 9.712695e-001
         vertex 2.029188e+000 4.741241e+000 9.630105e-001
      endloop
   endfacet
   facet normal 0.000000e+000 3.423332e-001 -9.395786e-001
      outer loop
         vertex 1.909188e+000 4.768016e+000 9.712695e-001
         vertex 2.029188e+000 4.741241e+000 9.630105e-001
         vertex 1.909188e+000 4.741241e+000 9.630105e-001
      endloop
   endfacet
   facet normal 0.000000e+000 5.211509e-001 -8.534645e-001
      outer loop
         vertex 1.909188e+000 4.741241e+000 9.630105e-001
         vertex 2.029188e+000 4.741241e+000 9.630105e-001
         vertex 2.029188e+000 4.718090e+000 9.472263e-001
      endloop
   endfacet
   facet normal 0.000000e+000 6.040699e-001 -7.969313e-001
      outer loop
         vertex 1.909188e+000 4.741241e+000 9.630105e-001
         vertex 2.029188e+000 4.718090e+000 9.472263e-001
         vertex 1.909188e+000 4.718090e+000 9.472263e-001
      endloop
   endfacet
   facet normal 0.000000e+000 7.495607e-001 -6.619356e-001
      outer loop
         vertex 1.909188e+000 4.718090e+000 9.472263e-001
         vertex 2.029188e+000 4.718090e+000 9.472263e-001
         vertex 2.029188e+000 4.700620e+000 9.253194e-001
      endloop
   endfacet
   facet normal 0.000000e+000 8.121324e-001 -5.834731e-001
      outer loop
         vertex 1.909188e+000 4.718090e+000 9.472263e-001
         vertex 2.029188e+000 4.700620e+000 9.253194e-001
         vertex 1.909188e+000 4.700620e+000 9.253194e-001
      endloop
   endfacet
   facet normal 0.000000e+000 9.113688e-001 -4.115907e-001
      outer loop
         vertex 1.909188e+000 4.700620e+000 9.253194e-001
         vertex 2.029188e+000 4.700620e+000 9.253194e-001
         vertex 2.029188e+000 4.690383e+000 8.992364e-001
      endloop
   endfacet
   facet normal 0.000000e+000 9.480334e-001 -3.181708e-001
      outer loop
         vertex 1.909188e+000 4.700620e+000 9.253194e-001
         vertex 2.029188e+000 4.690383e+000 8.992364e-001
         vertex 1.909188e+000 4.690383e+000 8.992364e-001
      endloop
   endfacet
   facet normal 0.000000e+000 9.921978e-001 -1.246743e-001
      outer loop
         vertex 1.909188e+000 4.690383e+000 8.992364e-001
         vertex 2.029188e+000 4.690383e+000 8.992364e-001
         vertex 2.029188e+000 4.688289e+000 8.712948e-001
      endloop
   endfacet
   facet normal 0.000000e+000 9.996974e-001 -2.459764e-002
      outer loop
         vertex 1.909188e+000 4.690383e+000 8.992364e-001
         vertex 2.029188e+000 4.688289e+000 8.712948e-001
         vertex 1.909188e+000 4.688289e+000 8.712948e-001
      endloop
   endfacet
   facet normal 0.000000e+000 9.848655e-001 1.733201e-001
      outer loop
         vertex 1.909188e+000 4.688289e+000 8.712948e-001
         vertex 2.029188e+000 4.688289e+000 8.712948e-001
         vertex 2.029188e+000 4.694524e+000 8.439775e-001
      endloop
   endfacet
   facet normal 0.000000e+000 9.625340e-001 2.711612e-001
      outer loop
         vertex 1.909188e+000 4.688289e+000 8.712948e-001
         vertex 2.029188e+000 4.694524e+000 8.439775e-001
         vertex 1.909188e+000 4.694524e+000 8.439775e-001
      endloop
   endfacet
   facet normal 0.000000e+000 8.900238e-001 4.559142e-001
      outer loop
         vertex 1.909188e+000 4.694524e+000 8.439775e-001
         vertex 2.029188e+000 4.694524e+000 8.439775e-001
         vertex 2.029188e+000 4.708534e+000 8.197114e-001
      endloop
   endfacet
   facet normal 0.000000e+000 8.398451e-001 5.428261e-001
      outer loop
         vertex 1.909188e+000 4.694524e+000 8.439775e-001
         vertex 2.029188e+000 4.708534e+000 8.197114e-001
         vertex 1.909188e+000 4.708534e+000 8.197114e-001
      endloop
   endfacet
   facet normal 0.000000e+000 7.160994e-001 6.979982e-001
      outer loop
         vertex 1.909188e+000 4.708534e+000 8.197114e-001
         vertex 2.029188e+000 4.708534e+000 8.197114e-001
         vertex 2.029188e+000 4.729074e+000 8.006530e-001
      endloop
   endfacet
   facet normal 0.000000e+000 6.425324e-001 7.662585e-001
      outer loop
         vertex 1.909188e+000 4.708534e+000 8.197114e-001
         vertex 2.029188e+000 4.729074e+000 8.006530e-001
         vertex 1.909188e+000 4.729074e+000 8.006530e-001
      endloop
   endfacet
   facet normal 0.000000e+000 4.785465e-001 8.780622e-001
      outer loop
         vertex 1.909188e+000 4.729074e+000 8.006530e-001
         vertex 2.029188e+000 4.729074e+000 8.006530e-001
         vertex 2.029188e+000 4.754319e+000 7.884956e-001
      endloop
   endfacet
   facet normal 0.000000e+000 3.881278e-001 9.216056e-001
      outer loop
         vertex 1.909188e+000 4.729074e+000 8.006530e-001
         vertex 2.029188e+000 4.754319e+000 7.884956e-001
         vertex 1.909188e+000 4.754319e+000 7.884956e-001
      endloop
   endfacet
   facet normal 0.000000e+000 1.984727e-001 9.801064e-001
      outer loop
         vertex 1.909188e+000 4.754319e+000 7.884956e-001
         vertex 2.029188e+000 4.754319e+000 7.884956e-001
         vertex 2.029188e+000 4.782026e+000 7.843195e-001
      endloop
   endfacet
   facet normal 1.000000e+000 0.000000e+000 0.000000e+000
      outer loop
         vertex 2.029188e+000 4.729074e+000 8.006530e-001
         vertex 2.029188e+000 4.707398e+000 7.233528e-001
         vertex 2.029188e+000 4.754319e+000 7.884956e-001
      endloop
   endfacet
   facet normal 1.000000e+000 0.000000e+000 0.000000e+000
      outer loop
         vertex 2.029188e+000 4.754319e+000 7.884956e-001
         vertex 2.029188e+000 4.707398e+000 7.233528e-001
         vertex 2.029188e+000 4.743752e+000 7.106318e-001
      endloop
   endfacet
   facet normal 1.000000e+000 0.000000e+000 0.000000e+000
      outer loop
         vertex 2.029188e+000 4.754319e+000 7.884956e-001
         vertex 2.029188e+000 4.743752e+000 7.106318e-001
         vertex 2.029188e+000 4.782026e+000 7.843195e-001
      endloop
   endfacet
   facet normal 1.000000e+000 0.000000e+000 0.000000e+000
      outer loop
         vertex 2.029188e+000 4.782026e+000 7.843195e-001
         vertex 2.029188e+000 4.743752e+000 7.106318e-001
         vertex 2.029188e+000 4.782026e+000 7.063195e-001
      endloop
   endfacet
   facet normal 1.000000e+000 0.000000e+000 0.000000e+000
      outer loop
         vertex 2.029188e+000 4.782026e+000 7.843195e-001
         vertex 2.029188e+000 4.782026e+000 7.063195e-001
         vertex 2.029188e+000 4.809733e+000 7.884956e-001
      endloop
   endfacet
   facet normal 1.000000e+000 0.000000e+000 0.000000e+000
      outer loop
         vertex 2.029188e+000 4.688289e+000 8.712948e-001
         vertex 2.029188e+000 4.614338e+000 8.400459e-001
         vertex 2.029188e+000 4.694524e+000 8.439775e-001
      endloop
   endfacet
   facet normal 1.000000e+000 0.000000e+000 0.000000e+000
      outer loop
         vertex 2.029188e+000 4.694524e+000 8.439775e-001
         vertex 2.029188e+000 4.614338e+000 8.400459e-001
         vertex 2.029188e+000 4.627059e+000 8.036915e-001
      endloop
   endfacet
   facet normal 1.000000e+000 0.000000e+000 0.000000e+000
      outer loop
         vertex 2.029188e+000 4.694524e+000 8.439775e-001
         vertex 2.029188e+000 4.627059e+000 8.036915e-001
         vertex 2.029188e+000 4.708534e+000 8.197114e-001
      endloop
   endfacet
   facet normal 1.000000e+000 0.000000e+000 0.000000e+000
      outer loop
         vertex 2.029188e+000 4.708534e+000 8.197114e-001
         vertex 2.029188e+000 4.627059e+000 8.036915e-001
         vertex 2.029188e+000 4.647551e+000 7.710792e-001
      endloop
   endfacet
   facet normal 1.000000e+000 0.000000e+000 0.000000e+000
      outer loop
         vertex 2.029188e+000 4.708534e+000 8.197114e-001
         vertex 2.029188e+000 4.647551e+000 7.710792e-001
         vertex 2.029188e+000 4.729074e+000 8.006530e-001
      endloop
   endfacet
   facet normal 1.000000e+000 0.000000e+000 0.000000e+000
      outer loop
         vertex 2.029188e+000 4.729074e+000 8.006530e-001
         vertex 2.029188e+000 4.647551e+000 7.710792e-001
         vertex 2.029188e+000 4.674786e+000 7.438445e-001
      endloop
   endfacet
   facet normal 1.000000e+000 0.000000e+000 0.000000e+000
      outer loop
         vertex 2.029188e+000 4.729074e+000 8.006530e-001
         vertex 2.029188e+000 4.674786e+000 7.438445e-001
         vertex 2.029188e+000 4.707398e+000 7.233528e-001
      endloop
   endfacet
   facet normal 1.000000e+000 0.000000e+000 0.000000e+000
      outer loop
         vertex 2.029188e+000 4.718090e+000 9.472263e-001
         vertex 2.029188e+000 4.647551e+000 9.855597e-001
         vertex 2.029188e+000 4.700620e+000 9.253194e-001
      endloop
   endfacet
   facet normal 1.000000e+000 0.000000e+000 0.000000e+000
      outer loop
         vertex 2.029188e+000 4.700620e+000 9.253194e-001
         vertex 2.029188e+000 4.647551e+000 9.855597e-001
         vertex 2.029188e+000 4.627059e+000 9.529474e-001
      endloop
   endfacet
   facet normal 1.000000e+000 0.000000e+000 0.000000e+000
      outer loop
         vertex 2.029188e+000 4.700620e+000 9.253194e-001
         vertex 2.029188e+000 4.627059e+000 9.529474e-001
         vertex 2.029188e+000 4.690383e+000 8.992364e-001
      endloop
   endfacet
   facet normal 1.000000e+000 0.000000e+000 0.000000e+000
      outer loop
         vertex 2.029188e+000 4.690383e+000 8.992364e-001
         vertex 2.029188e+000 4.627059e+000 9.529474e-001
         vertex 2.029188e+000 4.614338e+000 9.165931e-001
      endloop
   endfacet
   facet normal 1.000000e+000 0.000000e+000 0.000000e+000
      outer loop
         vertex 2.029188e+000 4.690383e+000 8.992364e-001
         vertex 2.029188e+000 4.614338e+000 9.165931e-001
         vertex 2.029188e+000 4.688289e+000 8.712948e-001
      endloop
   endfacet
   facet normal 1.000000e+000 0.000000e+000 0.000000e+000
      outer loop
         vertex 2.029188e+000 4.688289e+000 8.712948e-001
         vertex 2.029188e+000 4.614338e+000 9.165931e-001
         vertex 2.029188e+000 4.610026e+000 8.783195e-001
      endloop
   endfacet
   facet normal 1.000000e+000 0.000000e+000 0.000000e+000
      outer loop
         vertex 2.029188e+000 4.688289e+000 8.712948e-001
         vertex 2.029188e+000 4.610026e+000 8.783195e-001
         vertex 2.029188e+000 4.614338e+000 8.400459e-001
      endloop
   endfacet
   facet normal 1.000000e+000 0.000000e+000 0.000000e+000
      outer loop
         vertex 2.029188e+000 4.782026e+000 7.063195e-001
         vertex 2.029188e+000 4.820300e+000 7.106318e-001
         vertex 2.029188e+000 4.809733e+000 7.884956e-001
      endloop
   endfacet
   facet normal 1.000000e+000 0.000000e+000 0.000000e+000
      outer loop
         vertex 2.029188e+000 4.809733e+000 7.884956e-001
         vertex 2.029188e+000 4.820300e+000 7.106318e-001
         vertex 2.029188e+000 4.856654e+000 7.233528e-001
      endloop
   endfacet
   facet normal 1.000000e+000 0.000000e+000 0.000000e+000
      outer loop
         vertex 2.029188e+000 4.809733e+000 7.884956e-001
         vertex 2.029188e+000 4.856654e+000 7.233528e-001
         vertex 2.029188e+000 4.834978e+000 8.006530e-001
      endloop
   endfacet
   facet normal 1.000000e+000 0.000000e+000 0.000000e+000
      outer loop
         vertex 2.029188e+000 4.834978e+000 8.006530e-001
         vertex 2.029188e+000 4.856654e+000 7.233528e-001
         vertex 2.029188e+000 4.889266e+000 7.438445e-001
      endloop
   endfacet
   facet normal 1.000000e+000 0.000000e+000 0.000000e+000
      outer loop
         vertex 2.029188e+000 4.834978e+000 8.006530e-001
         vertex 2.029188e+000 4.889266e+000 7.438445e-001
         vertex 2.029188e+000 4.855518e+000 8.197114e-001
      endloop
   endfacet
   facet normal 1.000000e+000 0.000000e+000 0.000000e+000
      outer loop
         vertex 2.029188e+000 4.855518e+000 8.197114e-001
         vertex 2.029188e+000 4.889266e+000 7.438445e-001
         vertex 2.029188e+000 4.916501e+000 7.710792e-001
      endloop
   endfacet
   facet normal 1.000000e+000 0.000000e+000 0.000000e+000
      outer loop
         vertex 2.029188e+000 4.855518e+000 8.197114e-001
         vertex 2.029188e+000 4.916501e+000 7.710792e-001
         vertex 2.029188e+000 4.869528e+000 8.439775e-001
      endloop
   endfacet
   facet normal 1.000000e+000 0.000000e+000 0.000000e+000
      outer loop
         vertex 2.029188e+000 4.796036e+000 9.712695e-001
         vertex 2.029188e+000 4.782026e+000 1.050320e+000
         vertex 2.029188e+000 4.768016e+000 9.712695e-001
      endloop
   endfacet
   facet normal 1.000000e+000 0.000000e+000 0.000000e+000
      outer loop
         vertex 2.029188e+000 4.768016e+000 9.712695e-001
         vertex 2.029188e+000 4.782026e+000 1.050320e+000
         vertex 2.029188e+000 4.743752e+000 1.046007e+000
      endloop
   endfacet
   facet normal 1.000000e+000 0.000000e+000 0.000000e+000
      outer loop
         vertex 2.029188e+000 4.768016e+000 9.712695e-001
         vertex 2.029188e+000 4.743752e+000 1.046007e+000
         vertex 2.029188e+000 4.741241e+000 9.630105e-001
      endloop
   endfacet
   facet normal 1.000000e+000 0.000000e+000 0.000000e+000
      outer loop
         vertex 2.029188e+000 4.741241e+000 9.630105e-001
         vertex 2.029188e+000 4.743752e+000 1.046007e+000
         vertex 2.029188e+000 4.707398e+000 1.033286e+000
      endloop
   endfacet
   facet normal 1.000000e+000 0.000000e+000 0.000000e+000
      outer loop
         vertex 2.029188e+000 4.741241e+000 9.630105e-001
         vertex 2.029188e+000 4.707398e+000 1.033286e+000
         vertex 2.029188e+000 4.718090e+000 9.472263e-001
      endloop
   endfacet
   facet normal 1.000000e+000 0.000000e+000 0.000000e+000
      outer loop
         vertex 2.029188e+000 4.718090e+000 9.472263e-001
         vertex 2.029188e+000 4.707398e+000 1.033286e+000
         vertex 2.029188e+000 4.674786e+000 1.012794e+000
      endloop
   endfacet
   facet normal 1.000000e+000 0.000000e+000 0.000000e+000
      outer loop
         vertex 2.029188e+000 4.718090e+000 9.472263e-001
         vertex 2.029188e+000 4.674786e+000 1.012794e+000
         vertex 2.029188e+000 4.647551e+000 9.855597e-001
      endloop
   endfacet
   facet normal 1.000000e+000 0.000000e+000 0.000000e+000
      outer loop
         vertex 2.029188e+000 4.863432e+000 9.253194e-001
         vertex 2.029188e+000 4.916501e+000 9.855597e-001
         vertex 2.029188e+000 4.845963e+000 9.472263e-001
      endloop
   endfacet
   facet normal 1.000000e+000 0.000000e+000 0.000000e+000
      outer loop
         vertex 2.029188e+000 4.845963e+000 9.472263e-001
         vertex 2.029188e+000 4.916501e+000 9.855597e-001
         vertex 2.029188e+000 4.889266e+000 1.012794e+000
      endloop
   endfacet
   facet normal 1.000000e+000 0.000000e+000 0.000000e+000
      outer loop
         vertex 2.029188e+000 4.845963e+000 9.472263e-001
         vertex 2.029188e+000 4.889266e+000 1.012794e+000
         vertex 2.029188e+000 4.822811e+000 9.630105e-001
      endloop
   endfacet
   facet normal 1.000000e+000 0.000000e+000 0.000000e+000
      outer loop
         vertex 2.029188e+000 4.822811e+000 9.630105e-001
         vertex 2.029188e+000 4.889266e+000 1.012794e+000
         vertex 2.029188e+000 4.856654e+000 1.033286e+000
      endloop
   endfacet
   facet normal 1.000000e+000 0.000000e+000 0.000000e+000
      outer loop
         vertex 2.029188e+000 4.822811e+000 9.630105e-001
         vertex 2.029188e+000 4.856654e+000 1.033286e+000
         vertex 2.029188e+000 4.796036e+000 9.712695e-001
      endloop
   endfacet
   facet normal 1.000000e+000 0.000000e+000 0.000000e+000
      outer loop
         vertex 2.029188e+000 4.796036e+000 9.712695e-001
         vertex 2.029188e+000 4.856654e+000 1.033286e+000
         vertex 2.029188e+000 4.820300e+000 1.046007e+000
      endloop
   endfacet
   facet normal 1.000000e+000 0.000000e+000 0.000000e+000
      outer loop
         vertex 2.029188e+000 4.796036e+000 9.712695e-001
         vertex 2.029188e+000 4.820300e+000 1.046007e+000
         vertex 2.029188e+000 4.782026e+000 1.050320e+000
      endloop
   endfacet
   facet normal 1.000000e+000 0.000000e+000 0.000000e+000
      outer loop
         vertex 2.029188e+000 4.916501e+000 7.710792e-001
         vertex 2.029188e+000 4.936993e+000 8.036915e-001
         vertex 2.029188e+000 4.869528e+000 8.439775e-001
      endloop
   endfacet
   facet normal 1.000000e+000 0.000000e+000 0.000000e+000
      outer loop
         vertex 2.029188e+000 4.869528e+000 8.439775e-001
         vertex 2.029188e+000 4.936993e+000 8.036915e-001
         vertex 2.029188e+000 4.949714e+000 8.400459e-001
      endloop
   endfacet
   facet normal 1.000000e+000 0.000000e+000 0.000000e+000
      outer loop
         vertex 2.029188e+000 4.869528e+000 8.439775e-001
         vertex 2.029188e+000 4.949714e+000 8.400459e-001
         vertex 2.029188e+000 4.875763e+000 8.712948e-001
      endloop
   endfacet
   facet normal 1.000000e+000 0.000000e+000 0.000000e+000
      outer loop
         vertex 2.029188e+000 4.875763e+000 8.712948e-001
         vertex 2.029188e+000 4.949714e+000 8.400459e-001
         vertex 2.029188e+000 4.954026e+000 8.783195e-001
      endloop
   endfacet
   facet normal 1.000000e+000 0.000000e+000 0.000000e+000
      outer loop
         vertex 2.029188e+000 4.875763e+000 8.712948e-001
         vertex 2.029188e+000 4.954026e+000 8.783195e-001
         vertex 2.029188e+000 4.873669e+000 8.992364e-001
      endloop
   endfacet
   facet normal 1.000000e+000 0.000000e+000 0.000000e+000
      outer loop
         vertex 2.029188e+000 4.873669e+000 8.992364e-001
         vertex 2.029188e+000 4.954026e+000 8.783195e-001
         vertex 2.029188e+000 4.949714e+000 9.165931e-001
      endloop
   endfacet
   facet normal 1.000000e+000 0.000000e+000 0.000000e+000
      outer loop
         vertex 2.029188e+000 4.873669e+000 8.992364e-001
         vertex 2.029188e+000 4.949714e+000 9.165931e-001
         vertex 2.029188e+000 4.863432e+000 9.253194e-001
      endloop
   endfacet
   facet normal 1.000000e+000 0.000000e+000 0.000000e+000
      outer loop
         vertex 2.029188e+000 4.863432e+000 9.253194e-001
         vertex 2.029188e+000 4.949714e+000 9.165931e-001
         vertex 2.029188e+000 4.936993e+000 9.529474e-001
      endloop
   endfacet
   facet normal 1.000000e+000 0.000000e+000 0.000000e+000
      outer loop
         vertex 2.029188e+000 4.863432e+000 9.253194e-001
         vertex 2.029188e+000 4.936993e+000 9.529474e-001
         vertex 2.029188e+000 4.916501e+000 9.855597e-001
      endloop
   endfacet
   facet normal 0.000000e+000 -8.386237e-001 5.447112e-001
      outer loop
         vertex 1.209188e+000 4.895249e+000 7.926195e-001
         vertex 1.909188e+000 4.895249e+000 7.926195e-001
         vertex 1.909188e+000 4.910984e+000 8.188735e-001
      endloop
   endfacet
   facet normal 0.000000e+000 -8.757520e-001 4.827613e-001
      outer loop
         vertex 1.209188e+000 4.895249e+000 7.926195e-001
         vertex 1.909188e+000 4.910984e+000 8.188735e-001
         vertex 1.209188e+000 4.910984e+000 8.188735e-001
      endloop
   endfacet
   facet normal 0.000000e+000 -9.358705e-001 3.523442e-001
      outer loop
         vertex 1.209188e+000 4.910984e+000 8.188735e-001
         vertex 1.909188e+000 4.910984e+000 8.188735e-001
         vertex 1.909188e+000 4.920727e+000 8.478895e-001
      endloop
   endfacet
   facet normal 0.000000e+000 -9.588607e-001 2.838770e-001
      outer loop
         vertex 1.209188e+000 4.910984e+000 8.188735e-001
         vertex 1.909188e+000 4.920727e+000 8.478895e-001
         vertex 1.209188e+000 4.920727e+000 8.478895e-001
      endloop
   endfacet
   facet normal 0.000000e+000 -9.896349e-001 1.436066e-001
      outer loop
         vertex 1.209188e+000 4.920727e+000 8.478895e-001
         vertex 1.909188e+000 4.920727e+000 8.478895e-001
         vertex 1.909188e+000 4.924026e+000 8.783195e-001
      endloop
   endfacet
   facet normal 0.000000e+000 -9.974188e-001 7.180329e-002
      outer loop
         vertex 1.209188e+000 4.920727e+000 8.478895e-001
         vertex 1.909188e+000 4.924026e+000 8.783195e-001
         vertex 1.209188e+000 4.924026e+000 8.783195e-001
      endloop
   endfacet
   facet normal 0.000000e+000 -9.974188e-001 -7.180329e-002
      outer loop
         vertex 1.209188e+000 4.924026e+000 8.783195e-001
         vertex 1.909188e+000 4.924026e+000 8.783195e-001
         vertex 1.909188e+000 4.920727e+000 9.087494e-001
      endloop
   endfacet
   facet normal 0.000000e+000 -9.896349e-001 -1.436066e-001
      outer loop
         vertex 1.209188e+000 4.924026e+000 8.783195e-001
         vertex 1.909188e+000 4.920727e+000 9.087494e-001
         vertex 1.209188e+000 4.920727e+000 9.087494e-001
      endloop
   endfacet
   facet normal 0.000000e+000 -9.588607e-001 -2.838770e-001
      outer loop
         vertex 1.209188e+000 4.920727e+000 9.087494e-001
         vertex 1.909188e+000 4.920727e+000 9.087494e-001
         vertex 1.909188e+000 4.910984e+000 9.377654e-001
      endloop
   endfacet
   facet normal 0.000000e+000 -9.358705e-001 -3.523442e-001
      outer loop
         vertex 1.209188e+000 4.920727e+000 9.087494e-001
         vertex 1.909188e+000 4.910984e+000 9.377654e-001
         vertex 1.209188e+000 4.910984e+000 9.377654e-001
      endloop
   endfacet
   facet normal 0.000000e+000 -8.757520e-001 -4.827613e-001
      outer loop
         vertex 1.209188e+000 4.910984e+000 9.377654e-001
         vertex 1.909188e+000 4.910984e+000 9.377654e-001
         vertex 1.909188e+000 4.895249e+000 9.640195e-001
      endloop
   endfacet
   facet normal 0.000000e+000 -8.386237e-001 -5.447112e-001
      outer loop
         vertex 1.209188e+000 4.910984e+000 9.377654e-001
         vertex 1.909188e+000 4.895249e+000 9.640195e-001
         vertex 1.209188e+000 4.895249e+000 9.640195e-001
      endloop
   endfacet
   facet normal 0.000000e+000 3.722097e-015 -1.000000e+000
      outer loop
         vertex 1.209188e+000 4.867726e+000 9.640195e-001
         vertex 1.209188e+000 4.895249e+000 9.640195e-001
         vertex 1.909188e+000 4.867726e+000 9.640195e-001
      endloop
   endfacet
   facet normal 0.000000e+000 3.722097e-015 -1.000000e+000
      outer loop
         vertex 1.909188e+000 4.867726e+000 9.640195e-001
         vertex 1.209188e+000 4.895249e+000 9.640195e-001
         vertex 1.909188e+000 4.895249e+000 9.640195e-001
      endloop
   endfacet
   facet normal 0.000000e+000 -1.000000e+000 -4.342447e-015
      outer loop
         vertex 1.209188e+000 4.867726e+000 9.915428e-001
         vertex 1.209188e+000 4.867726e+000 9.640195e-001
         vertex 1.909188e+000 4.867726e+000 9.915428e-001
      endloop
   endfacet
   facet normal 0.000000e+000 -1.000000e+000 -4.342447e-015
      outer loop
         vertex 1.909188e+000 4.867726e+000 9.915428e-001
         vertex 1.209188e+000 4.867726e+000 9.640195e-001
         vertex 1.909188e+000 4.867726e+000 9.640195e-001
      endloop
   endfacet
   facet normal 0.000000e+000 -5.447112e-001 -8.386237e-001
      outer loop
         vertex 1.209188e+000 4.867726e+000 9.915428e-001
         vertex 1.909188e+000 4.867726e+000 9.915428e-001
         vertex 1.909188e+000 4.841472e+000 1.007277e+000
      endloop
   endfacet
   facet normal 0.000000e+000 -4.827613e-001 -8.757520e-001
      outer loop
         vertex 1.209188e+000 4.867726e+000 9.915428e-001
         vertex 1.909188e+000 4.841472e+000 1.007277e+000
         vertex 1.209188e+000 4.841472e+000 1.007277e+000
      endloop
   endfacet
   facet normal 0.000000e+000 -3.523442e-001 -9.358705e-001
      outer loop
         vertex 1.209188e+000 4.841472e+000 1.007277e+000
         vertex 1.909188e+000 4.841472e+000 1.007277e+000
         vertex 1.909188e+000 4.812456e+000 1.017021e+000
      endloop
   endfacet
   facet normal 0.000000e+000 -2.838770e-001 -9.588607e-001
      outer loop
         vertex 1.209188e+000 4.841472e+000 1.007277e+000
         vertex 1.909188e+000 4.812456e+000 1.017021e+000
         vertex 1.209188e+000 4.812456e+000 1.017021e+000
      endloop
   endfacet
   facet normal 0.000000e+000 -1.436066e-001 -9.896349e-001
      outer loop
         vertex 1.209188e+000 4.812456e+000 1.017021e+000
         vertex 1.909188e+000 4.812456e+000 1.017021e+000
         vertex 1.909188e+000 4.782026e+000 1.020319e+000
      endloop
   endfacet
   facet normal 0.000000e+000 -7.180329e-002 -9.974188e-001
      outer loop
         vertex 1.209188e+000 4.812456e+000 1.017021e+000
         vertex 1.909188e+000 4.782026e+000 1.020319e+000
         vertex 1.209188e+000 4.782026e+000 1.020319e+000
      endloop
   endfacet
   facet normal 0.000000e+000 7.180329e-002 -9.974188e-001
      outer loop
         vertex 1.209188e+000 4.782026e+000 1.020319e+000
         vertex 1.909188e+000 4.782026e+000 1.020319e+000
         vertex 1.909188e+000 4.751596e+000 1.017021e+000
      endloop
   endfacet
   facet normal 0.000000e+000 1.436066e-001 -9.896349e-001
      outer loop
         vertex 1.209188e+000 4.782026e+000 1.020319e+000
         vertex 1.909188e+000 4.751596e+000 1.017021e+000
         vertex 1.209188e+000 4.751596e+000 1.017021e+000
      endloop
   endfacet
   facet normal 0.000000e+000 2.838770e-001 -9.588607e-001
      outer loop
         vertex 1.209188e+000 4.751596e+000 1.017021e+000
         vertex 1.909188e+000 4.751596e+000 1.017021e+000
         vertex 1.909188e+000 4.722580e+000 1.007277e+000
      endloop
   endfacet
   facet normal 0.000000e+000 3.523442e-001 -9.358705e-001
      outer loop
         vertex 1.209188e+000 4.751596e+000 1.017021e+000
         vertex 1.909188e+000 4.722580e+000 1.007277e+000
         vertex 1.209188e+000 4.722580e+000 1.007277e+000
      endloop
   endfacet
   facet normal 0.000000e+000 4.827613e-001 -8.757520e-001
      outer loop
         vertex 1.209188e+000 4.722580e+000 1.007277e+000
         vertex 1.909188e+000 4.722580e+000 1.007277e+000
         vertex 1.909188e+000 4.696326e+000 9.915428e-001
      endloop
   endfacet
   facet normal 0.000000e+000 5.447112e-001 -8.386237e-001
      outer loop
         vertex 1.209188e+000 4.722580e+000 1.007277e+000
         vertex 1.909188e+000 4.696326e+000 9.915428e-001
         vertex 1.209188e+000 4.696326e+000 9.915428e-001
      endloop
   endfacet
   facet normal 0.000000e+000 1.000000e+000 3.722097e-015
      outer loop
         vertex 1.909188e+000 4.696326e+000 9.640195e-001
         vertex 1.209188e+000 4.696326e+000 9.640195e-001
         vertex 1.909188e+000 4.696326e+000 9.915428e-001
      endloop
   endfacet
   facet normal 0.000000e+000 1.000000e+000 3.722097e-015
      outer loop
         vertex 1.909188e+000 4.696326e+000 9.915428e-001
         vertex 1.209188e+000 4.696326e+000 9.640195e-001
         vertex 1.209188e+000 4.696326e+000 9.915428e-001
      endloop
   endfacet
   facet normal 0.000000e+000 3.499378e-015 -1.000000e+000
      outer loop
         vertex 1.909188e+000 4.632897e+000 9.640195e-001
         vertex 1.209188e+000 4.632897e+000 9.640195e-001
         vertex 1.909188e+000 4.696326e+000 9.640195e-001
      endloop
   endfacet
   facet normal 0.000000e+000 3.499378e-015 -1.000000e+000
      outer loop
         vertex 1.909188e+000 4.696326e+000 9.640195e-001
         vertex 1.209188e+000 4.632897e+000 9.640195e-001
         vertex 1.209188e+000 4.696326e+000 9.640195e-001
      endloop
   endfacet
   facet normal 0.000000e+000 -3.499378e-015 1.000000e+000
      outer loop
         vertex 1.209188e+000 4.696326e+000 7.926195e-001
         vertex 1.209188e+000 4.632897e+000 7.926195e-001
         vertex 1.909188e+000 4.696326e+000 7.926195e-001
      endloop
   endfacet
   facet normal 0.000000e+000 -3.499378e-015 1.000000e+000
      outer loop
         vertex 1.909188e+000 4.696326e+000 7.926195e-001
         vertex 1.209188e+000 4.632897e+000 7.926195e-001
         vertex 1.909188e+000 4.632897e+000 7.926195e-001
      endloop
   endfacet
   facet normal 0.000000e+000 1.000000e+000 4.342447e-015
      outer loop
         vertex 1.209188e+000 4.696326e+000 7.650962e-001
         vertex 1.209188e+000 4.696326e+000 7.926195e-001
         vertex 1.909188e+000 4.696326e+000 7.650962e-001
      endloop
   endfacet
   facet normal 0.000000e+000 1.000000e+000 4.342447e-015
      outer loop
         vertex 1.909188e+000 4.696326e+000 7.650962e-001
         vertex 1.209188e+000 4.696326e+000 7.926195e-001
         vertex 1.909188e+000 4.696326e+000 7.926195e-001
      endloop
   endfacet
   facet normal 0.000000e+000 5.447112e-001 8.386237e-001
      outer loop
         vertex 1.209188e+000 4.696326e+000 7.650962e-001
         vertex 1.909188e+000 4.696326e+000 7.650962e-001
         vertex 1.909188e+000 4.722580e+000 7.493615e-001
      endloop
   endfacet
   facet normal 0.000000e+000 4.827613e-001 8.757520e-001
      outer loop
         vertex 1.209188e+000 4.696326e+000 7.650962e-001
         vertex 1.909188e+000 4.722580e+000 7.493615e-001
         vertex 1.209188e+000 4.722580e+000 7.493615e-001
      endloop
   endfacet
   facet normal 0.000000e+000 3.523442e-001 9.358705e-001
      outer loop
         vertex 1.209188e+000 4.722580e+000 7.493615e-001
         vertex 1.909188e+000 4.722580e+000 7.493615e-001
         vertex 1.909188e+000 4.751596e+000 7.396182e-001
      endloop
   endfacet
   facet normal 0.000000e+000 2.838770e-001 9.588607e-001
      outer loop
         vertex 1.209188e+000 4.722580e+000 7.493615e-001
         vertex 1.909188e+000 4.751596e+000 7.396182e-001
         vertex 1.209188e+000 4.751596e+000 7.396182e-001
      endloop
   endfacet
   facet normal 0.000000e+000 1.436066e-001 9.896349e-001
      outer loop
         vertex 1.209188e+000 4.751596e+000 7.396182e-001
         vertex 1.909188e+000 4.751596e+000 7.396182e-001
         vertex 1.909188e+000 4.782026e+000 7.363195e-001
      endloop
   endfacet
   facet normal 0.000000e+000 7.180329e-002 9.974188e-001
      outer loop
         vertex 1.209188e+000 4.751596e+000 7.396182e-001
         vertex 1.909188e+000 4.782026e+000 7.363195e-001
         vertex 1.209188e+000 4.782026e+000 7.363195e-001
      endloop
   endfacet
   facet normal 0.000000e+000 -7.180329e-002 9.974188e-001
      outer loop
         vertex 1.209188e+000 4.782026e+000 7.363195e-001
         vertex 1.909188e+000 4.782026e+000 7.363195e-001
         vertex 1.909188e+000 4.812456e+000 7.396182e-001
      endloop
   endfacet
   facet normal 0.000000e+000 -1.436066e-001 9.896349e-001
      outer loop
         vertex 1.209188e+000 4.782026e+000 7.363195e-001
         vertex 1.909188e+000 4.812456e+000 7.396182e-001
         vertex 1.209188e+000 4.812456e+000 7.396182e-001
      endloop
   endfacet
   facet normal 0.000000e+000 -2.838770e-001 9.588607e-001
      outer loop
         vertex 1.209188e+000 4.812456e+000 7.396182e-001
         vertex 1.909188e+000 4.812456e+000 7.396182e-001
         vertex 1.909188e+000 4.841472e+000 7.493615e-001
      endloop
   endfacet
   facet normal 0.000000e+000 -3.523442e-001 9.358705e-001
      outer loop
         vertex 1.209188e+000 4.812456e+000 7.396182e-001
         vertex 1.909188e+000 4.841472e+000 7.493615e-001
         vertex 1.209188e+000 4.841472e+000 7.493615e-001
      endloop
   endfacet
   facet normal 0.000000e+000 -4.827613e-001 8.757520e-001
      outer loop
         vertex 1.209188e+000 4.841472e+000 7.493615e-001
         vertex 1.909188e+000 4.841472e+000 7.493615e-001
         vertex 1.909188e+000 4.867726e+000 7.650962e-001
      endloop
   endfacet
   facet normal 0.000000e+000 -5.447112e-001 8.386237e-001
      outer loop
         vertex 1.209188e+000 4.841472e+000 7.493615e-001
         vertex 1.909188e+000 4.867726e+000 7.650962e-001
         vertex 1.209188e+000 4.867726e+000 7.650962e-001
      endloop
   endfacet
   facet normal 0.000000e+000 -1.000000e+000 -3.722097e-015
      outer loop
         vertex 1.909188e+000 4.867726e+000 7.926195e-001
         vertex 1.209188e+000 4.867726e+000 7.926195e-001
         vertex 1.909188e+000 4.867726e+000 7.650962e-001
      endloop
   endfacet
   facet normal 0.000000e+000 -1.000000e+000 -3.722097e-015
      outer loop
         vertex 1.909188e+000 4.867726e+000 7.650962e-001
         vertex 1.209188e+000 4.867726e+000 7.926195e-001
         vertex 1.209188e+000 4.867726e+000 7.650962e-001
      endloop
   endfacet
   facet normal 0.000000e+000 -4.342447e-015 1.000000e+000
      outer loop
         vertex 1.909188e+000 4.895249e+000 7.926195e-001
         vertex 1.209188e+000 4.895249e+000 7.926195e-001
         vertex 1.909188e+000 4.867726e+000 7.926195e-001
      endloop
   endfacet
   facet normal 0.000000e+000 -4.342447e-015 1.000000e+000
      outer loop
         vertex 1.909188e+000 4.867726e+000 7.926195e-001
         vertex 1.209188e+000 4.895249e+000 7.926195e-001
         vertex 1.209188e+000 4.867726e+000 7.926195e-001
      endloop
   endfacet
   facet normal -1.000000e+000 0.000000e+000 0.000000e+000
      outer loop
         vertex 1.209188e+000 4.696326e+000 9.640195e-001
         vertex 1.209188e+000 4.632897e+000 9.640195e-001
         vertex 1.209188e+000 4.647551e+000 9.855597e-001
      endloop
   endfacet
   facet normal -1.000000e+000 0.000000e+000 0.000000e+000
      outer loop
         vertex 1.209188e+000 4.867726e+000 7.650962e-001
         vertex 1.209188e+000 4.867726e+000 7.926195e-001
         vertex 1.209188e+000 4.895249e+000 7.926195e-001
      endloop
   endfacet
   facet normal -1.000000e+000 0.000000e+000 0.000000e+000
      outer loop
         vertex 1.209188e+000 4.895249e+000 9.640195e-001
         vertex 1.209188e+000 4.867726e+000 9.640195e-001
         vertex 1.209188e+000 4.867726e+000 9.915428e-001
      endloop
   endfacet
   facet normal -1.000000e+000 0.000000e+000 0.000000e+000
      outer loop
         vertex 1.209188e+000 4.696326e+000 9.640195e-001
         vertex 1.209188e+000 4.647551e+000 9.855597e-001
         vertex 1.209188e+000 4.696326e+000 9.915428e-001
      endloop
   endfacet
   facet normal -1.000000e+000 0.000000e+000 0.000000e+000
      outer loop
         vertex 1.209188e+000 4.696326e+000 9.915428e-001
         vertex 1.209188e+000 4.647551e+000 9.855597e-001
         vertex 1.209188e+000 4.674786e+000 1.012794e+000
      endloop
   endfacet
   facet normal -1.000000e+000 0.000000e+000 0.000000e+000
      outer loop
         vertex 1.209188e+000 4.696326e+000 9.915428e-001
         vertex 1.209188e+000 4.674786e+000 1.012794e+000
         vertex 1.209188e+000 4.722580e+000 1.007277e+000
      endloop
   endfacet
   facet normal -1.000000e+000 0.000000e+000 0.000000e+000
      outer loop
         vertex 1.209188e+000 4.722580e+000 1.007277e+000
         vertex 1.209188e+000 4.674786e+000 1.012794e+000
         vertex 1.209188e+000 4.707398e+000 1.033286e+000
      endloop
   endfacet
   facet normal -1.000000e+000 0.000000e+000 0.000000e+000
      outer loop
         vertex 1.209188e+000 4.722580e+000 1.007277e+000
         vertex 1.209188e+000 4.707398e+000 1.033286e+000
         vertex 1.209188e+000 4.751596e+000 1.017021e+000
      endloop
   endfacet
   facet normal -1.000000e+000 0.000000e+000 0.000000e+000
      outer loop
         vertex 1.209188e+000 4.751596e+000 1.017021e+000
         vertex 1.209188e+000 4.707398e+000 1.033286e+000
         vertex 1.209188e+000 4.743752e+000 1.046007e+000
      endloop
   endfacet
   facet normal -1.000000e+000 0.000000e+000 0.000000e+000
      outer loop
         vertex 1.209188e+000 4.751596e+000 1.017021e+000
         vertex 1.209188e+000 4.743752e+000 1.046007e+000
         vertex 1.209188e+000 4.782026e+000 1.020319e+000
      endloop
   endfacet
   facet normal -1.000000e+000 0.000000e+000 0.000000e+000
      outer loop
         vertex 1.209188e+000 4.782026e+000 1.020319e+000
         vertex 1.209188e+000 4.743752e+000 1.046007e+000
         vertex 1.209188e+000 4.782026e+000 1.050320e+000
      endloop
   endfacet
   facet normal -1.000000e+000 0.000000e+000 0.000000e+000
      outer loop
         vertex 1.209188e+000 4.782026e+000 1.020319e+000
         vertex 1.209188e+000 4.782026e+000 1.050320e+000
         vertex 1.209188e+000 4.812456e+000 1.017021e+000
      endloop
   endfacet
   facet normal -1.000000e+000 0.000000e+000 0.000000e+000
      outer loop
         vertex 1.209188e+000 4.812456e+000 1.017021e+000
         vertex 1.209188e+000 4.782026e+000 1.050320e+000
         vertex 1.209188e+000 4.820300e+000 1.046007e+000
      endloop
   endfacet
   facet normal -1.000000e+000 0.000000e+000 0.000000e+000
      outer loop
         vertex 1.209188e+000 4.812456e+000 1.017021e+000
         vertex 1.209188e+000 4.820300e+000 1.046007e+000
         vertex 1.209188e+000 4.841472e+000 1.007277e+000
      endloop
   endfacet
   facet normal -1.000000e+000 0.000000e+000 0.000000e+000
      outer loop
         vertex 1.209188e+000 4.841472e+000 1.007277e+000
         vertex 1.209188e+000 4.820300e+000 1.046007e+000
         vertex 1.209188e+000 4.856654e+000 1.033286e+000
      endloop
   endfacet
   facet normal -1.000000e+000 0.000000e+000 0.000000e+000
      outer loop
         vertex 1.209188e+000 4.841472e+000 1.007277e+000
         vertex 1.209188e+000 4.856654e+000 1.033286e+000
         vertex 1.209188e+000 4.867726e+000 9.915428e-001
      endloop
   endfacet
   facet normal -1.000000e+000 0.000000e+000 0.000000e+000
      outer loop
         vertex 1.209188e+000 4.867726e+000 9.915428e-001
         vertex 1.209188e+000 4.856654e+000 1.033286e+000
         vertex 1.209188e+000 4.889266e+000 1.012794e+000
      endloop
   endfacet
   facet normal -1.000000e+000 0.000000e+000 0.000000e+000
      outer loop
         vertex 1.209188e+000 4.867726e+000 9.915428e-001
         vertex 1.209188e+000 4.889266e+000 1.012794e+000
         vertex 1.209188e+000 4.895249e+000 9.640195e-001
      endloop
   endfacet
   facet normal -1.000000e+000 0.000000e+000 0.000000e+000
      outer loop
         vertex 1.209188e+000 4.895249e+000 9.640195e-001
         vertex 1.209188e+000 4.889266e+000 1.012794e+000
         vertex 1.209188e+000 4.916501e+000 9.855597e-001
      endloop
   endfacet
   facet normal -1.000000e+000 0.000000e+000 0.000000e+000
      outer loop
         vertex 1.209188e+000 4.895249e+000 9.640195e-001
         vertex 1.209188e+000 4.916501e+000 9.855597e-001
         vertex 1.209188e+000 4.910984e+000 9.377654e-001
      endloop
   endfacet
   facet normal -1.000000e+000 0.000000e+000 0.000000e+000
      outer loop
         vertex 1.209188e+000 4.910984e+000 9.377654e-001
         vertex 1.209188e+000 4.916501e+000 9.855597e-001
         vertex 1.209188e+000 4.936993e+000 9.529474e-001
      endloop
   endfacet
   facet normal -1.000000e+000 0.000000e+000 0.000000e+000
      outer loop
         vertex 1.209188e+000 4.910984e+000 9.377654e-001
         vertex 1.209188e+000 4.936993e+000 9.529474e-001
         vertex 1.209188e+000 4.920727e+000 9.087494e-001
      endloop
   endfacet
   facet normal -1.000000e+000 0.000000e+000 0.000000e+000
      outer loop
         vertex 1.209188e+000 4.920727e+000 9.087494e-001
         vertex 1.209188e+000 4.936993e+000 9.529474e-001
         vertex 1.209188e+000 4.949714e+000 9.165931e-001
      endloop
   endfacet
   facet normal -1.000000e+000 0.000000e+000 0.000000e+000
      outer loop
         vertex 1.209188e+000 4.920727e+000 9.087494e-001
         vertex 1.209188e+000 4.949714e+000 9.165931e-001
         vertex 1.209188e+000 4.924026e+000 8.783195e-001
      endloop
   endfacet
   facet normal -1.000000e+000 0.000000e+000 0.000000e+000
      outer loop
         vertex 1.209188e+000 4.924026e+000 8.783195e-001
         vertex 1.209188e+000 4.949714e+000 9.165931e-001
         vertex 1.209188e+000 4.954026e+000 8.783195e-001
      endloop
   endfacet
   facet normal -1.000000e+000 0.000000e+000 0.000000e+000
      outer loop
         vertex 1.209188e+000 4.924026e+000 8.783195e-001
         vertex 1.209188e+000 4.954026e+000 8.783195e-001
         vertex 1.209188e+000 4.920727e+000 8.478895e-001
      endloop
   endfacet
   facet normal -1.000000e+000 0.000000e+000 0.000000e+000
      outer loop
         vertex 1.209188e+000 4.920727e+000 8.478895e-001
         vertex 1.209188e+000 4.954026e+000 8.783195e-001
         vertex 1.209188e+000 4.949714e+000 8.400459e-001
      endloop
   endfacet
   facet normal -1.000000e+000 0.000000e+000 0.000000e+000
      outer loop
         vertex 1.209188e+000 4.920727e+000 8.478895e-001
         vertex 1.209188e+000 4.949714e+000 8.400459e-001
         vertex 1.209188e+000 4.910984e+000 8.188735e-001
      endloop
   endfacet
   facet normal -1.000000e+000 0.000000e+000 0.000000e+000
      outer loop
         vertex 1.209188e+000 4.910984e+000 8.188735e-001
         vertex 1.209188e+000 4.949714e+000 8.400459e-001
         vertex 1.209188e+000 4.936993e+000 8.036915e-001
      endloop
   endfacet
   facet normal -1.000000e+000 0.000000e+000 0.000000e+000
      outer loop
         vertex 1.209188e+000 4.910984e+000 8.188735e-001
         vertex 1.209188e+000 4.936993e+000 8.036915e-001
         vertex 1.209188e+000 4.895249e+000 7.926195e-001
      endloop
   endfacet
   facet normal -1.000000e+000 0.000000e+000 0.000000e+000
      outer loop
         vertex 1.209188e+000 4.895249e+000 7.926195e-001
         vertex 1.209188e+000 4.936993e+000 8.036915e-001
         vertex 1.209188e+000 4.916501e+000 7.710792e-001
      endloop
   endfacet
   facet normal -1.000000e+000 0.000000e+000 0.000000e+000
      outer loop
         vertex 1.209188e+000 4.895249e+000 7.926195e-001
         vertex 1.209188e+000 4.916501e+000 7.710792e-001
         vertex 1.209188e+000 4.867726e+000 7.650962e-001
      endloop
   endfacet
   facet normal -1.000000e+000 0.000000e+000 0.000000e+000
      outer loop
         vertex 1.209188e+000 4.867726e+000 7.650962e-001
         vertex 1.209188e+000 4.916501e+000 7.710792e-001
         vertex 1.209188e+000 4.889266e+000 7.438445e-001
      endloop
   endfacet
   facet normal -1.000000e+000 0.000000e+000 0.000000e+000
      outer loop
         vertex 1.209188e+000 4.867726e+000 7.650962e-001
         vertex 1.209188e+000 4.889266e+000 7.438445e-001
         vertex 1.209188e+000 4.841472e+000 7.493615e-001
      endloop
   endfacet
   facet normal -1.000000e+000 0.000000e+000 0.000000e+000
      outer loop
         vertex 1.209188e+000 4.841472e+000 7.493615e-001
         vertex 1.209188e+000 4.889266e+000 7.438445e-001
         vertex 1.209188e+000 4.856654e+000 7.233528e-001
      endloop
   endfacet
   facet normal -1.000000e+000 0.000000e+000 0.000000e+000
      outer loop
         vertex 1.209188e+000 4.841472e+000 7.493615e-001
         vertex 1.209188e+000 4.856654e+000 7.233528e-001
         vertex 1.209188e+000 4.812456e+000 7.396182e-001
      endloop
   endfacet
   facet normal -1.000000e+000 0.000000e+000 0.000000e+000
      outer loop
         vertex 1.209188e+000 4.812456e+000 7.396182e-001
         vertex 1.209188e+000 4.856654e+000 7.233528e-001
         vertex 1.209188e+000 4.820300e+000 7.106318e-001
      endloop
   endfacet
   facet normal -1.000000e+000 0.000000e+000 0.000000e+000
      outer loop
         vertex 1.209188e+000 4.812456e+000 7.396182e-001
         vertex 1.209188e+000 4.820300e+000 7.106318e-001
         vertex 1.209188e+000 4.782026e+000 7.363195e-001
      endloop
   endfacet
   facet normal -1.000000e+000 0.000000e+000 0.000000e+000
      outer loop
         vertex 1.209188e+000 4.782026e+000 7.363195e-001
         vertex 1.209188e+000 4.820300e+000 7.106318e-001
         vertex 1.209188e+000 4.782026e+000 7.063195e-001
      endloop
   endfacet
   facet normal -1.000000e+000 0.000000e+000 0.000000e+000
      outer loop
         vertex 1.209188e+000 4.782026e+000 7.363195e-001
         vertex 1.209188e+000 4.782026e+000 7.063195e-001
         vertex 1.209188e+000 4.751596e+000 7.396182e-001
      endloop
   endfacet
   facet normal -1.000000e+000 0.000000e+000 0.000000e+000
      outer loop
         vertex 1.209188e+000 4.751596e+000 7.396182e-001
         vertex 1.209188e+000 4.782026e+000 7.063195e-001
         vertex 1.209188e+000 4.743752e+000 7.106318e-001
      endloop
   endfacet
   facet normal -1.000000e+000 0.000000e+000 0.000000e+000
      outer loop
         vertex 1.209188e+000 4.751596e+000 7.396182e-001
         vertex 1.209188e+000 4.743752e+000 7.106318e-001
         vertex 1.209188e+000 4.722580e+000 7.493615e-001
      endloop
   endfacet
   facet normal -1.000000e+000 0.000000e+000 0.000000e+000
      outer loop
         vertex 1.209188e+000 4.722580e+000 7.493615e-001
         vertex 1.209188e+000 4.743752e+000 7.106318e-001
         vertex 1.209188e+000 4.707398e+000 7.233528e-001
      endloop
   endfacet
   facet normal -1.000000e+000 0.000000e+000 0.000000e+000
      outer loop
         vertex 1.209188e+000 4.722580e+000 7.493615e-001
         vertex 1.209188e+000 4.707398e+000 7.233528e-001
         vertex 1.209188e+000 4.696326e+000 7.650962e-001
      endloop
   endfacet
   facet normal -1.000000e+000 0.000000e+000 0.000000e+000
      outer loop
         vertex 1.209188e+000 4.696326e+000 7.650962e-001
         vertex 1.209188e+000 4.707398e+000 7.233528e-001
         vertex 1.209188e+000 4.674786e+000 7.438445e-001
      endloop
   endfacet
   facet normal -1.000000e+000 0.000000e+000 0.000000e+000
      outer loop
         vertex 1.209188e+000 4.696326e+000 7.650962e-001
         vertex 1.209188e+000 4.674786e+000 7.438445e-001
         vertex 1.209188e+000 4.696326e+000 7.926195e-001
      endloop
   endfacet
   facet normal -1.000000e+000 0.000000e+000 0.000000e+000
      outer loop
         vertex 1.209188e+000 4.696326e+000 7.926195e-001
         vertex 1.209188e+000 4.674786e+000 7.438445e-001
         vertex 1.209188e+000 4.647551e+000 7.710792e-001
      endloop
   endfacet
   facet normal -1.000000e+000 0.000000e+000 0.000000e+000
      outer loop
         vertex 1.209188e+000 4.696326e+000 7.926195e-001
         vertex 1.209188e+000 4.647551e+000 7.710792e-001
         vertex 1.209188e+000 4.632897e+000 7.926195e-001
      endloop
   endfacet
endsolid