solid Glock 17 - Glock_locking block-1
   facet normal 0.000000e+000 0.000000e+000 -1.000000e+000
      outer loop
         vertex 4.236254e+000 4.280057e+000 1.075170e+000
         vertex 4.204479e+000 4.280057e+000 1.075170e+000
         vertex 4.314994e+000 4.358798e+000 1.075170e+000
      endloop
   endfacet
   facet normal 0.000000e+000 0.000000e+000 -1.000000e+000
      outer loop
         vertex 4.314994e+000 4.358798e+000 1.075170e+000
         vertex 4.204479e+000 4.280057e+000 1.075170e+000
         vertex 4.234704e+000 4.358798e+000 1.075170e+000
      endloop
   endfacet
   facet normal 0.000000e+000 1.000000e+000 0.000000e+000
      outer loop
         vertex 4.264930e+000 4.437538e+000 1.153910e+000
         vertex 4.264930e+000 4.437538e+000 1.193280e+000
         vertex 4.461781e+000 4.437538e+000 1.193280e+000
      endloop
   endfacet
   facet normal 0.000000e+000 1.000000e+000 0.000000e+000
      outer loop
         vertex 4.461781e+000 4.437538e+000 1.252335e+000
         vertex 5.121229e+000 4.437538e+000 1.252335e+000
         vertex 4.461781e+000 4.437538e+000 1.193280e+000
      endloop
   endfacet
   facet normal 0.000000e+000 1.000000e+000 0.000000e+000
      outer loop
         vertex 4.461781e+000 4.437538e+000 1.193280e+000
         vertex 5.121229e+000 4.437538e+000 1.252335e+000
         vertex 5.121229e+000 4.437538e+000 1.153910e+000
      endloop
   endfacet
   facet normal 0.000000e+000 1.000000e+000 0.000000e+000
      outer loop
         vertex 4.461781e+000 4.437538e+000 1.193280e+000
         vertex 5.121229e+000 4.437538e+000 1.153910e+000
         vertex 4.264930e+000 4.437538e+000 1.153910e+000
      endloop
   endfacet
   facet normal 0.000000e+000 0.000000e+000 -1.000000e+000
      outer loop
         vertex 4.439221e+000 3.814676e+000 1.075170e+000
         vertex 4.345659e+000 3.884982e+000 1.075170e+000
         vertex 4.362728e+000 3.910527e+000 1.075170e+000
      endloop
   endfacet
   facet normal 0.000000e+000 0.000000e+000 -1.000000e+000
      outer loop
         vertex 4.439221e+000 3.814676e+000 1.075170e+000
         vertex 4.300549e+000 4.162442e+000 1.075170e+000
         vertex 4.315484e+000 4.184794e+000 1.075170e+000
      endloop
   endfacet
   facet normal 0.000000e+000 0.000000e+000 -1.000000e+000
      outer loop
         vertex 4.234304e+000 3.884982e+000 1.075170e+000
         vertex 4.140403e+000 3.814676e+000 1.075170e+000
         vertex 4.217235e+000 3.910527e+000 1.075170e+000
      endloop
   endfacet
   facet normal 0.000000e+000 0.000000e+000 -1.000000e+000
      outer loop
         vertex 4.217235e+000 3.910527e+000 1.075170e+000
         vertex 4.140403e+000 3.814676e+000 1.075170e+000
         vertex 4.110652e+000 3.820513e+000 1.075170e+000
      endloop
   endfacet
   facet normal 0.000000e+000 0.000000e+000 -1.000000e+000
      outer loop
         vertex 4.066893e+000 3.921634e+000 1.075170e+000
         vertex 4.211242e+000 3.940660e+000 1.075170e+000
         vertex 4.061680e+000 3.891767e+000 1.075170e+000
      endloop
   endfacet
   facet normal 0.000000e+000 0.000000e+000 -1.000000e+000
      outer loop
         vertex 4.061680e+000 3.891767e+000 1.075170e+000
         vertex 4.211242e+000 3.940660e+000 1.075170e+000
         vertex 4.217235e+000 3.910527e+000 1.075170e+000
      endloop
   endfacet
   facet normal 0.000000e+000 0.000000e+000 -1.000000e+000
      outer loop
         vertex 4.061680e+000 3.891767e+000 1.075170e+000
         vertex 4.217235e+000 3.910527e+000 1.075170e+000
         vertex 4.068139e+000 3.862144e+000 1.075170e+000
      endloop
   endfacet
   facet normal 0.000000e+000 0.000000e+000 -1.000000e+000
      outer loop
         vertex 4.068139e+000 3.862144e+000 1.075170e+000
         vertex 4.217235e+000 3.910527e+000 1.075170e+000
         vertex 4.110652e+000 3.820513e+000 1.075170e+000
      endloop
   endfacet
   facet normal 0.000000e+000 0.000000e+000 -1.000000e+000
      outer loop
         vertex 4.068139e+000 3.862144e+000 1.075170e+000
         vertex 4.110652e+000 3.820513e+000 1.075170e+000
         vertex 4.085312e+000 3.837158e+000 1.075170e+000
      endloop
   endfacet
   facet normal 0.000000e+000 0.000000e+000 -1.000000e+000
      outer loop
         vertex 4.315484e+000 4.184794e+000 1.075170e+000
         vertex 4.319564e+000 4.198545e+000 1.075170e+000
         vertex 4.439221e+000 3.814676e+000 1.075170e+000
      endloop
   endfacet
   facet normal 0.000000e+000 0.000000e+000 -1.000000e+000
      outer loop
         vertex 4.439221e+000 3.814676e+000 1.075170e+000
         vertex 4.319564e+000 4.198545e+000 1.075170e+000
         vertex 4.551215e+000 4.319427e+000 1.075170e+000
      endloop
   endfacet
   facet normal 0.000000e+000 0.000000e+000 -1.000000e+000
      outer loop
         vertex 4.439221e+000 3.814676e+000 1.075170e+000
         vertex 4.551215e+000 4.319427e+000 1.075170e+000
         vertex 4.629955e+000 4.311553e+000 1.075170e+000
      endloop
   endfacet
   facet normal 0.000000e+000 0.000000e+000 -1.000000e+000
      outer loop
         vertex 4.629955e+000 4.311553e+000 1.075170e+000
         vertex 4.551215e+000 4.319427e+000 1.075170e+000
         vertex 4.551215e+000 4.358798e+000 1.075170e+000
      endloop
   endfacet
   facet normal 0.000000e+000 0.000000e+000 -1.000000e+000
      outer loop
         vertex 4.629955e+000 4.311553e+000 1.075170e+000
         vertex 4.551215e+000 4.358798e+000 1.075170e+000
         vertex 4.974443e+000 4.311553e+000 1.075170e+000
      endloop
   endfacet
   facet normal 0.000000e+000 0.000000e+000 -1.000000e+000
      outer loop
         vertex 4.974443e+000 4.311553e+000 1.075170e+000
         vertex 4.551215e+000 4.358798e+000 1.075170e+000
         vertex 4.992579e+000 4.358798e+000 1.075170e+000
      endloop
   endfacet
   facet normal 0.000000e+000 0.000000e+000 -1.000000e+000
      outer loop
         vertex 4.234304e+000 3.884982e+000 1.075170e+000
         vertex 4.259849e+000 3.867913e+000 1.075170e+000
         vertex 4.140403e+000 3.814676e+000 1.075170e+000
      endloop
   endfacet
   facet normal 0.000000e+000 0.000000e+000 -1.000000e+000
      outer loop
         vertex 4.140403e+000 3.814676e+000 1.075170e+000
         vertex 4.259849e+000 3.867913e+000 1.075170e+000
         vertex 4.289981e+000 3.861920e+000 1.075170e+000
      endloop
   endfacet
   facet normal 0.000000e+000 0.000000e+000 -1.000000e+000
      outer loop
         vertex 4.140403e+000 3.814676e+000 1.075170e+000
         vertex 4.289981e+000 3.861920e+000 1.075170e+000
         vertex 4.439221e+000 3.814676e+000 1.075170e+000
      endloop
   endfacet
   facet normal 0.000000e+000 0.000000e+000 -1.000000e+000
      outer loop
         vertex 4.439221e+000 3.814676e+000 1.075170e+000
         vertex 4.289981e+000 3.861920e+000 1.075170e+000
         vertex 4.320114e+000 3.867913e+000 1.075170e+000
      endloop
   endfacet
   facet normal 0.000000e+000 0.000000e+000 -1.000000e+000
      outer loop
         vertex 4.439221e+000 3.814676e+000 1.075170e+000
         vertex 4.320114e+000 3.867913e+000 1.075170e+000
         vertex 4.345659e+000 3.884982e+000 1.075170e+000
      endloop
   endfacet
   facet normal 0.000000e+000 0.000000e+000 -1.000000e+000
      outer loop
         vertex 4.362728e+000 3.910527e+000 1.075170e+000
         vertex 4.368722e+000 3.940660e+000 1.075170e+000
         vertex 4.439221e+000 3.814676e+000 1.075170e+000
      endloop
   endfacet
   facet normal 0.000000e+000 0.000000e+000 -1.000000e+000
      outer loop
         vertex 4.439221e+000 3.814676e+000 1.075170e+000
         vertex 4.368722e+000 3.940660e+000 1.075170e+000
         vertex 4.362728e+000 3.970793e+000 1.075170e+000
      endloop
   endfacet
   facet normal 0.000000e+000 0.000000e+000 -1.000000e+000
      outer loop
         vertex 4.439221e+000 3.814676e+000 1.075170e+000
         vertex 4.362728e+000 3.970793e+000 1.075170e+000
         vertex 4.300549e+000 4.162442e+000 1.075170e+000
      endloop
   endfacet
   facet normal 0.000000e+000 0.000000e+000 -1.000000e+000
      outer loop
         vertex 4.300549e+000 4.162442e+000 1.075170e+000
         vertex 4.362728e+000 3.970793e+000 1.075170e+000
         vertex 4.345659e+000 3.996337e+000 1.075170e+000
      endloop
   endfacet
   facet normal 0.000000e+000 0.000000e+000 -1.000000e+000
      outer loop
         vertex 4.345659e+000 3.996337e+000 1.075170e+000
         vertex 4.320114e+000 4.013406e+000 1.075170e+000
         vertex 4.300549e+000 4.162442e+000 1.075170e+000
      endloop
   endfacet
   facet normal 0.000000e+000 0.000000e+000 -1.000000e+000
      outer loop
         vertex 4.300549e+000 4.162442e+000 1.075170e+000
         vertex 4.320114e+000 4.013406e+000 1.075170e+000
         vertex 4.289981e+000 4.019400e+000 1.075170e+000
      endloop
   endfacet
   facet normal 0.000000e+000 0.000000e+000 -1.000000e+000
      outer loop
         vertex 4.300549e+000 4.162442e+000 1.075170e+000
         vertex 4.289981e+000 4.019400e+000 1.075170e+000
         vertex 4.278197e+000 4.147507e+000 1.075170e+000
      endloop
   endfacet
   facet normal 0.000000e+000 0.000000e+000 -1.000000e+000
      outer loop
         vertex 4.278197e+000 4.147507e+000 1.075170e+000
         vertex 4.289981e+000 4.019400e+000 1.075170e+000
         vertex 4.251831e+000 4.142262e+000 1.075170e+000
      endloop
   endfacet
   facet normal 0.000000e+000 0.000000e+000 -1.000000e+000
      outer loop
         vertex 4.251831e+000 4.142262e+000 1.075170e+000
         vertex 4.289981e+000 4.019400e+000 1.075170e+000
         vertex 4.259849e+000 4.013406e+000 1.075170e+000
      endloop
   endfacet
   facet normal 0.000000e+000 0.000000e+000 -1.000000e+000
      outer loop
         vertex 4.251831e+000 4.142262e+000 1.075170e+000
         vertex 4.259849e+000 4.013406e+000 1.075170e+000
         vertex 4.151585e+000 4.142262e+000 1.075170e+000
      endloop
   endfacet
   facet normal 0.000000e+000 0.000000e+000 -1.000000e+000
      outer loop
         vertex 4.151585e+000 4.142262e+000 1.075170e+000
         vertex 4.259849e+000 4.013406e+000 1.075170e+000
         vertex 4.234304e+000 3.996337e+000 1.075170e+000
      endloop
   endfacet
   facet normal 0.000000e+000 0.000000e+000 -1.000000e+000
      outer loop
         vertex 4.151585e+000 4.142262e+000 1.075170e+000
         vertex 4.234304e+000 3.996337e+000 1.075170e+000
         vertex 4.066893e+000 3.921634e+000 1.075170e+000
      endloop
   endfacet
   facet normal 0.000000e+000 0.000000e+000 -1.000000e+000
      outer loop
         vertex 4.066893e+000 3.921634e+000 1.075170e+000
         vertex 4.234304e+000 3.996337e+000 1.075170e+000
         vertex 4.217235e+000 3.970793e+000 1.075170e+000
      endloop
   endfacet
   facet normal 0.000000e+000 0.000000e+000 -1.000000e+000
      outer loop
         vertex 4.066893e+000 3.921634e+000 1.075170e+000
         vertex 4.217235e+000 3.970793e+000 1.075170e+000
         vertex 4.211242e+000 3.940660e+000 1.075170e+000
      endloop
   endfacet
   facet normal 0.000000e+000 -1.000000e+000 0.000000e+000
      outer loop
         vertex 4.974443e+000 4.311553e+000 1.134225e+000
         vertex 5.072869e+000 4.311553e+000 1.134225e+000
         vertex 5.072869e+000 4.311553e+000 1.252335e+000
      endloop
   endfacet
   facet normal 0.000000e+000 -1.000000e+000 0.000000e+000
      outer loop
         vertex 4.461781e+000 4.311553e+000 1.252335e+000
         vertex 4.461781e+000 4.311553e+000 1.193280e+000
         vertex 4.629955e+000 4.311553e+000 1.193280e+000
      endloop
   endfacet
   facet normal 0.000000e+000 -1.000000e+000 0.000000e+000
      outer loop
         vertex 4.629955e+000 4.311553e+000 1.075170e+000
         vertex 4.974443e+000 4.311553e+000 1.075170e+000
         vertex 4.629955e+000 4.311553e+000 1.193280e+000
      endloop
   endfacet
   facet normal 0.000000e+000 -1.000000e+000 0.000000e+000
      outer loop
         vertex 4.629955e+000 4.311553e+000 1.193280e+000
         vertex 4.974443e+000 4.311553e+000 1.075170e+000
         vertex 4.974443e+000 4.311553e+000 1.134225e+000
      endloop
   endfacet
   facet normal 0.000000e+000 -1.000000e+000 0.000000e+000
      outer loop
         vertex 4.629955e+000 4.311553e+000 1.193280e+000
         vertex 4.974443e+000 4.311553e+000 1.134225e+000
         vertex 4.461781e+000 4.311553e+000 1.252335e+000
      endloop
   endfacet
   facet normal 0.000000e+000 -1.000000e+000 0.000000e+000
      outer loop
         vertex 4.461781e+000 4.311553e+000 1.252335e+000
         vertex 4.974443e+000 4.311553e+000 1.134225e+000
         vertex 5.072869e+000 4.311553e+000 1.252335e+000
      endloop
   endfacet
   facet normal -9.717897e-001 2.358489e-001 0.000000e+000
      outer loop
         vertex 4.066893e+000 3.921634e+000 1.193280e+000
         vertex 4.066893e+000 3.921634e+000 1.075170e+000
         vertex 4.061680e+000 3.891767e+000 1.075170e+000
      endloop
   endfacet
   facet normal -9.942293e-001 1.072764e-001 0.000000e+000
      outer loop
         vertex 4.066893e+000 3.921634e+000 1.193280e+000
         vertex 4.061680e+000 3.891767e+000 1.075170e+000
         vertex 4.061680e+000 3.891767e+000 1.193280e+000
      endloop
   endfacet
   facet normal -9.888648e-001 -1.488163e-001 0.000000e+000
      outer loop
         vertex 4.061680e+000 3.891767e+000 1.193280e+000
         vertex 4.061680e+000 3.891767e+000 1.075170e+000
         vertex 4.068139e+000 3.862144e+000 1.075170e+000
      endloop
   endfacet
   facet normal -9.610610e-001 -2.763363e-001 0.000000e+000
      outer loop
         vertex 4.061680e+000 3.891767e+000 1.193280e+000
         vertex 4.068139e+000 3.862144e+000 1.075170e+000
         vertex 4.068139e+000 3.862144e+000 1.193280e+000
      endloop
   endfacet
   facet normal -8.593320e-001 -5.114181e-001 0.000000e+000
      outer loop
         vertex 4.068139e+000 3.862144e+000 1.193280e+000
         vertex 4.068139e+000 3.862144e+000 1.075170e+000
         vertex 4.085312e+000 3.837158e+000 1.075170e+000
      endloop
   endfacet
   facet normal -7.854070e-001 -6.189797e-001 0.000000e+000
      outer loop
         vertex 4.068139e+000 3.862144e+000 1.193280e+000
         vertex 4.085312e+000 3.837158e+000 1.075170e+000
         vertex 4.085312e+000 3.837158e+000 1.193280e+000
      endloop
   endfacet
   facet normal -6.023957e-001 -7.981976e-001 0.000000e+000
      outer loop
         vertex 4.085312e+000 3.837158e+000 1.193280e+000
         vertex 4.085312e+000 3.837158e+000 1.075170e+000
         vertex 4.110652e+000 3.820513e+000 1.075170e+000
      endloop
   endfacet
   facet normal -4.933094e-001 -8.698539e-001 0.000000e+000
      outer loop
         vertex 4.085312e+000 3.837158e+000 1.193280e+000
         vertex 4.110652e+000 3.820513e+000 1.075170e+000
         vertex 4.110652e+000 3.820513e+000 1.193280e+000
      endloop
   endfacet
   facet normal -2.561488e-001 -9.666374e-001 0.000000e+000
      outer loop
         vertex 4.110652e+000 3.820513e+000 1.193280e+000
         vertex 4.110652e+000 3.820513e+000 1.075170e+000
         vertex 4.140403e+000 3.814676e+000 1.075170e+000
      endloop
   endfacet
   facet normal -1.280744e-001 -9.917645e-001 0.000000e+000
      outer loop
         vertex 4.110652e+000 3.820513e+000 1.193280e+000
         vertex 4.140403e+000 3.814676e+000 1.075170e+000
         vertex 4.140403e+000 3.814676e+000 1.193280e+000
      endloop
   endfacet
   facet normal 1.714158e-016 -1.000000e+000 0.000000e+000
      outer loop
         vertex 4.439221e+000 3.814676e+000 1.193280e+000
         vertex 4.140403e+000 3.814676e+000 1.193280e+000
         vertex 4.439221e+000 3.814676e+000 1.075170e+000
      endloop
   endfacet
   facet normal 1.714158e-016 -1.000000e+000 0.000000e+000
      outer loop
         vertex 4.439221e+000 3.814676e+000 1.075170e+000
         vertex 4.140403e+000 3.814676e+000 1.193280e+000
         vertex 4.140403e+000 3.814676e+000 1.075170e+000
      endloop
   endfacet
   facet normal 9.335804e-001 -3.583680e-001 0.000000e+000
      outer loop
         vertex 4.629955e+000 4.311553e+000 1.193280e+000
         vertex 4.439221e+000 3.814676e+000 1.193280e+000
         vertex 4.629955e+000 4.311553e+000 1.075170e+000
      endloop
   endfacet
   facet normal 9.335804e-001 -3.583680e-001 0.000000e+000
      outer loop
         vertex 4.629955e+000 4.311553e+000 1.075170e+000
         vertex 4.439221e+000 3.814676e+000 1.193280e+000
         vertex 4.439221e+000 3.814676e+000 1.075170e+000
      endloop
   endfacet
   facet normal -9.335804e-001 3.583680e-001 0.000000e+000
      outer loop
         vertex 4.264930e+000 4.437538e+000 1.193280e+000
         vertex 4.264930e+000 4.437538e+000 1.153910e+000
         vertex 4.204479e+000 4.280057e+000 1.193280e+000
      endloop
   endfacet
   facet normal -9.335804e-001 3.583680e-001 0.000000e+000
      outer loop
         vertex 4.204479e+000 4.280057e+000 1.193280e+000
         vertex 4.264930e+000 4.437538e+000 1.153910e+000
         vertex 4.234704e+000 4.358798e+000 1.075170e+000
      endloop
   endfacet
   facet normal -9.335804e-001 3.583680e-001 0.000000e+000
      outer loop
         vertex 4.204479e+000 4.280057e+000 1.193280e+000
         vertex 4.234704e+000 4.358798e+000 1.075170e+000
         vertex 4.204479e+000 4.280057e+000 1.075170e+000
      endloop
   endfacet
   facet normal -1.442308e-015 -1.000000e+000 0.000000e+000
      outer loop
         vertex 4.204479e+000 4.280057e+000 6.814691e-001
         vertex 4.204479e+000 4.280057e+000 5.633588e-001
         vertex 4.236254e+000 4.280057e+000 6.814691e-001
      endloop
   endfacet
   facet normal -1.442308e-015 -1.000000e+000 0.000000e+000
      outer loop
         vertex 4.236254e+000 4.280057e+000 6.814691e-001
         vertex 4.204479e+000 4.280057e+000 5.633588e-001
         vertex 4.251831e+000 4.280057e+000 5.633588e-001
      endloop
   endfacet
   facet normal -1.442308e-015 -1.000000e+000 0.000000e+000
      outer loop
         vertex 4.236254e+000 4.280057e+000 6.814691e-001
         vertex 4.251831e+000 4.280057e+000 5.633588e-001
         vertex 4.236254e+000 4.280057e+000 1.075170e+000
      endloop
   endfacet
   facet normal -1.442308e-015 -1.000000e+000 0.000000e+000
      outer loop
         vertex 4.236254e+000 4.280057e+000 1.075170e+000
         vertex 4.251831e+000 4.280057e+000 5.633588e-001
         vertex 4.251831e+000 4.280057e+000 1.193280e+000
      endloop
   endfacet
   facet normal -1.442308e-015 -1.000000e+000 0.000000e+000
      outer loop
         vertex 4.236254e+000 4.280057e+000 1.075170e+000
         vertex 4.251831e+000 4.280057e+000 1.193280e+000
         vertex 4.204479e+000 4.280057e+000 1.075170e+000
      endloop
   endfacet
   facet normal -1.442308e-015 -1.000000e+000 0.000000e+000
      outer loop
         vertex 4.204479e+000 4.280057e+000 1.075170e+000
         vertex 4.251831e+000 4.280057e+000 1.193280e+000
         vertex 4.204479e+000 4.280057e+000 1.193280e+000
      endloop
   endfacet
   facet normal -7.928920e-001 6.093621e-001 0.000000e+000
      outer loop
         vertex 4.315484e+000 4.184794e+000 1.193280e+000
         vertex 4.300549e+000 4.162442e+000 1.075170e+000
         vertex 4.300549e+000 4.162442e+000 1.193280e+000
      endloop
   endfacet
   facet normal -6.093621e-001 7.928920e-001 0.000000e+000
      outer loop
         vertex 4.300549e+000 4.162442e+000 1.193280e+000
         vertex 4.300549e+000 4.162442e+000 1.075170e+000
         vertex 4.278197e+000 4.147507e+000 1.075170e+000
      endloop
   endfacet
   facet normal -4.993440e-001 8.664038e-001 0.000000e+000
      outer loop
         vertex 4.300549e+000 4.162442e+000 1.193280e+000
         vertex 4.278197e+000 4.147507e+000 1.075170e+000
         vertex 4.278197e+000 4.147507e+000 1.193280e+000
      endloop
   endfacet
   facet normal -2.595505e-001 9.657295e-001 0.000000e+000
      outer loop
         vertex 4.278197e+000 4.147507e+000 1.193280e+000
         vertex 4.278197e+000 4.147507e+000 1.075170e+000
         vertex 4.251831e+000 4.142262e+000 1.075170e+000
      endloop
   endfacet
   facet normal -1.297753e-001 9.915434e-001 0.000000e+000
      outer loop
         vertex 4.278197e+000 4.147507e+000 1.193280e+000
         vertex 4.251831e+000 4.142262e+000 1.075170e+000
         vertex 4.251831e+000 4.142262e+000 1.193280e+000
      endloop
   endfacet
   facet normal -9.815822e-001 1.910405e-001 0.000000e+000
      outer loop
         vertex 4.315484e+000 4.184794e+000 6.814691e-001
         vertex 4.319564e+000 4.198545e+000 6.814691e-001
         vertex 4.320729e+000 4.211160e+000 5.633588e-001
      endloop
   endfacet
   facet normal -9.815822e-001 1.910405e-001 0.000000e+000
      outer loop
         vertex 4.320729e+000 4.211160e+000 1.193280e+000
         vertex 4.319564e+000 4.198545e+000 1.075170e+000
         vertex 4.315484e+000 4.184794e+000 1.193280e+000
      endloop
   endfacet
   facet normal -9.481963e-001 3.176850e-001 0.000000e+000
      outer loop
         vertex 4.315484e+000 4.184794e+000 1.193280e+000
         vertex 4.319564e+000 4.198545e+000 1.075170e+000
         vertex 4.315484e+000 4.184794e+000 1.075170e+000
      endloop
   endfacet
   facet normal -8.664038e-001 4.993440e-001 0.000000e+000
      outer loop
         vertex 4.315484e+000 4.184794e+000 1.193280e+000
         vertex 4.315484e+000 4.184794e+000 1.075170e+000
         vertex 4.300549e+000 4.162442e+000 1.075170e+000
      endloop
   endfacet
   facet normal -9.657295e-001 2.595505e-001 0.000000e+000
      outer loop
         vertex 4.320729e+000 4.211160e+000 5.633588e-001
         vertex 4.315484e+000 4.184794e+000 5.633588e-001
         vertex 4.315484e+000 4.184794e+000 6.814691e-001
      endloop
   endfacet
   facet normal -8.664038e-001 4.993440e-001 0.000000e+000
      outer loop
         vertex 4.315484e+000 4.184794e+000 6.814691e-001
         vertex 4.315484e+000 4.184794e+000 5.633588e-001
         vertex 4.300549e+000 4.162442e+000 5.633588e-001
      endloop
   endfacet
   facet normal -7.928920e-001 6.093621e-001 0.000000e+000
      outer loop
         vertex 4.315484e+000 4.184794e+000 6.814691e-001
         vertex 4.300549e+000 4.162442e+000 5.633588e-001
         vertex 4.300549e+000 4.162442e+000 6.814691e-001
      endloop
   endfacet
   facet normal -6.093621e-001 7.928920e-001 0.000000e+000
      outer loop
         vertex 4.300549e+000 4.162442e+000 6.814691e-001
         vertex 4.300549e+000 4.162442e+000 5.633588e-001
         vertex 4.278197e+000 4.147507e+000 5.633588e-001
      endloop
   endfacet
   facet normal -4.993440e-001 8.664038e-001 0.000000e+000
      outer loop
         vertex 4.300549e+000 4.162442e+000 6.814691e-001
         vertex 4.278197e+000 4.147507e+000 5.633588e-001
         vertex 4.278197e+000 4.147507e+000 6.814691e-001
      endloop
   endfacet
   facet normal -2.595505e-001 9.657295e-001 0.000000e+000
      outer loop
         vertex 4.278197e+000 4.147507e+000 6.814691e-001
         vertex 4.278197e+000 4.147507e+000 5.633588e-001
         vertex 4.251831e+000 4.142262e+000 5.633588e-001
      endloop
   endfacet
   facet normal -1.297753e-001 9.915434e-001 0.000000e+000
      outer loop
         vertex 4.278197e+000 4.147507e+000 6.814691e-001
         vertex 4.251831e+000 4.142262e+000 5.633588e-001
         vertex 4.251831e+000 4.142262e+000 6.814691e-001
      endloop
   endfacet
   facet normal -1.297753e-001 -9.915434e-001 0.000000e+000
      outer loop
         vertex 4.251831e+000 4.280057e+000 1.193280e+000
         vertex 4.251831e+000 4.280057e+000 5.633588e-001
         vertex 4.278197e+000 4.274813e+000 5.633588e-001
      endloop
   endfacet
   facet normal -2.595505e-001 -9.657295e-001 0.000000e+000
      outer loop
         vertex 4.251831e+000 4.280057e+000 1.193280e+000
         vertex 4.278197e+000 4.274813e+000 5.633588e-001
         vertex 4.278197e+000 4.274813e+000 1.193280e+000
      endloop
   endfacet
   facet normal -4.993440e-001 -8.664038e-001 0.000000e+000
      outer loop
         vertex 4.278197e+000 4.274813e+000 1.193280e+000
         vertex 4.278197e+000 4.274813e+000 5.633588e-001
         vertex 4.300549e+000 4.259878e+000 5.633588e-001
      endloop
   endfacet
   facet normal -6.093621e-001 -7.928920e-001 0.000000e+000
      outer loop
         vertex 4.278197e+000 4.274813e+000 1.193280e+000
         vertex 4.300549e+000 4.259878e+000 5.633588e-001
         vertex 4.300549e+000 4.259878e+000 1.193280e+000
      endloop
   endfacet
   facet normal -7.928920e-001 -6.093621e-001 0.000000e+000
      outer loop
         vertex 4.300549e+000 4.259878e+000 1.193280e+000
         vertex 4.300549e+000 4.259878e+000 5.633588e-001
         vertex 4.315484e+000 4.237526e+000 5.633588e-001
      endloop
   endfacet
   facet normal -8.664038e-001 -4.993440e-001 0.000000e+000
      outer loop
         vertex 4.300549e+000 4.259878e+000 1.193280e+000
         vertex 4.315484e+000 4.237526e+000 5.633588e-001
         vertex 4.315484e+000 4.237526e+000 1.193280e+000
      endloop
   endfacet
   facet normal -9.657295e-001 -2.595505e-001 0.000000e+000
      outer loop
         vertex 4.315484e+000 4.237526e+000 1.193280e+000
         vertex 4.315484e+000 4.237526e+000 5.633588e-001
         vertex 4.320729e+000 4.211160e+000 5.633588e-001
      endloop
   endfacet
   facet normal -9.915434e-001 -1.297753e-001 0.000000e+000
      outer loop
         vertex 4.315484e+000 4.237526e+000 1.193280e+000
         vertex 4.320729e+000 4.211160e+000 5.633588e-001
         vertex 4.320729e+000 4.211160e+000 1.193280e+000
      endloop
   endfacet
   facet normal -9.981219e-001 6.125951e-002 0.000000e+000
      outer loop
         vertex 4.320729e+000 4.211160e+000 1.193280e+000
         vertex 4.320729e+000 4.211160e+000 5.633588e-001
         vertex 4.319564e+000 4.198545e+000 6.814691e-001
      endloop
   endfacet
   facet normal -9.924662e-001 1.225190e-001 0.000000e+000
      outer loop
         vertex 4.320729e+000 4.211160e+000 1.193280e+000
         vertex 4.319564e+000 4.198545e+000 6.814691e-001
         vertex 4.319564e+000 4.198545e+000 1.075170e+000
      endloop
   endfacet
   facet normal -3.406407e-016 1.000000e+000 0.000000e+000
      outer loop
         vertex 4.151585e+000 4.142262e+000 1.193280e+000
         vertex 4.251831e+000 4.142262e+000 1.193280e+000
         vertex 4.151585e+000 4.142262e+000 1.075170e+000
      endloop
   endfacet
   facet normal -3.406407e-016 1.000000e+000 0.000000e+000
      outer loop
         vertex 4.151585e+000 4.142262e+000 1.075170e+000
         vertex 4.251831e+000 4.142262e+000 1.193280e+000
         vertex 4.251831e+000 4.142262e+000 1.075170e+000
      endloop
   endfacet
   facet normal -9.335804e-001 3.583680e-001 0.000000e+000
      outer loop
         vertex 4.066893e+000 3.921634e+000 1.193280e+000
         vertex 4.151585e+000 4.142262e+000 1.193280e+000
         vertex 4.066893e+000 3.921634e+000 1.075170e+000
      endloop
   endfacet
   facet normal -9.335804e-001 3.583680e-001 0.000000e+000
      outer loop
         vertex 4.066893e+000 3.921634e+000 1.075170e+000
         vertex 4.151585e+000 4.142262e+000 1.193280e+000
         vertex 4.151585e+000 4.142262e+000 1.075170e+000
      endloop
   endfacet
   facet normal 9.915434e-001 1.297753e-001 0.000000e+000
      outer loop
         vertex 4.217235e+000 3.910527e+000 1.193280e+000
         vertex 4.211242e+000 3.940660e+000 1.075170e+000
         vertex 4.211242e+000 3.940660e+000 1.193280e+000
      endloop
   endfacet
   facet normal 9.915434e-001 -1.297753e-001 0.000000e+000
      outer loop
         vertex 4.211242e+000 3.940660e+000 1.193280e+000
         vertex 4.211242e+000 3.940660e+000 1.075170e+000
         vertex 4.217235e+000 3.970793e+000 1.075170e+000
      endloop
   endfacet
   facet normal 9.657295e-001 -2.595505e-001 0.000000e+000
      outer loop
         vertex 4.211242e+000 3.940660e+000 1.193280e+000
         vertex 4.217235e+000 3.970793e+000 1.075170e+000
         vertex 4.217235e+000 3.970793e+000 1.193280e+000
      endloop
   endfacet
   facet normal 8.664038e-001 -4.993440e-001 0.000000e+000
      outer loop
         vertex 4.217235e+000 3.970793e+000 1.193280e+000
         vertex 4.217235e+000 3.970793e+000 1.075170e+000
         vertex 4.234304e+000 3.996337e+000 1.075170e+000
      endloop
   endfacet
   facet normal 7.928920e-001 -6.093621e-001 0.000000e+000
      outer loop
         vertex 4.217235e+000 3.970793e+000 1.193280e+000
         vertex 4.234304e+000 3.996337e+000 1.075170e+000
         vertex 4.234304e+000 3.996337e+000 1.193280e+000
      endloop
   endfacet
   facet normal 6.093621e-001 -7.928920e-001 0.000000e+000
      outer loop
         vertex 4.234304e+000 3.996337e+000 1.193280e+000
         vertex 4.234304e+000 3.996337e+000 1.075170e+000
         vertex 4.259849e+000 4.013406e+000 1.075170e+000
      endloop
   endfacet
   facet normal 4.993440e-001 -8.664038e-001 0.000000e+000
      outer loop
         vertex 4.234304e+000 3.996337e+000 1.193280e+000
         vertex 4.259849e+000 4.013406e+000 1.075170e+000
         vertex 4.259849e+000 4.013406e+000 1.193280e+000
      endloop
   endfacet
   facet normal 2.595505e-001 -9.657295e-001 0.000000e+000
      outer loop
         vertex 4.259849e+000 4.013406e+000 1.193280e+000
         vertex 4.259849e+000 4.013406e+000 1.075170e+000
         vertex 4.289981e+000 4.019400e+000 1.075170e+000
      endloop
   endfacet
   facet normal 1.297753e-001 -9.915434e-001 0.000000e+000
      outer loop
         vertex 4.259849e+000 4.013406e+000 1.193280e+000
         vertex 4.289981e+000 4.019400e+000 1.075170e+000
         vertex 4.289981e+000 4.019400e+000 1.193280e+000
      endloop
   endfacet
   facet normal -1.297753e-001 -9.915434e-001 0.000000e+000
      outer loop
         vertex 4.289981e+000 4.019400e+000 1.193280e+000
         vertex 4.289981e+000 4.019400e+000 1.075170e+000
         vertex 4.320114e+000 4.013406e+000 1.075170e+000
      endloop
   endfacet
   facet normal -2.595505e-001 -9.657295e-001 0.000000e+000
      outer loop
         vertex 4.289981e+000 4.019400e+000 1.193280e+000
         vertex 4.320114e+000 4.013406e+000 1.075170e+000
         vertex 4.320114e+000 4.013406e+000 1.193280e+000
      endloop
   endfacet
   facet normal -4.993440e-001 -8.664038e-001 0.000000e+000
      outer loop
         vertex 4.320114e+000 4.013406e+000 1.193280e+000
         vertex 4.320114e+000 4.013406e+000 1.075170e+000
         vertex 4.345659e+000 3.996337e+000 1.075170e+000
      endloop
   endfacet
   facet normal -6.093621e-001 -7.928920e-001 0.000000e+000
      outer loop
         vertex 4.320114e+000 4.013406e+000 1.193280e+000
         vertex 4.345659e+000 3.996337e+000 1.075170e+000
         vertex 4.345659e+000 3.996337e+000 1.193280e+000
      endloop
   endfacet
   facet normal -7.928920e-001 -6.093621e-001 0.000000e+000
      outer loop
         vertex 4.345659e+000 3.996337e+000 1.193280e+000
         vertex 4.345659e+000 3.996337e+000 1.075170e+000
         vertex 4.362728e+000 3.970793e+000 1.075170e+000
      endloop
   endfacet
   facet normal -8.664038e-001 -4.993440e-001 0.000000e+000
      outer loop
         vertex 4.345659e+000 3.996337e+000 1.193280e+000
         vertex 4.362728e+000 3.970793e+000 1.075170e+000
         vertex 4.362728e+000 3.970793e+000 1.193280e+000
      endloop
   endfacet
   facet normal -9.657295e-001 -2.595505e-001 0.000000e+000
      outer loop
         vertex 4.362728e+000 3.970793e+000 1.193280e+000
         vertex 4.362728e+000 3.970793e+000 1.075170e+000
         vertex 4.368722e+000 3.940660e+000 1.075170e+000
      endloop
   endfacet
   facet normal -9.915434e-001 -1.297753e-001 0.000000e+000
      outer loop
         vertex 4.362728e+000 3.970793e+000 1.193280e+000
         vertex 4.368722e+000 3.940660e+000 1.075170e+000
         vertex 4.368722e+000 3.940660e+000 1.193280e+000
      endloop
   endfacet
   facet normal -9.915434e-001 1.297753e-001 0.000000e+000
      outer loop
         vertex 4.368722e+000 3.940660e+000 1.193280e+000
         vertex 4.368722e+000 3.940660e+000 1.075170e+000
         vertex 4.362728e+000 3.910527e+000 1.075170e+000
      endloop
   endfacet
   facet normal -9.657295e-001 2.595505e-001 0.000000e+000
      outer loop
         vertex 4.368722e+000 3.940660e+000 1.193280e+000
         vertex 4.362728e+000 3.910527e+000 1.075170e+000
         vertex 4.362728e+000 3.910527e+000 1.193280e+000
      endloop
   endfacet
   facet normal -8.664038e-001 4.993440e-001 0.000000e+000
      outer loop
         vertex 4.362728e+000 3.910527e+000 1.193280e+000
         vertex 4.362728e+000 3.910527e+000 1.075170e+000
         vertex 4.345659e+000 3.884982e+000 1.075170e+000
      endloop
   endfacet
   facet normal -7.928920e-001 6.093621e-001 0.000000e+000
      outer loop
         vertex 4.362728e+000 3.910527e+000 1.193280e+000
         vertex 4.345659e+000 3.884982e+000 1.075170e+000
         vertex 4.345659e+000 3.884982e+000 1.193280e+000
      endloop
   endfacet
   facet normal -6.093621e-001 7.928920e-001 0.000000e+000
      outer loop
         vertex 4.345659e+000 3.884982e+000 1.193280e+000
         vertex 4.345659e+000 3.884982e+000 1.075170e+000
         vertex 4.320114e+000 3.867913e+000 1.075170e+000
      endloop
   endfacet
   facet normal -4.993440e-001 8.664038e-001 0.000000e+000
      outer loop
         vertex 4.345659e+000 3.884982e+000 1.193280e+000
         vertex 4.320114e+000 3.867913e+000 1.075170e+000
         vertex 4.320114e+000 3.867913e+000 1.193280e+000
      endloop
   endfacet
   facet normal -2.595505e-001 9.657295e-001 0.000000e+000
      outer loop
         vertex 4.320114e+000 3.867913e+000 1.193280e+000
         vertex 4.320114e+000 3.867913e+000 1.075170e+000
         vertex 4.289981e+000 3.861920e+000 1.075170e+000
      endloop
   endfacet
   facet normal -1.297753e-001 9.915434e-001 0.000000e+000
      outer loop
         vertex 4.320114e+000 3.867913e+000 1.193280e+000
         vertex 4.289981e+000 3.861920e+000 1.075170e+000
         vertex 4.289981e+000 3.861920e+000 1.193280e+000
      endloop
   endfacet
   facet normal 1.297753e-001 9.915434e-001 0.000000e+000
      outer loop
         vertex 4.289981e+000 3.861920e+000 1.193280e+000
         vertex 4.289981e+000 3.861920e+000 1.075170e+000
         vertex 4.259849e+000 3.867913e+000 1.075170e+000
      endloop
   endfacet
   facet normal 2.595505e-001 9.657295e-001 0.000000e+000
      outer loop
         vertex 4.289981e+000 3.861920e+000 1.193280e+000
         vertex 4.259849e+000 3.867913e+000 1.075170e+000
         vertex 4.259849e+000 3.867913e+000 1.193280e+000
      endloop
   endfacet
   facet normal 4.993440e-001 8.664038e-001 0.000000e+000
      outer loop
         vertex 4.259849e+000 3.867913e+000 1.193280e+000
         vertex 4.259849e+000 3.867913e+000 1.075170e+000
         vertex 4.234304e+000 3.884982e+000 1.075170e+000
      endloop
   endfacet
   facet normal 6.093621e-001 7.928920e-001 0.000000e+000
      outer loop
         vertex 4.259849e+000 3.867913e+000 1.193280e+000
         vertex 4.234304e+000 3.884982e+000 1.075170e+000
         vertex 4.234304e+000 3.884982e+000 1.193280e+000
      endloop
   endfacet
   facet normal 7.928920e-001 6.093621e-001 0.000000e+000
      outer loop
         vertex 4.234304e+000 3.884982e+000 1.193280e+000
         vertex 4.234304e+000 3.884982e+000 1.075170e+000
         vertex 4.217235e+000 3.910527e+000 1.075170e+000
      endloop
   endfacet
   facet normal 8.664038e-001 4.993440e-001 0.000000e+000
      outer loop
         vertex 4.234304e+000 3.884982e+000 1.193280e+000
         vertex 4.217235e+000 3.910527e+000 1.075170e+000
         vertex 4.217235e+000 3.910527e+000 1.193280e+000
      endloop
   endfacet
   facet normal 9.657295e-001 2.595505e-001 0.000000e+000
      outer loop
         vertex 4.217235e+000 3.910527e+000 1.193280e+000
         vertex 4.217235e+000 3.910527e+000 1.075170e+000
         vertex 4.211242e+000 3.940660e+000 1.075170e+000
      endloop
   endfacet
   facet normal 0.000000e+000 0.000000e+000 1.000000e+000
      outer loop
         vertex 4.251831e+000 4.142262e+000 1.193280e+000
         vertex 4.151585e+000 4.142262e+000 1.193280e+000
         vertex 4.066893e+000 3.921634e+000 1.193280e+000
      endloop
   endfacet
   facet normal 0.000000e+000 0.000000e+000 1.000000e+000
      outer loop
         vertex 4.264930e+000 4.437538e+000 1.193280e+000
         vertex 4.204479e+000 4.280057e+000 1.193280e+000
         vertex 4.251831e+000 4.280057e+000 1.193280e+000
      endloop
   endfacet
   facet normal 0.000000e+000 0.000000e+000 1.000000e+000
      outer loop
         vertex 4.264930e+000 4.437538e+000 1.193280e+000
         vertex 4.251831e+000 4.280057e+000 1.193280e+000
         vertex 4.461781e+000 4.437538e+000 1.193280e+000
      endloop
   endfacet
   facet normal 0.000000e+000 0.000000e+000 1.000000e+000
      outer loop
         vertex 4.320729e+000 4.211160e+000 1.193280e+000
         vertex 4.315484e+000 4.184794e+000 1.193280e+000
         vertex 4.461781e+000 4.311553e+000 1.193280e+000
      endloop
   endfacet
   facet normal 0.000000e+000 0.000000e+000 1.000000e+000
      outer loop
         vertex 4.461781e+000 4.311553e+000 1.193280e+000
         vertex 4.315484e+000 4.184794e+000 1.193280e+000
         vertex 4.300549e+000 4.162442e+000 1.193280e+000
      endloop
   endfacet
   facet normal 0.000000e+000 0.000000e+000 1.000000e+000
      outer loop
         vertex 4.461781e+000 4.311553e+000 1.193280e+000
         vertex 4.300549e+000 4.162442e+000 1.193280e+000
         vertex 4.066893e+000 3.921634e+000 1.193280e+000
      endloop
   endfacet
   facet normal 0.000000e+000 0.000000e+000 1.000000e+000
      outer loop
         vertex 4.066893e+000 3.921634e+000 1.193280e+000
         vertex 4.300549e+000 4.162442e+000 1.193280e+000
         vertex 4.278197e+000 4.147507e+000 1.193280e+000
      endloop
   endfacet
   facet normal 0.000000e+000 0.000000e+000 1.000000e+000
      outer loop
         vertex 4.066893e+000 3.921634e+000 1.193280e+000
         vertex 4.278197e+000 4.147507e+000 1.193280e+000
         vertex 4.251831e+000 4.142262e+000 1.193280e+000
      endloop
   endfacet
   facet normal 0.000000e+000 0.000000e+000 1.000000e+000
      outer loop
         vertex 4.345659e+000 3.884982e+000 1.193280e+000
         vertex 4.320114e+000 3.867913e+000 1.193280e+000
         vertex 4.439221e+000 3.814676e+000 1.193280e+000
      endloop
   endfacet
   facet normal 0.000000e+000 0.000000e+000 1.000000e+000
      outer loop
         vertex 4.439221e+000 3.814676e+000 1.193280e+000
         vertex 4.320114e+000 3.867913e+000 1.193280e+000
         vertex 4.289981e+000 3.861920e+000 1.193280e+000
      endloop
   endfacet
   facet normal 0.000000e+000 0.000000e+000 1.000000e+000
      outer loop
         vertex 4.439221e+000 3.814676e+000 1.193280e+000
         vertex 4.289981e+000 3.861920e+000 1.193280e+000
         vertex 4.140403e+000 3.814676e+000 1.193280e+000
      endloop
   endfacet
   facet normal 0.000000e+000 0.000000e+000 1.000000e+000
      outer loop
         vertex 4.251831e+000 4.280057e+000 1.193280e+000
         vertex 4.278197e+000 4.274813e+000 1.193280e+000
         vertex 4.461781e+000 4.437538e+000 1.193280e+000
      endloop
   endfacet
   facet normal 0.000000e+000 0.000000e+000 1.000000e+000
      outer loop
         vertex 4.461781e+000 4.437538e+000 1.193280e+000
         vertex 4.278197e+000 4.274813e+000 1.193280e+000
         vertex 4.300549e+000 4.259878e+000 1.193280e+000
      endloop
   endfacet
   facet normal 0.000000e+000 0.000000e+000 1.000000e+000
      outer loop
         vertex 4.461781e+000 4.437538e+000 1.193280e+000
         vertex 4.300549e+000 4.259878e+000 1.193280e+000
         vertex 4.461781e+000 4.311553e+000 1.193280e+000
      endloop
   endfacet
   facet normal 0.000000e+000 0.000000e+000 1.000000e+000
      outer loop
         vertex 4.461781e+000 4.311553e+000 1.193280e+000
         vertex 4.300549e+000 4.259878e+000 1.193280e+000
         vertex 4.315484e+000 4.237526e+000 1.193280e+000
      endloop
   endfacet
   facet normal 0.000000e+000 0.000000e+000 1.000000e+000
      outer loop
         vertex 4.461781e+000 4.311553e+000 1.193280e+000
         vertex 4.315484e+000 4.237526e+000 1.193280e+000
         vertex 4.320729e+000 4.211160e+000 1.193280e+000
      endloop
   endfacet
   facet normal 0.000000e+000 0.000000e+000 1.000000e+000
      outer loop
         vertex 4.289981e+000 3.861920e+000 1.193280e+000
         vertex 4.259849e+000 3.867913e+000 1.193280e+000
         vertex 4.140403e+000 3.814676e+000 1.193280e+000
      endloop
   endfacet
   facet normal 0.000000e+000 0.000000e+000 1.000000e+000
      outer loop
         vertex 4.140403e+000 3.814676e+000 1.193280e+000
         vertex 4.259849e+000 3.867913e+000 1.193280e+000
         vertex 4.234304e+000 3.884982e+000 1.193280e+000
      endloop
   endfacet
   facet normal 0.000000e+000 0.000000e+000 1.000000e+000
      outer loop
         vertex 4.140403e+000 3.814676e+000 1.193280e+000
         vertex 4.234304e+000 3.884982e+000 1.193280e+000
         vertex 4.110652e+000 3.820513e+000 1.193280e+000
      endloop
   endfacet
   facet normal 0.000000e+000 0.000000e+000 1.000000e+000
      outer loop
         vertex 4.110652e+000 3.820513e+000 1.193280e+000
         vertex 4.234304e+000 3.884982e+000 1.193280e+000
         vertex 4.217235e+000 3.910527e+000 1.193280e+000
      endloop
   endfacet
   facet normal 0.000000e+000 0.000000e+000 1.000000e+000
      outer loop
         vertex 4.110652e+000 3.820513e+000 1.193280e+000
         vertex 4.217235e+000 3.910527e+000 1.193280e+000
         vertex 4.085312e+000 3.837158e+000 1.193280e+000
      endloop
   endfacet
   facet normal 0.000000e+000 0.000000e+000 1.000000e+000
      outer loop
         vertex 4.085312e+000 3.837158e+000 1.193280e+000
         vertex 4.217235e+000 3.910527e+000 1.193280e+000
         vertex 4.068139e+000 3.862144e+000 1.193280e+000
      endloop
   endfacet
   facet normal 0.000000e+000 0.000000e+000 1.000000e+000
      outer loop
         vertex 4.068139e+000 3.862144e+000 1.193280e+000
         vertex 4.217235e+000 3.910527e+000 1.193280e+000
         vertex 4.061680e+000 3.891767e+000 1.193280e+000
      endloop
   endfacet
   facet normal 0.000000e+000 0.000000e+000 1.000000e+000
      outer loop
         vertex 4.061680e+000 3.891767e+000 1.193280e+000
         vertex 4.217235e+000 3.910527e+000 1.193280e+000
         vertex 4.211242e+000 3.940660e+000 1.193280e+000
      endloop
   endfacet
   facet normal 0.000000e+000 0.000000e+000 1.000000e+000
      outer loop
         vertex 4.061680e+000 3.891767e+000 1.193280e+000
         vertex 4.211242e+000 3.940660e+000 1.193280e+000
         vertex 4.066893e+000 3.921634e+000 1.193280e+000
      endloop
   endfacet
   facet normal 0.000000e+000 0.000000e+000 1.000000e+000
      outer loop
         vertex 4.259849e+000 4.013406e+000 1.193280e+000
         vertex 4.461781e+000 4.311553e+000 1.193280e+000
         vertex 4.234304e+000 3.996337e+000 1.193280e+000
      endloop
   endfacet
   facet normal 0.000000e+000 0.000000e+000 1.000000e+000
      outer loop
         vertex 4.234304e+000 3.996337e+000 1.193280e+000
         vertex 4.461781e+000 4.311553e+000 1.193280e+000
         vertex 4.066893e+000 3.921634e+000 1.193280e+000
      endloop
   endfacet
   facet normal 0.000000e+000 0.000000e+000 1.000000e+000
      outer loop
         vertex 4.234304e+000 3.996337e+000 1.193280e+000
         vertex 4.066893e+000 3.921634e+000 1.193280e+000
         vertex 4.217235e+000 3.970793e+000 1.193280e+000
      endloop
   endfacet
   facet normal 0.000000e+000 0.000000e+000 1.000000e+000
      outer loop
         vertex 4.217235e+000 3.970793e+000 1.193280e+000
         vertex 4.066893e+000 3.921634e+000 1.193280e+000
         vertex 4.211242e+000 3.940660e+000 1.193280e+000
      endloop
   endfacet
   facet normal 0.000000e+000 0.000000e+000 1.000000e+000
      outer loop
         vertex 4.259849e+000 4.013406e+000 1.193280e+000
         vertex 4.289981e+000 4.019400e+000 1.193280e+000
         vertex 4.461781e+000 4.311553e+000 1.193280e+000
      endloop
   endfacet
   facet normal 0.000000e+000 0.000000e+000 1.000000e+000
      outer loop
         vertex 4.461781e+000 4.311553e+000 1.193280e+000
         vertex 4.289981e+000 4.019400e+000 1.193280e+000
         vertex 4.320114e+000 4.013406e+000 1.193280e+000
      endloop
   endfacet
   facet normal 0.000000e+000 0.000000e+000 1.000000e+000
      outer loop
         vertex 4.461781e+000 4.311553e+000 1.193280e+000
         vertex 4.320114e+000 4.013406e+000 1.193280e+000
         vertex 4.629955e+000 4.311553e+000 1.193280e+000
      endloop
   endfacet
   facet normal 0.000000e+000 0.000000e+000 1.000000e+000
      outer loop
         vertex 4.629955e+000 4.311553e+000 1.193280e+000
         vertex 4.320114e+000 4.013406e+000 1.193280e+000
         vertex 4.345659e+000 3.996337e+000 1.193280e+000
      endloop
   endfacet
   facet normal 0.000000e+000 0.000000e+000 1.000000e+000
      outer loop
         vertex 4.345659e+000 3.996337e+000 1.193280e+000
         vertex 4.362728e+000 3.970793e+000 1.193280e+000
         vertex 4.629955e+000 4.311553e+000 1.193280e+000
      endloop
   endfacet
   facet normal 0.000000e+000 0.000000e+000 1.000000e+000
      outer loop
         vertex 4.629955e+000 4.311553e+000 1.193280e+000
         vertex 4.362728e+000 3.970793e+000 1.193280e+000
         vertex 4.368722e+000 3.940660e+000 1.193280e+000
      endloop
   endfacet
   facet normal 0.000000e+000 0.000000e+000 1.000000e+000
      outer loop
         vertex 4.629955e+000 4.311553e+000 1.193280e+000
         vertex 4.368722e+000 3.940660e+000 1.193280e+000
         vertex 4.439221e+000 3.814676e+000 1.193280e+000
      endloop
   endfacet
   facet normal 0.000000e+000 0.000000e+000 1.000000e+000
      outer loop
         vertex 4.439221e+000 3.814676e+000 1.193280e+000
         vertex 4.368722e+000 3.940660e+000 1.193280e+000
         vertex 4.362728e+000 3.910527e+000 1.193280e+000
      endloop
   endfacet
   facet normal 0.000000e+000 0.000000e+000 1.000000e+000
      outer loop
         vertex 4.439221e+000 3.814676e+000 1.193280e+000
         vertex 4.362728e+000 3.910527e+000 1.193280e+000
         vertex 4.345659e+000 3.884982e+000 1.193280e+000
      endloop
   endfacet
   facet normal 9.335804e-001 -3.583680e-001 0.000000e+000
      outer loop
         vertex 5.121229e+000 4.437538e+000 1.153910e+000
         vertex 5.121229e+000 4.437538e+000 1.252335e+000
         vertex 5.113673e+000 4.417853e+000 1.134225e+000
      endloop
   endfacet
   facet normal 9.335804e-001 -3.583680e-001 0.000000e+000
      outer loop
         vertex 5.113673e+000 4.417853e+000 1.134225e+000
         vertex 5.121229e+000 4.437538e+000 1.252335e+000
         vertex 5.072869e+000 4.311553e+000 1.252335e+000
      endloop
   endfacet
   facet normal 9.335804e-001 -3.583680e-001 0.000000e+000
      outer loop
         vertex 5.113673e+000 4.417853e+000 1.134225e+000
         vertex 5.072869e+000 4.311553e+000 1.252335e+000
         vertex 5.072869e+000 4.311553e+000 1.134225e+000
      endloop
   endfacet
   facet normal -1.000000e+000 0.000000e+000 0.000000e+000
      outer loop
         vertex 4.461781e+000 4.311553e+000 1.193280e+000
         vertex 4.461781e+000 4.311553e+000 1.252335e+000
         vertex 4.461781e+000 4.437538e+000 1.193280e+000
      endloop
   endfacet
   facet normal -1.000000e+000 0.000000e+000 0.000000e+000
      outer loop
         vertex 4.461781e+000 4.437538e+000 1.193280e+000
         vertex 4.461781e+000 4.311553e+000 1.252335e+000
         vertex 4.461781e+000 4.437538e+000 1.252335e+000
      endloop
   endfacet
   facet normal 0.000000e+000 0.000000e+000 1.000000e+000
      outer loop
         vertex 5.121229e+000 4.437538e+000 1.252335e+000
         vertex 4.461781e+000 4.437538e+000 1.252335e+000
         vertex 5.072869e+000 4.311553e+000 1.252335e+000
      endloop
   endfacet
   facet normal 0.000000e+000 0.000000e+000 1.000000e+000
      outer loop
         vertex 5.072869e+000 4.311553e+000 1.252335e+000
         vertex 4.461781e+000 4.437538e+000 1.252335e+000
         vertex 4.461781e+000 4.311553e+000 1.252335e+000
      endloop
   endfacet
   facet normal 9.335804e-001 -3.583680e-001 0.000000e+000
      outer loop
         vertex 5.015247e+000 4.417853e+000 1.134225e+000
         vertex 4.974443e+000 4.311553e+000 1.134225e+000
         vertex 4.992579e+000 4.358798e+000 1.075170e+000
      endloop
   endfacet
   facet normal 9.335804e-001 -3.583680e-001 0.000000e+000
      outer loop
         vertex 4.992579e+000 4.358798e+000 1.075170e+000
         vertex 4.974443e+000 4.311553e+000 1.134225e+000
         vertex 4.974443e+000 4.311553e+000 1.075170e+000
      endloop
   endfacet
   facet normal 0.000000e+000 0.000000e+000 -1.000000e+000
      outer loop
         vertex 5.113673e+000 4.417853e+000 1.134225e+000
         vertex 5.072869e+000 4.311553e+000 1.134225e+000
         vertex 5.015247e+000 4.417853e+000 1.134225e+000
      endloop
   endfacet
   facet normal 0.000000e+000 0.000000e+000 -1.000000e+000
      outer loop
         vertex 5.015247e+000 4.417853e+000 1.134225e+000
         vertex 5.072869e+000 4.311553e+000 1.134225e+000
         vertex 4.974443e+000 4.311553e+000 1.134225e+000
      endloop
   endfacet
   facet normal 0.000000e+000 7.071068e-001 -7.071068e-001
      outer loop
         vertex 4.992579e+000 4.358798e+000 1.075170e+000
         vertex 4.264930e+000 4.437538e+000 1.153910e+000
         vertex 5.015247e+000 4.417853e+000 1.134225e+000
      endloop
   endfacet
   facet normal 0.000000e+000 7.071068e-001 -7.071068e-001
      outer loop
         vertex 5.015247e+000 4.417853e+000 1.134225e+000
         vertex 4.264930e+000 4.437538e+000 1.153910e+000
         vertex 5.121229e+000 4.437538e+000 1.153910e+000
      endloop
   endfacet
   facet normal 0.000000e+000 7.071068e-001 -7.071068e-001
      outer loop
         vertex 5.015247e+000 4.417853e+000 1.134225e+000
         vertex 5.121229e+000 4.437538e+000 1.153910e+000
         vertex 5.113673e+000 4.417853e+000 1.134225e+000
      endloop
   endfacet
   facet normal 0.000000e+000 7.071068e-001 -7.071068e-001
      outer loop
         vertex 4.992579e+000 4.358798e+000 1.075170e+000
         vertex 4.551215e+000 4.358798e+000 1.075170e+000
         vertex 4.264930e+000 4.437538e+000 1.153910e+000
      endloop
   endfacet
   facet normal 0.000000e+000 7.071068e-001 -7.071068e-001
      outer loop
         vertex 4.264930e+000 4.437538e+000 1.153910e+000
         vertex 4.551215e+000 4.358798e+000 1.075170e+000
         vertex 4.314994e+000 4.358798e+000 1.075170e+000
      endloop
   endfacet
   facet normal 0.000000e+000 7.071068e-001 -7.071068e-001
      outer loop
         vertex 4.264930e+000 4.437538e+000 1.153910e+000
         vertex 4.314994e+000 4.358798e+000 1.075170e+000
         vertex 4.234704e+000 4.358798e+000 1.075170e+000
      endloop
   endfacet
   facet normal -7.071068e-001 7.071068e-001 0.000000e+000
      outer loop
         vertex 4.236254e+000 4.280057e+000 6.814691e-001
         vertex 4.236254e+000 4.280057e+000 1.075170e+000
         vertex 4.314994e+000 4.358798e+000 6.814691e-001
      endloop
   endfacet
   facet normal -7.071068e-001 7.071068e-001 0.000000e+000
      outer loop
         vertex 4.314994e+000 4.358798e+000 6.814691e-001
         vertex 4.236254e+000 4.280057e+000 1.075170e+000
         vertex 4.314994e+000 4.358798e+000 1.075170e+000
      endloop
   endfacet
   facet normal 0.000000e+000 1.000000e+000 0.000000e+000
      outer loop
         vertex 4.314994e+000 4.358798e+000 6.814691e-001
         vertex 4.314994e+000 4.358798e+000 1.075170e+000
         vertex 4.551215e+000 4.358798e+000 6.814691e-001
      endloop
   endfacet
   facet normal 0.000000e+000 1.000000e+000 0.000000e+000
      outer loop
         vertex 4.551215e+000 4.358798e+000 6.814691e-001
         vertex 4.314994e+000 4.358798e+000 1.075170e+000
         vertex 4.551215e+000 4.358798e+000 1.075170e+000
      endloop
   endfacet
   facet normal 1.000000e+000 0.000000e+000 0.000000e+000
      outer loop
         vertex 4.551215e+000 4.358798e+000 6.814691e-001
         vertex 4.551215e+000 4.358798e+000 1.075170e+000
         vertex 4.551215e+000 4.319427e+000 6.814691e-001
      endloop
   endfacet
   facet normal 1.000000e+000 0.000000e+000 0.000000e+000
      outer loop
         vertex 4.551215e+000 4.319427e+000 6.814691e-001
         vertex 4.551215e+000 4.358798e+000 1.075170e+000
         vertex 4.551215e+000 4.319427e+000 1.075170e+000
      endloop
   endfacet
   facet normal 4.626282e-001 -8.865524e-001 0.000000e+000
      outer loop
         vertex 4.551215e+000 4.319427e+000 6.814691e-001
         vertex 4.551215e+000 4.319427e+000 1.075170e+000
         vertex 4.319564e+000 4.198545e+000 6.814691e-001
      endloop
   endfacet
   facet normal 4.626282e-001 -8.865524e-001 0.000000e+000
      outer loop
         vertex 4.319564e+000 4.198545e+000 6.814691e-001
         vertex 4.551215e+000 4.319427e+000 1.075170e+000
         vertex 4.319564e+000 4.198545e+000 1.075170e+000
      endloop
   endfacet
   facet normal 0.000000e+000 0.000000e+000 1.000000e+000
      outer loop
         vertex 4.204479e+000 4.280057e+000 6.814691e-001
         vertex 4.236254e+000 4.280057e+000 6.814691e-001
         vertex 4.234704e+000 4.358798e+000 6.814691e-001
      endloop
   endfacet
   facet normal 0.000000e+000 0.000000e+000 1.000000e+000
      outer loop
         vertex 4.234704e+000 4.358798e+000 6.814691e-001
         vertex 4.236254e+000 4.280057e+000 6.814691e-001
         vertex 4.314994e+000 4.358798e+000 6.814691e-001
      endloop
   endfacet
   facet normal 0.000000e+000 1.000000e+000 0.000000e+000
      outer loop
         vertex 4.264930e+000 4.437538e+000 5.633588e-001
         vertex 4.264930e+000 4.437538e+000 6.027289e-001
         vertex 4.461781e+000 4.437538e+000 5.633588e-001
      endloop
   endfacet
   facet normal 0.000000e+000 1.000000e+000 0.000000e+000
      outer loop
         vertex 4.461781e+000 4.437538e+000 5.633588e-001
         vertex 4.264930e+000 4.437538e+000 6.027289e-001
         vertex 5.121229e+000 4.437538e+000 6.027289e-001
      endloop
   endfacet
   facet normal 0.000000e+000 1.000000e+000 0.000000e+000
      outer loop
         vertex 4.461781e+000 4.437538e+000 5.633588e-001
         vertex 5.121229e+000 4.437538e+000 6.027289e-001
         vertex 4.461781e+000 4.437538e+000 5.043038e-001
      endloop
   endfacet
   facet normal 0.000000e+000 1.000000e+000 0.000000e+000
      outer loop
         vertex 4.461781e+000 4.437538e+000 5.043038e-001
         vertex 5.121229e+000 4.437538e+000 6.027289e-001
         vertex 5.121229e+000 4.437538e+000 5.043038e-001
      endloop
   endfacet
   facet normal 0.000000e+000 0.000000e+000 1.000000e+000
      outer loop
         vertex 4.629955e+000 4.311553e+000 6.814691e-001
         vertex 4.974443e+000 4.311553e+000 6.814691e-001
         vertex 4.992579e+000 4.358798e+000 6.814691e-001
      endloop
   endfacet
   facet normal 0.000000e+000 0.000000e+000 1.000000e+000
      outer loop
         vertex 4.320114e+000 4.013406e+000 6.814691e-001
         vertex 4.345659e+000 3.996337e+000 6.814691e-001
         vertex 4.629955e+000 4.311553e+000 6.814691e-001
      endloop
   endfacet
   facet normal 0.000000e+000 0.000000e+000 1.000000e+000
      outer loop
         vertex 4.629955e+000 4.311553e+000 6.814691e-001
         vertex 4.345659e+000 3.996337e+000 6.814691e-001
         vertex 4.362728e+000 3.970793e+000 6.814691e-001
      endloop
   endfacet
   facet normal 0.000000e+000 0.000000e+000 1.000000e+000
      outer loop
         vertex 4.345659e+000 3.884982e+000 6.814691e-001
         vertex 4.439221e+000 3.814676e+000 6.814691e-001
         vertex 4.362728e+000 3.910527e+000 6.814691e-001
      endloop
   endfacet
   facet normal 0.000000e+000 0.000000e+000 1.000000e+000
      outer loop
         vertex 4.362728e+000 3.910527e+000 6.814691e-001
         vertex 4.439221e+000 3.814676e+000 6.814691e-001
         vertex 4.629955e+000 4.311553e+000 6.814691e-001
      endloop
   endfacet
   facet normal 0.000000e+000 0.000000e+000 1.000000e+000
      outer loop
         vertex 4.362728e+000 3.910527e+000 6.814691e-001
         vertex 4.629955e+000 4.311553e+000 6.814691e-001
         vertex 4.368722e+000 3.940660e+000 6.814691e-001
      endloop
   endfacet
   facet normal 0.000000e+000 0.000000e+000 1.000000e+000
      outer loop
         vertex 4.368722e+000 3.940660e+000 6.814691e-001
         vertex 4.629955e+000 4.311553e+000 6.814691e-001
         vertex 4.362728e+000 3.970793e+000 6.814691e-001
      endloop
   endfacet
   facet normal 0.000000e+000 0.000000e+000 1.000000e+000
      outer loop
         vertex 4.345659e+000 3.884982e+000 6.814691e-001
         vertex 4.320114e+000 3.867913e+000 6.814691e-001
         vertex 4.439221e+000 3.814676e+000 6.814691e-001
      endloop
   endfacet
   facet normal 0.000000e+000 0.000000e+000 1.000000e+000
      outer loop
         vertex 4.439221e+000 3.814676e+000 6.814691e-001
         vertex 4.320114e+000 3.867913e+000 6.814691e-001
         vertex 4.289981e+000 3.861920e+000 6.814691e-001
      endloop
   endfacet
   facet normal 0.000000e+000 0.000000e+000 1.000000e+000
      outer loop
         vertex 4.439221e+000 3.814676e+000 6.814691e-001
         vertex 4.289981e+000 3.861920e+000 6.814691e-001
         vertex 4.140403e+000 3.814676e+000 6.814691e-001
      endloop
   endfacet
   facet normal 0.000000e+000 0.000000e+000 1.000000e+000
      outer loop
         vertex 4.551215e+000 4.319427e+000 6.814691e-001
         vertex 4.319564e+000 4.198545e+000 6.814691e-001
         vertex 4.315484e+000 4.184794e+000 6.814691e-001
      endloop
   endfacet
   facet normal 0.000000e+000 0.000000e+000 1.000000e+000
      outer loop
         vertex 4.234304e+000 3.996337e+000 6.814691e-001
         vertex 4.259849e+000 4.013406e+000 6.814691e-001
         vertex 4.300549e+000 4.162442e+000 6.814691e-001
      endloop
   endfacet
   facet normal 0.000000e+000 0.000000e+000 1.000000e+000
      outer loop
         vertex 4.300549e+000 4.162442e+000 6.814691e-001
         vertex 4.259849e+000 4.013406e+000 6.814691e-001
         vertex 4.289981e+000 4.019400e+000 6.814691e-001
      endloop
   endfacet
   facet normal 0.000000e+000 0.000000e+000 1.000000e+000
      outer loop
         vertex 4.300549e+000 4.162442e+000 6.814691e-001
         vertex 4.289981e+000 4.019400e+000 6.814691e-001
         vertex 4.315484e+000 4.184794e+000 6.814691e-001
      endloop
   endfacet
   facet normal 0.000000e+000 0.000000e+000 1.000000e+000
      outer loop
         vertex 4.315484e+000 4.184794e+000 6.814691e-001
         vertex 4.289981e+000 4.019400e+000 6.814691e-001
         vertex 4.320114e+000 4.013406e+000 6.814691e-001
      endloop
   endfacet
   facet normal 0.000000e+000 0.000000e+000 1.000000e+000
      outer loop
         vertex 4.315484e+000 4.184794e+000 6.814691e-001
         vertex 4.320114e+000 4.013406e+000 6.814691e-001
         vertex 4.551215e+000 4.319427e+000 6.814691e-001
      endloop
   endfacet
   facet normal 0.000000e+000 0.000000e+000 1.000000e+000
      outer loop
         vertex 4.551215e+000 4.319427e+000 6.814691e-001
         vertex 4.320114e+000 4.013406e+000 6.814691e-001
         vertex 4.629955e+000 4.311553e+000 6.814691e-001
      endloop
   endfacet
   facet normal 0.000000e+000 0.000000e+000 1.000000e+000
      outer loop
         vertex 4.551215e+000 4.319427e+000 6.814691e-001
         vertex 4.629955e+000 4.311553e+000 6.814691e-001
         vertex 4.551215e+000 4.358798e+000 6.814691e-001
      endloop
   endfacet
   facet normal 0.000000e+000 0.000000e+000 1.000000e+000
      outer loop
         vertex 4.551215e+000 4.358798e+000 6.814691e-001
         vertex 4.629955e+000 4.311553e+000 6.814691e-001
         vertex 4.992579e+000 4.358798e+000 6.814691e-001
      endloop
   endfacet
   facet normal 0.000000e+000 0.000000e+000 1.000000e+000
      outer loop
         vertex 4.234304e+000 3.996337e+000 6.814691e-001
         vertex 4.300549e+000 4.162442e+000 6.814691e-001
         vertex 4.217235e+000 3.970793e+000 6.814691e-001
      endloop
   endfacet
   facet normal 0.000000e+000 0.000000e+000 1.000000e+000
      outer loop
         vertex 4.217235e+000 3.970793e+000 6.814691e-001
         vertex 4.300549e+000 4.162442e+000 6.814691e-001
         vertex 4.278197e+000 4.147507e+000 6.814691e-001
      endloop
   endfacet
   facet normal 0.000000e+000 0.000000e+000 1.000000e+000
      outer loop
         vertex 4.217235e+000 3.970793e+000 6.814691e-001
         vertex 4.278197e+000 4.147507e+000 6.814691e-001
         vertex 4.251831e+000 4.142262e+000 6.814691e-001
      endloop
   endfacet
   facet normal 0.000000e+000 0.000000e+000 1.000000e+000
      outer loop
         vertex 4.289981e+000 3.861920e+000 6.814691e-001
         vertex 4.259849e+000 3.867913e+000 6.814691e-001
         vertex 4.140403e+000 3.814676e+000 6.814691e-001
      endloop
   endfacet
   facet normal 0.000000e+000 0.000000e+000 1.000000e+000
      outer loop
         vertex 4.140403e+000 3.814676e+000 6.814691e-001
         vertex 4.259849e+000 3.867913e+000 6.814691e-001
         vertex 4.234304e+000 3.884982e+000 6.814691e-001
      endloop
   endfacet
   facet normal 0.000000e+000 0.000000e+000 1.000000e+000
      outer loop
         vertex 4.140403e+000 3.814676e+000 6.814691e-001
         vertex 4.234304e+000 3.884982e+000 6.814691e-001
         vertex 4.110652e+000 3.820513e+000 6.814691e-001
      endloop
   endfacet
   facet normal 0.000000e+000 0.000000e+000 1.000000e+000
      outer loop
         vertex 4.110652e+000 3.820513e+000 6.814691e-001
         vertex 4.234304e+000 3.884982e+000 6.814691e-001
         vertex 4.217235e+000 3.910527e+000 6.814691e-001
      endloop
   endfacet
   facet normal 0.000000e+000 0.000000e+000 1.000000e+000
      outer loop
         vertex 4.110652e+000 3.820513e+000 6.814691e-001
         vertex 4.217235e+000 3.910527e+000 6.814691e-001
         vertex 4.085312e+000 3.837158e+000 6.814691e-001
      endloop
   endfacet
   facet normal 0.000000e+000 0.000000e+000 1.000000e+000
      outer loop
         vertex 4.251831e+000 4.142262e+000 6.814691e-001
         vertex 4.151585e+000 4.142262e+000 6.814691e-001
         vertex 4.217235e+000 3.970793e+000 6.814691e-001
      endloop
   endfacet
   facet normal 0.000000e+000 0.000000e+000 1.000000e+000
      outer loop
         vertex 4.217235e+000 3.970793e+000 6.814691e-001
         vertex 4.151585e+000 4.142262e+000 6.814691e-001
         vertex 4.066893e+000 3.921634e+000 6.814691e-001
      endloop
   endfacet
   facet normal 0.000000e+000 0.000000e+000 1.000000e+000
      outer loop
         vertex 4.217235e+000 3.970793e+000 6.814691e-001
         vertex 4.066893e+000 3.921634e+000 6.814691e-001
         vertex 4.211242e+000 3.940660e+000 6.814691e-001
      endloop
   endfacet
   facet normal 0.000000e+000 0.000000e+000 1.000000e+000
      outer loop
         vertex 4.211242e+000 3.940660e+000 6.814691e-001
         vertex 4.066893e+000 3.921634e+000 6.814691e-001
         vertex 4.061680e+000 3.891767e+000 6.814691e-001
      endloop
   endfacet
   facet normal 0.000000e+000 0.000000e+000 1.000000e+000
      outer loop
         vertex 4.211242e+000 3.940660e+000 6.814691e-001
         vertex 4.061680e+000 3.891767e+000 6.814691e-001
         vertex 4.217235e+000 3.910527e+000 6.814691e-001
      endloop
   endfacet
   facet normal 0.000000e+000 0.000000e+000 1.000000e+000
      outer loop
         vertex 4.217235e+000 3.910527e+000 6.814691e-001
         vertex 4.061680e+000 3.891767e+000 6.814691e-001
         vertex 4.068139e+000 3.862144e+000 6.814691e-001
      endloop
   endfacet
   facet normal 0.000000e+000 0.000000e+000 1.000000e+000
      outer loop
         vertex 4.217235e+000 3.910527e+000 6.814691e-001
         vertex 4.068139e+000 3.862144e+000 6.814691e-001
         vertex 4.085312e+000 3.837158e+000 6.814691e-001
      endloop
   endfacet
   facet normal 0.000000e+000 -1.000000e+000 0.000000e+000
      outer loop
         vertex 4.629955e+000 4.311553e+000 5.633588e-001
         vertex 4.461781e+000 4.311553e+000 5.633588e-001
         vertex 4.461781e+000 4.311553e+000 5.043038e-001
      endloop
   endfacet
   facet normal 0.000000e+000 -1.000000e+000 0.000000e+000
      outer loop
         vertex 5.072869e+000 4.311553e+000 5.043038e-001
         vertex 5.072869e+000 4.311553e+000 6.224139e-001
         vertex 4.974443e+000 4.311553e+000 6.224139e-001
      endloop
   endfacet
   facet normal 0.000000e+000 -1.000000e+000 0.000000e+000
      outer loop
         vertex 4.974443e+000 4.311553e+000 6.814691e-001
         vertex 4.629955e+000 4.311553e+000 6.814691e-001
         vertex 4.974443e+000 4.311553e+000 6.224139e-001
      endloop
   endfacet
   facet normal 0.000000e+000 -1.000000e+000 0.000000e+000
      outer loop
         vertex 4.974443e+000 4.311553e+000 6.224139e-001
         vertex 4.629955e+000 4.311553e+000 6.814691e-001
         vertex 4.629955e+000 4.311553e+000 5.633588e-001
      endloop
   endfacet
   facet normal 0.000000e+000 -1.000000e+000 0.000000e+000
      outer loop
         vertex 4.974443e+000 4.311553e+000 6.224139e-001
         vertex 4.629955e+000 4.311553e+000 5.633588e-001
         vertex 5.072869e+000 4.311553e+000 5.043038e-001
      endloop
   endfacet
   facet normal 0.000000e+000 -1.000000e+000 0.000000e+000
      outer loop
         vertex 5.072869e+000 4.311553e+000 5.043038e-001
         vertex 4.629955e+000 4.311553e+000 5.633588e-001
         vertex 4.461781e+000 4.311553e+000 5.043038e-001
      endloop
   endfacet
   facet normal -1.280744e-001 -9.917645e-001 0.000000e+000
      outer loop
         vertex 4.140403e+000 3.814676e+000 5.633588e-001
         vertex 4.140403e+000 3.814676e+000 6.814691e-001
         vertex 4.110652e+000 3.820513e+000 6.814691e-001
      endloop
   endfacet
   facet normal -2.561488e-001 -9.666374e-001 0.000000e+000
      outer loop
         vertex 4.140403e+000 3.814676e+000 5.633588e-001
         vertex 4.110652e+000 3.820513e+000 6.814691e-001
         vertex 4.110652e+000 3.820513e+000 5.633588e-001
      endloop
   endfacet
   facet normal -4.933094e-001 -8.698539e-001 0.000000e+000
      outer loop
         vertex 4.110652e+000 3.820513e+000 5.633588e-001
         vertex 4.110652e+000 3.820513e+000 6.814691e-001
         vertex 4.085312e+000 3.837158e+000 6.814691e-001
      endloop
   endfacet
   facet normal -6.023957e-001 -7.981976e-001 0.000000e+000
      outer loop
         vertex 4.110652e+000 3.820513e+000 5.633588e-001
         vertex 4.085312e+000 3.837158e+000 6.814691e-001
         vertex 4.085312e+000 3.837158e+000 5.633588e-001
      endloop
   endfacet
   facet normal -7.854070e-001 -6.189797e-001 0.000000e+000
      outer loop
         vertex 4.085312e+000 3.837158e+000 5.633588e-001
         vertex 4.085312e+000 3.837158e+000 6.814691e-001
         vertex 4.068139e+000 3.862144e+000 6.814691e-001
      endloop
   endfacet
   facet normal -8.593320e-001 -5.114181e-001 0.000000e+000
      outer loop
         vertex 4.085312e+000 3.837158e+000 5.633588e-001
         vertex 4.068139e+000 3.862144e+000 6.814691e-001
         vertex 4.068139e+000 3.862144e+000 5.633588e-001
      endloop
   endfacet
   facet normal -9.610610e-001 -2.763363e-001 0.000000e+000
      outer loop
         vertex 4.068139e+000 3.862144e+000 5.633588e-001
         vertex 4.068139e+000 3.862144e+000 6.814691e-001
         vertex 4.061680e+000 3.891767e+000 6.814691e-001
      endloop
   endfacet
   facet normal -9.888648e-001 -1.488163e-001 0.000000e+000
      outer loop
         vertex 4.068139e+000 3.862144e+000 5.633588e-001
         vertex 4.061680e+000 3.891767e+000 6.814691e-001
         vertex 4.061680e+000 3.891767e+000 5.633588e-001
      endloop
   endfacet
   facet normal -9.942293e-001 1.072764e-001 0.000000e+000
      outer loop
         vertex 4.061680e+000 3.891767e+000 5.633588e-001
         vertex 4.061680e+000 3.891767e+000 6.814691e-001
         vertex 4.066893e+000 3.921634e+000 6.814691e-001
      endloop
   endfacet
   facet normal -9.717897e-001 2.358489e-001 0.000000e+000
      outer loop
         vertex 4.061680e+000 3.891767e+000 5.633588e-001
         vertex 4.066893e+000 3.921634e+000 6.814691e-001
         vertex 4.066893e+000 3.921634e+000 5.633588e-001
      endloop
   endfacet
   facet normal 1.714158e-016 -1.000000e+000 0.000000e+000
      outer loop
         vertex 4.140403e+000 3.814676e+000 5.633588e-001
         vertex 4.439221e+000 3.814676e+000 5.633588e-001
         vertex 4.140403e+000 3.814676e+000 6.814691e-001
      endloop
   endfacet
   facet normal 1.714158e-016 -1.000000e+000 0.000000e+000
      outer loop
         vertex 4.140403e+000 3.814676e+000 6.814691e-001
         vertex 4.439221e+000 3.814676e+000 5.633588e-001
         vertex 4.439221e+000 3.814676e+000 6.814691e-001
      endloop
   endfacet
   facet normal 9.335804e-001 -3.583680e-001 0.000000e+000
      outer loop
         vertex 4.439221e+000 3.814676e+000 5.633588e-001
         vertex 4.629955e+000 4.311553e+000 5.633588e-001
         vertex 4.439221e+000 3.814676e+000 6.814691e-001
      endloop
   endfacet
   facet normal 9.335804e-001 -3.583680e-001 0.000000e+000
      outer loop
         vertex 4.439221e+000 3.814676e+000 6.814691e-001
         vertex 4.629955e+000 4.311553e+000 5.633588e-001
         vertex 4.629955e+000 4.311553e+000 6.814691e-001
      endloop
   endfacet
   facet normal -9.335804e-001 3.583680e-001 0.000000e+000
      outer loop
         vertex 4.264930e+000 4.437538e+000 6.027289e-001
         vertex 4.264930e+000 4.437538e+000 5.633588e-001
         vertex 4.234704e+000 4.358798e+000 6.814691e-001
      endloop
   endfacet
   facet normal -9.335804e-001 3.583680e-001 0.000000e+000
      outer loop
         vertex 4.234704e+000 4.358798e+000 6.814691e-001
         vertex 4.264930e+000 4.437538e+000 5.633588e-001
         vertex 4.204479e+000 4.280057e+000 5.633588e-001
      endloop
   endfacet
   facet normal -9.335804e-001 3.583680e-001 0.000000e+000
      outer loop
         vertex 4.234704e+000 4.358798e+000 6.814691e-001
         vertex 4.204479e+000 4.280057e+000 5.633588e-001
         vertex 4.204479e+000 4.280057e+000 6.814691e-001
      endloop
   endfacet
   facet normal -3.406407e-016 1.000000e+000 0.000000e+000
      outer loop
         vertex 4.251831e+000 4.142262e+000 5.633588e-001
         vertex 4.151585e+000 4.142262e+000 5.633588e-001
         vertex 4.251831e+000 4.142262e+000 6.814691e-001
      endloop
   endfacet
   facet normal -3.406407e-016 1.000000e+000 0.000000e+000
      outer loop
         vertex 4.251831e+000 4.142262e+000 6.814691e-001
         vertex 4.151585e+000 4.142262e+000 5.633588e-001
         vertex 4.151585e+000 4.142262e+000 6.814691e-001
      endloop
   endfacet
   facet normal -9.335804e-001 3.583680e-001 0.000000e+000
      outer loop
         vertex 4.151585e+000 4.142262e+000 5.633588e-001
         vertex 4.066893e+000 3.921634e+000 5.633588e-001
         vertex 4.151585e+000 4.142262e+000 6.814691e-001
      endloop
   endfacet
   facet normal -9.335804e-001 3.583680e-001 0.000000e+000
      outer loop
         vertex 4.151585e+000 4.142262e+000 6.814691e-001
         vertex 4.066893e+000 3.921634e+000 5.633588e-001
         vertex 4.066893e+000 3.921634e+000 6.814691e-001
      endloop
   endfacet
   facet normal 9.915434e-001 -1.297753e-001 0.000000e+000
      outer loop
         vertex 4.217235e+000 3.970793e+000 5.633588e-001
         vertex 4.211242e+000 3.940660e+000 6.814691e-001
         vertex 4.211242e+000 3.940660e+000 5.633588e-001
      endloop
   endfacet
   facet normal 9.915434e-001 1.297753e-001 0.000000e+000
      outer loop
         vertex 4.211242e+000 3.940660e+000 5.633588e-001
         vertex 4.211242e+000 3.940660e+000 6.814691e-001
         vertex 4.217235e+000 3.910527e+000 6.814691e-001
      endloop
   endfacet
   facet normal 9.657295e-001 2.595505e-001 0.000000e+000
      outer loop
         vertex 4.211242e+000 3.940660e+000 5.633588e-001
         vertex 4.217235e+000 3.910527e+000 6.814691e-001
         vertex 4.217235e+000 3.910527e+000 5.633588e-001
      endloop
   endfacet
   facet normal 8.664038e-001 4.993440e-001 0.000000e+000
      outer loop
         vertex 4.217235e+000 3.910527e+000 5.633588e-001
         vertex 4.217235e+000 3.910527e+000 6.814691e-001
         vertex 4.234304e+000 3.884982e+000 6.814691e-001
      endloop
   endfacet
   facet normal 7.928920e-001 6.093621e-001 0.000000e+000
      outer loop
         vertex 4.217235e+000 3.910527e+000 5.633588e-001
         vertex 4.234304e+000 3.884982e+000 6.814691e-001
         vertex 4.234304e+000 3.884982e+000 5.633588e-001
      endloop
   endfacet
   facet normal 6.093621e-001 7.928920e-001 0.000000e+000
      outer loop
         vertex 4.234304e+000 3.884982e+000 5.633588e-001
         vertex 4.234304e+000 3.884982e+000 6.814691e-001
         vertex 4.259849e+000 3.867913e+000 6.814691e-001
      endloop
   endfacet
   facet normal 4.993440e-001 8.664038e-001 0.000000e+000
      outer loop
         vertex 4.234304e+000 3.884982e+000 5.633588e-001
         vertex 4.259849e+000 3.867913e+000 6.814691e-001
         vertex 4.259849e+000 3.867913e+000 5.633588e-001
      endloop
   endfacet
   facet normal 2.595505e-001 9.657295e-001 0.000000e+000
      outer loop
         vertex 4.259849e+000 3.867913e+000 5.633588e-001
         vertex 4.259849e+000 3.867913e+000 6.814691e-001
         vertex 4.289981e+000 3.861920e+000 6.814691e-001
      endloop
   endfacet
   facet normal 1.297753e-001 9.915434e-001 0.000000e+000
      outer loop
         vertex 4.259849e+000 3.867913e+000 5.633588e-001
         vertex 4.289981e+000 3.861920e+000 6.814691e-001
         vertex 4.289981e+000 3.861920e+000 5.633588e-001
      endloop
   endfacet
   facet normal -1.297753e-001 9.915434e-001 0.000000e+000
      outer loop
         vertex 4.289981e+000 3.861920e+000 5.633588e-001
         vertex 4.289981e+000 3.861920e+000 6.814691e-001
         vertex 4.320114e+000 3.867913e+000 6.814691e-001
      endloop
   endfacet
   facet normal -2.595505e-001 9.657295e-001 0.000000e+000
      outer loop
         vertex 4.289981e+000 3.861920e+000 5.633588e-001
         vertex 4.320114e+000 3.867913e+000 6.814691e-001
         vertex 4.320114e+000 3.867913e+000 5.633588e-001
      endloop
   endfacet
   facet normal -4.993440e-001 8.664038e-001 0.000000e+000
      outer loop
         vertex 4.320114e+000 3.867913e+000 5.633588e-001
         vertex 4.320114e+000 3.867913e+000 6.814691e-001
         vertex 4.345659e+000 3.884982e+000 6.814691e-001
      endloop
   endfacet
   facet normal -6.093621e-001 7.928920e-001 0.000000e+000
      outer loop
         vertex 4.320114e+000 3.867913e+000 5.633588e-001
         vertex 4.345659e+000 3.884982e+000 6.814691e-001
         vertex 4.345659e+000 3.884982e+000 5.633588e-001
      endloop
   endfacet
   facet normal -7.928920e-001 6.093621e-001 0.000000e+000
      outer loop
         vertex 4.345659e+000 3.884982e+000 5.633588e-001
         vertex 4.345659e+000 3.884982e+000 6.814691e-001
         vertex 4.362728e+000 3.910527e+000 6.814691e-001
      endloop
   endfacet
   facet normal -8.664038e-001 4.993440e-001 0.000000e+000
      outer loop
         vertex 4.345659e+000 3.884982e+000 5.633588e-001
         vertex 4.362728e+000 3.910527e+000 6.814691e-001
         vertex 4.362728e+000 3.910527e+000 5.633588e-001
      endloop
   endfacet
   facet normal -9.657295e-001 2.595505e-001 0.000000e+000
      outer loop
         vertex 4.362728e+000 3.910527e+000 5.633588e-001
         vertex 4.362728e+000 3.910527e+000 6.814691e-001
         vertex 4.368722e+000 3.940660e+000 6.814691e-001
      endloop
   endfacet
   facet normal -9.915434e-001 1.297753e-001 0.000000e+000
      outer loop
         vertex 4.362728e+000 3.910527e+000 5.633588e-001
         vertex 4.368722e+000 3.940660e+000 6.814691e-001
         vertex 4.368722e+000 3.940660e+000 5.633588e-001
      endloop
   endfacet
   facet normal -9.915434e-001 -1.297753e-001 0.000000e+000
      outer loop
         vertex 4.368722e+000 3.940660e+000 5.633588e-001
         vertex 4.368722e+000 3.940660e+000 6.814691e-001
         vertex 4.362728e+000 3.970793e+000 6.814691e-001
      endloop
   endfacet
   facet normal -9.657295e-001 -2.595505e-001 0.000000e+000
      outer loop
         vertex 4.368722e+000 3.940660e+000 5.633588e-001
         vertex 4.362728e+000 3.970793e+000 6.814691e-001
         vertex 4.362728e+000 3.970793e+000 5.633588e-001
      endloop
   endfacet
   facet normal -8.664038e-001 -4.993440e-001 0.000000e+000
      outer loop
         vertex 4.362728e+000 3.970793e+000 5.633588e-001
         vertex 4.362728e+000 3.970793e+000 6.814691e-001
         vertex 4.345659e+000 3.996337e+000 6.814691e-001
      endloop
   endfacet
   facet normal -7.928920e-001 -6.093621e-001 0.000000e+000
      outer loop
         vertex 4.362728e+000 3.970793e+000 5.633588e-001
         vertex 4.345659e+000 3.996337e+000 6.814691e-001
         vertex 4.345659e+000 3.996337e+000 5.633588e-001
      endloop
   endfacet
   facet normal -6.093621e-001 -7.928920e-001 0.000000e+000
      outer loop
         vertex 4.345659e+000 3.996337e+000 5.633588e-001
         vertex 4.345659e+000 3.996337e+000 6.814691e-001
         vertex 4.320114e+000 4.013406e+000 6.814691e-001
      endloop
   endfacet
   facet normal -4.993440e-001 -8.664038e-001 0.000000e+000
      outer loop
         vertex 4.345659e+000 3.996337e+000 5.633588e-001
         vertex 4.320114e+000 4.013406e+000 6.814691e-001
         vertex 4.320114e+000 4.013406e+000 5.633588e-001
      endloop
   endfacet
   facet normal -2.595505e-001 -9.657295e-001 0.000000e+000
      outer loop
         vertex 4.320114e+000 4.013406e+000 5.633588e-001
         vertex 4.320114e+000 4.013406e+000 6.814691e-001
         vertex 4.289981e+000 4.019400e+000 6.814691e-001
      endloop
   endfacet
   facet normal -1.297753e-001 -9.915434e-001 0.000000e+000
      outer loop
         vertex 4.320114e+000 4.013406e+000 5.633588e-001
         vertex 4.289981e+000 4.019400e+000 6.814691e-001
         vertex 4.289981e+000 4.019400e+000 5.633588e-001
      endloop
   endfacet
   facet normal 1.297753e-001 -9.915434e-001 0.000000e+000
      outer loop
         vertex 4.289981e+000 4.019400e+000 5.633588e-001
         vertex 4.289981e+000 4.019400e+000 6.814691e-001
         vertex 4.259849e+000 4.013406e+000 6.814691e-001
      endloop
   endfacet
   facet normal 2.595505e-001 -9.657295e-001 0.000000e+000
      outer loop
         vertex 4.289981e+000 4.019400e+000 5.633588e-001
         vertex 4.259849e+000 4.013406e+000 6.814691e-001
         vertex 4.259849e+000 4.013406e+000 5.633588e-001
      endloop
   endfacet
   facet normal 4.993440e-001 -8.664038e-001 0.000000e+000
      outer loop
         vertex 4.259849e+000 4.013406e+000 5.633588e-001
         vertex 4.259849e+000 4.013406e+000 6.814691e-001
         vertex 4.234304e+000 3.996337e+000 6.814691e-001
      endloop
   endfacet
   facet normal 6.093621e-001 -7.928920e-001 0.000000e+000
      outer loop
         vertex 4.259849e+000 4.013406e+000 5.633588e-001
         vertex 4.234304e+000 3.996337e+000 6.814691e-001
         vertex 4.234304e+000 3.996337e+000 5.633588e-001
      endloop
   endfacet
   facet normal 7.928920e-001 -6.093621e-001 0.000000e+000
      outer loop
         vertex 4.234304e+000 3.996337e+000 5.633588e-001
         vertex 4.234304e+000 3.996337e+000 6.814691e-001
         vertex 4.217235e+000 3.970793e+000 6.814691e-001
      endloop
   endfacet
   facet normal 8.664038e-001 -4.993440e-001 0.000000e+000
      outer loop
         vertex 4.234304e+000 3.996337e+000 5.633588e-001
         vertex 4.217235e+000 3.970793e+000 6.814691e-001
         vertex 4.217235e+000 3.970793e+000 5.633588e-001
      endloop
   endfacet
   facet normal 9.657295e-001 -2.595505e-001 0.000000e+000
      outer loop
         vertex 4.217235e+000 3.970793e+000 5.633588e-001
         vertex 4.217235e+000 3.970793e+000 6.814691e-001
         vertex 4.211242e+000 3.940660e+000 6.814691e-001
      endloop
   endfacet
   facet normal 0.000000e+000 0.000000e+000 -1.000000e+000
      outer loop
         vertex 4.362728e+000 3.970793e+000 5.633588e-001
         vertex 4.345659e+000 3.996337e+000 5.633588e-001
         vertex 4.461781e+000 4.311553e+000 5.633588e-001
      endloop
   endfacet
   facet normal 0.000000e+000 0.000000e+000 -1.000000e+000
      outer loop
         vertex 4.362728e+000 3.970793e+000 5.633588e-001
         vertex 4.461781e+000 4.311553e+000 5.633588e-001
         vertex 4.368722e+000 3.940660e+000 5.633588e-001
      endloop
   endfacet
   facet normal 0.000000e+000 0.000000e+000 -1.000000e+000
      outer loop
         vertex 4.439221e+000 3.814676e+000 5.633588e-001
         vertex 4.345659e+000 3.884982e+000 5.633588e-001
         vertex 4.362728e+000 3.910527e+000 5.633588e-001
      endloop
   endfacet
   facet normal 0.000000e+000 0.000000e+000 -1.000000e+000
      outer loop
         vertex 4.320114e+000 4.013406e+000 5.633588e-001
         vertex 4.289981e+000 4.019400e+000 5.633588e-001
         vertex 4.300549e+000 4.162442e+000 5.633588e-001
      endloop
   endfacet
   facet normal 0.000000e+000 0.000000e+000 -1.000000e+000
      outer loop
         vertex 4.368722e+000 3.940660e+000 5.633588e-001
         vertex 4.461781e+000 4.311553e+000 5.633588e-001
         vertex 4.362728e+000 3.910527e+000 5.633588e-001
      endloop
   endfacet
   facet normal 0.000000e+000 0.000000e+000 -1.000000e+000
      outer loop
         vertex 4.362728e+000 3.910527e+000 5.633588e-001
         vertex 4.461781e+000 4.311553e+000 5.633588e-001
         vertex 4.629955e+000 4.311553e+000 5.633588e-001
      endloop
   endfacet
   facet normal 0.000000e+000 0.000000e+000 -1.000000e+000
      outer loop
         vertex 4.362728e+000 3.910527e+000 5.633588e-001
         vertex 4.629955e+000 4.311553e+000 5.633588e-001
         vertex 4.439221e+000 3.814676e+000 5.633588e-001
      endloop
   endfacet
   facet normal 0.000000e+000 0.000000e+000 -1.000000e+000
      outer loop
         vertex 4.300549e+000 4.162442e+000 5.633588e-001
         vertex 4.289981e+000 4.019400e+000 5.633588e-001
         vertex 4.278197e+000 4.147507e+000 5.633588e-001
      endloop
   endfacet
   facet normal 0.000000e+000 0.000000e+000 -1.000000e+000
      outer loop
         vertex 4.066893e+000 3.921634e+000 5.633588e-001
         vertex 4.211242e+000 3.940660e+000 5.633588e-001
         vertex 4.061680e+000 3.891767e+000 5.633588e-001
      endloop
   endfacet
   facet normal 0.000000e+000 0.000000e+000 -1.000000e+000
      outer loop
         vertex 4.061680e+000 3.891767e+000 5.633588e-001
         vertex 4.211242e+000 3.940660e+000 5.633588e-001
         vertex 4.217235e+000 3.910527e+000 5.633588e-001
      endloop
   endfacet
   facet normal 0.000000e+000 0.000000e+000 -1.000000e+000
      outer loop
         vertex 4.061680e+000 3.891767e+000 5.633588e-001
         vertex 4.217235e+000 3.910527e+000 5.633588e-001
         vertex 4.068139e+000 3.862144e+000 5.633588e-001
      endloop
   endfacet
   facet normal 0.000000e+000 0.000000e+000 -1.000000e+000
      outer loop
         vertex 4.068139e+000 3.862144e+000 5.633588e-001
         vertex 4.217235e+000 3.910527e+000 5.633588e-001
         vertex 4.085312e+000 3.837158e+000 5.633588e-001
      endloop
   endfacet
   facet normal 0.000000e+000 0.000000e+000 -1.000000e+000
      outer loop
         vertex 4.234304e+000 3.884982e+000 5.633588e-001
         vertex 4.259849e+000 3.867913e+000 5.633588e-001
         vertex 4.140403e+000 3.814676e+000 5.633588e-001
      endloop
   endfacet
   facet normal 0.000000e+000 0.000000e+000 -1.000000e+000
      outer loop
         vertex 4.140403e+000 3.814676e+000 5.633588e-001
         vertex 4.259849e+000 3.867913e+000 5.633588e-001
         vertex 4.289981e+000 3.861920e+000 5.633588e-001
      endloop
   endfacet
   facet normal 0.000000e+000 0.000000e+000 -1.000000e+000
      outer loop
         vertex 4.140403e+000 3.814676e+000 5.633588e-001
         vertex 4.289981e+000 3.861920e+000 5.633588e-001
         vertex 4.439221e+000 3.814676e+000 5.633588e-001
      endloop
   endfacet
   facet normal 0.000000e+000 0.000000e+000 -1.000000e+000
      outer loop
         vertex 4.439221e+000 3.814676e+000 5.633588e-001
         vertex 4.289981e+000 3.861920e+000 5.633588e-001
         vertex 4.320114e+000 3.867913e+000 5.633588e-001
      endloop
   endfacet
   facet normal 0.000000e+000 0.000000e+000 -1.000000e+000
      outer loop
         vertex 4.439221e+000 3.814676e+000 5.633588e-001
         vertex 4.320114e+000 3.867913e+000 5.633588e-001
         vertex 4.345659e+000 3.884982e+000 5.633588e-001
      endloop
   endfacet
   facet normal 0.000000e+000 0.000000e+000 -1.000000e+000
      outer loop
         vertex 4.320114e+000 4.013406e+000 5.633588e-001
         vertex 4.300549e+000 4.162442e+000 5.633588e-001
         vertex 4.345659e+000 3.996337e+000 5.633588e-001
      endloop
   endfacet
   facet normal 0.000000e+000 0.000000e+000 -1.000000e+000
      outer loop
         vertex 4.345659e+000 3.996337e+000 5.633588e-001
         vertex 4.300549e+000 4.162442e+000 5.633588e-001
         vertex 4.315484e+000 4.184794e+000 5.633588e-001
      endloop
   endfacet
   facet normal 0.000000e+000 0.000000e+000 -1.000000e+000
      outer loop
         vertex 4.345659e+000 3.996337e+000 5.633588e-001
         vertex 4.315484e+000 4.184794e+000 5.633588e-001
         vertex 4.461781e+000 4.311553e+000 5.633588e-001
      endloop
   endfacet
   facet normal 0.000000e+000 0.000000e+000 -1.000000e+000
      outer loop
         vertex 4.315484e+000 4.184794e+000 5.633588e-001
         vertex 4.320729e+000 4.211160e+000 5.633588e-001
         vertex 4.461781e+000 4.311553e+000 5.633588e-001
      endloop
   endfacet
   facet normal 0.000000e+000 0.000000e+000 -1.000000e+000
      outer loop
         vertex 4.461781e+000 4.311553e+000 5.633588e-001
         vertex 4.320729e+000 4.211160e+000 5.633588e-001
         vertex 4.315484e+000 4.237526e+000 5.633588e-001
      endloop
   endfacet
   facet normal 0.000000e+000 0.000000e+000 -1.000000e+000
      outer loop
         vertex 4.461781e+000 4.311553e+000 5.633588e-001
         vertex 4.315484e+000 4.237526e+000 5.633588e-001
         vertex 4.461781e+000 4.437538e+000 5.633588e-001
      endloop
   endfacet
   facet normal 0.000000e+000 0.000000e+000 -1.000000e+000
      outer loop
         vertex 4.315484e+000 4.237526e+000 5.633588e-001
         vertex 4.300549e+000 4.259878e+000 5.633588e-001
         vertex 4.461781e+000 4.437538e+000 5.633588e-001
      endloop
   endfacet
   facet normal 0.000000e+000 0.000000e+000 -1.000000e+000
      outer loop
         vertex 4.461781e+000 4.437538e+000 5.633588e-001
         vertex 4.300549e+000 4.259878e+000 5.633588e-001
         vertex 4.278197e+000 4.274813e+000 5.633588e-001
      endloop
   endfacet
   facet normal 0.000000e+000 0.000000e+000 -1.000000e+000
      outer loop
         vertex 4.461781e+000 4.437538e+000 5.633588e-001
         vertex 4.278197e+000 4.274813e+000 5.633588e-001
         vertex 4.264930e+000 4.437538e+000 5.633588e-001
      endloop
   endfacet
   facet normal 0.000000e+000 0.000000e+000 -1.000000e+000
      outer loop
         vertex 4.264930e+000 4.437538e+000 5.633588e-001
         vertex 4.278197e+000 4.274813e+000 5.633588e-001
         vertex 4.251831e+000 4.280057e+000 5.633588e-001
      endloop
   endfacet
   facet normal 0.000000e+000 0.000000e+000 -1.000000e+000
      outer loop
         vertex 4.264930e+000 4.437538e+000 5.633588e-001
         vertex 4.251831e+000 4.280057e+000 5.633588e-001
         vertex 4.204479e+000 4.280057e+000 5.633588e-001
      endloop
   endfacet
   facet normal 0.000000e+000 0.000000e+000 -1.000000e+000
      outer loop
         vertex 4.234304e+000 3.884982e+000 5.633588e-001
         vertex 4.140403e+000 3.814676e+000 5.633588e-001
         vertex 4.217235e+000 3.910527e+000 5.633588e-001
      endloop
   endfacet
   facet normal 0.000000e+000 0.000000e+000 -1.000000e+000
      outer loop
         vertex 4.217235e+000 3.910527e+000 5.633588e-001
         vertex 4.140403e+000 3.814676e+000 5.633588e-001
         vertex 4.110652e+000 3.820513e+000 5.633588e-001
      endloop
   endfacet
   facet normal 0.000000e+000 0.000000e+000 -1.000000e+000
      outer loop
         vertex 4.217235e+000 3.910527e+000 5.633588e-001
         vertex 4.110652e+000 3.820513e+000 5.633588e-001
         vertex 4.085312e+000 3.837158e+000 5.633588e-001
      endloop
   endfacet
   facet normal 0.000000e+000 0.000000e+000 -1.000000e+000
      outer loop
         vertex 4.278197e+000 4.147507e+000 5.633588e-001
         vertex 4.289981e+000 4.019400e+000 5.633588e-001
         vertex 4.251831e+000 4.142262e+000 5.633588e-001
      endloop
   endfacet
   facet normal 0.000000e+000 0.000000e+000 -1.000000e+000
      outer loop
         vertex 4.251831e+000 4.142262e+000 5.633588e-001
         vertex 4.289981e+000 4.019400e+000 5.633588e-001
         vertex 4.259849e+000 4.013406e+000 5.633588e-001
      endloop
   endfacet
   facet normal 0.000000e+000 0.000000e+000 -1.000000e+000
      outer loop
         vertex 4.251831e+000 4.142262e+000 5.633588e-001
         vertex 4.259849e+000 4.013406e+000 5.633588e-001
         vertex 4.151585e+000 4.142262e+000 5.633588e-001
      endloop
   endfacet
   facet normal 0.000000e+000 0.000000e+000 -1.000000e+000
      outer loop
         vertex 4.151585e+000 4.142262e+000 5.633588e-001
         vertex 4.259849e+000 4.013406e+000 5.633588e-001
         vertex 4.234304e+000 3.996337e+000 5.633588e-001
      endloop
   endfacet
   facet normal 0.000000e+000 0.000000e+000 -1.000000e+000
      outer loop
         vertex 4.151585e+000 4.142262e+000 5.633588e-001
         vertex 4.234304e+000 3.996337e+000 5.633588e-001
         vertex 4.066893e+000 3.921634e+000 5.633588e-001
      endloop
   endfacet
   facet normal 0.000000e+000 0.000000e+000 -1.000000e+000
      outer loop
         vertex 4.066893e+000 3.921634e+000 5.633588e-001
         vertex 4.234304e+000 3.996337e+000 5.633588e-001
         vertex 4.217235e+000 3.970793e+000 5.633588e-001
      endloop
   endfacet
   facet normal 0.000000e+000 0.000000e+000 -1.000000e+000
      outer loop
         vertex 4.066893e+000 3.921634e+000 5.633588e-001
         vertex 4.217235e+000 3.970793e+000 5.633588e-001
         vertex 4.211242e+000 3.940660e+000 5.633588e-001
      endloop
   endfacet
   facet normal 9.335804e-001 -3.583680e-001 0.000000e+000
      outer loop
         vertex 5.121229e+000 4.437538e+000 5.043038e-001
         vertex 5.121229e+000 4.437538e+000 6.027289e-001
         vertex 5.072869e+000 4.311553e+000 5.043038e-001
      endloop
   endfacet
   facet normal 9.335804e-001 -3.583680e-001 0.000000e+000
      outer loop
         vertex 5.072869e+000 4.311553e+000 5.043038e-001
         vertex 5.121229e+000 4.437538e+000 6.027289e-001
         vertex 5.113673e+000 4.417853e+000 6.224139e-001
      endloop
   endfacet
   facet normal 9.335804e-001 -3.583680e-001 0.000000e+000
      outer loop
         vertex 5.072869e+000 4.311553e+000 5.043038e-001
         vertex 5.113673e+000 4.417853e+000 6.224139e-001
         vertex 5.072869e+000 4.311553e+000 6.224139e-001
      endloop
   endfacet
   facet normal -1.000000e+000 0.000000e+000 0.000000e+000
      outer loop
         vertex 4.461781e+000 4.311553e+000 5.043038e-001
         vertex 4.461781e+000 4.311553e+000 5.633588e-001
         vertex 4.461781e+000 4.437538e+000 5.043038e-001
      endloop
   endfacet
   facet normal -1.000000e+000 0.000000e+000 0.000000e+000
      outer loop
         vertex 4.461781e+000 4.437538e+000 5.043038e-001
         vertex 4.461781e+000 4.311553e+000 5.633588e-001
         vertex 4.461781e+000 4.437538e+000 5.633588e-001
      endloop
   endfacet
   facet normal 0.000000e+000 0.000000e+000 -1.000000e+000
      outer loop
         vertex 4.461781e+000 4.437538e+000 5.043038e-001
         vertex 5.121229e+000 4.437538e+000 5.043038e-001
         vertex 4.461781e+000 4.311553e+000 5.043038e-001
      endloop
   endfacet
   facet normal 0.000000e+000 0.000000e+000 -1.000000e+000
      outer loop
         vertex 4.461781e+000 4.311553e+000 5.043038e-001
         vertex 5.121229e+000 4.437538e+000 5.043038e-001
         vertex 5.072869e+000 4.311553e+000 5.043038e-001
      endloop
   endfacet
   facet normal 9.335804e-001 -3.583680e-001 0.000000e+000
      outer loop
         vertex 4.974443e+000 4.311553e+000 6.224139e-001
         vertex 5.015247e+000 4.417853e+000 6.224139e-001
         vertex 4.974443e+000 4.311553e+000 6.814691e-001
      endloop
   endfacet
   facet normal 9.335804e-001 -3.583680e-001 0.000000e+000
      outer loop
         vertex 4.974443e+000 4.311553e+000 6.814691e-001
         vertex 5.015247e+000 4.417853e+000 6.224139e-001
         vertex 4.992579e+000 4.358798e+000 6.814691e-001
      endloop
   endfacet
   facet normal 0.000000e+000 0.000000e+000 1.000000e+000
      outer loop
         vertex 5.072869e+000 4.311553e+000 6.224139e-001
         vertex 5.113673e+000 4.417853e+000 6.224139e-001
         vertex 4.974443e+000 4.311553e+000 6.224139e-001
      endloop
   endfacet
   facet normal 0.000000e+000 0.000000e+000 1.000000e+000
      outer loop
         vertex 4.974443e+000 4.311553e+000 6.224139e-001
         vertex 5.113673e+000 4.417853e+000 6.224139e-001
         vertex 5.015247e+000 4.417853e+000 6.224139e-001
      endloop
   endfacet
   facet normal 0.000000e+000 7.071068e-001 7.071068e-001
      outer loop
         vertex 5.113673e+000 4.417853e+000 6.224139e-001
         vertex 5.121229e+000 4.437538e+000 6.027289e-001
         vertex 5.015247e+000 4.417853e+000 6.224139e-001
      endloop
   endfacet
   facet normal 0.000000e+000 7.071068e-001 7.071068e-001
      outer loop
         vertex 5.015247e+000 4.417853e+000 6.224139e-001
         vertex 5.121229e+000 4.437538e+000 6.027289e-001
         vertex 4.264930e+000 4.437538e+000 6.027289e-001
      endloop
   endfacet
   facet normal 0.000000e+000 7.071068e-001 7.071068e-001
      outer loop
         vertex 4.992579e+000 4.358798e+000 6.814691e-001
         vertex 5.015247e+000 4.417853e+000 6.224139e-001
         vertex 4.551215e+000 4.358798e+000 6.814691e-001
      endloop
   endfacet
   facet normal 0.000000e+000 7.071068e-001 7.071068e-001
      outer loop
         vertex 4.551215e+000 4.358798e+000 6.814691e-001
         vertex 5.015247e+000 4.417853e+000 6.224139e-001
         vertex 4.264930e+000 4.437538e+000 6.027289e-001
      endloop
   endfacet
   facet normal 0.000000e+000 7.071068e-001 7.071068e-001
      outer loop
         vertex 4.551215e+000 4.358798e+000 6.814691e-001
         vertex 4.264930e+000 4.437538e+000 6.027289e-001
         vertex 4.314994e+000 4.358798e+000 6.814691e-001
      endloop
   endfacet
   facet normal 0.000000e+000 7.071068e-001 7.071068e-001
      outer loop
         vertex 4.314994e+000 4.358798e+000 6.814691e-001
         vertex 4.264930e+000 4.437538e+000 6.027289e-001
         vertex 4.234704e+000 4.358798e+000 6.814691e-001
      endloop
   endfacet
endsolid